<?xml version="1.0" encoding="UTF-8" standalone="no"?>
<svg
   width="45"
   height="45"
   viewBox="0 0 45 45"
   fill="none"
   version="1.1"
   id="svg25"
   sodipodi:docname="Circle.svg"
   inkscape:version="1.4.2 (ebf0e94, 2025-05-08)"
   xmlns:inkscape="http://www.inkscape.org/namespaces/inkscape"
   xmlns:sodipodi="http://sodipodi.sourceforge.net/DTD/sodipodi-0.dtd"
   xmlns="http://www.w3.org/2000/svg"
   xmlns:svg="http://www.w3.org/2000/svg">
  <sodipodi:namedview
     id="namedview25"
     pagecolor="#ffffff"
     bordercolor="#000000"
     borderopacity="0.25"
     inkscape:showpageshadow="2"
     inkscape:pageopacity="0.0"
     inkscape:pagecheckerboard="0"
     inkscape:deskcolor="#d1d1d1"
     inkscape:zoom="17.933333"
     inkscape:cx="22.5"
     inkscape:cy="22.5"
     inkscape:window-width="1920"
     inkscape:window-height="1009"
     inkscape:window-x="-8"
     inkscape:window-y="-8"
     inkscape:window-maximized="1"
     inkscape:current-layer="svg25" />
  <mask
     id="mask0_12657_173525"
     style="mask-type:luminance"
     maskUnits="userSpaceOnUse"
     x="4"
     y="5"
     width="34"
     height="34">
    <path
       d="M7.604 22.1974C7.604 14.6255 13.7422 8.4873 21.3141 8.4873C28.886 8.4873 35.0242 14.6255 35.0242 22.1974C35.0242 29.7693 28.886 35.9075 21.3141 35.9075C13.7422 35.9075 7.604 29.7693 7.604 22.1974Z"
       fill="white"
       id="path1" />
    <path
       opacity="0.38"
       d="M16.283 6.71294C24.4905 4.04614 33.3966 8.81689 36.1752 17.3687C38.9539 25.9205 34.5529 35.015 26.3453 37.6818C18.1378 40.3486 9.23171 35.5778 6.45306 27.026C3.67441 18.4742 8.0754 9.37974 16.283 6.71294Z"
       fill="white"
       id="path2" />
    <path
       opacity="0.38"
       d="M29.1164 6.8848C36.5789 10.6871 39.1352 20.6253 34.8261 29.0823C30.5171 37.5394 20.9743 41.3127 13.5118 37.5104C6.04933 33.7081 3.49298 23.7699 7.80205 15.3129C12.1111 6.85585 21.6539 3.08247 29.1164 6.8848Z"
       fill="white"
       id="path3" />
    <path
       opacity="0.38"
       d="M37.1505 17.0521C39.7851 25.1606 34.8308 34.0376 26.0846 36.8794C17.3385 39.7212 8.11254 35.4517 5.47792 27.3431C2.84329 19.2346 7.79766 10.3576 16.5438 7.51579C25.2899 4.674 34.5159 8.94354 37.1505 17.0521Z"
       fill="white"
       id="path4" />
  </mask>
  <g
     id="g25"
     transform="translate(1.1857939,0.3024026)">
    <g
       mask="url(#mask0_12657_173525)"
       id="g12">
      <path
         opacity="0.8"
         d="m 21.3146,42.0422 c 10.96,0 19.8448,-8.8848 19.8448,-19.8448 0,-10.96 -8.8848,-19.84486 -19.8448,-19.84486 -10.96,0 -19.84487,8.88486 -19.84487,19.84486 0,10.96 8.88487,19.8448 19.84487,19.8448 z"
         fill="#ffffff"
         id="path5" />
      <mask
         id="mask1_12657_173525"
         maskUnits="userSpaceOnUse"
         x="3"
         y="4"
         width="36"
         height="36">
        <path
           d="m 21.3142,39.8471 c 9.7476,0 17.6496,-7.902 17.6496,-17.6496 0,-9.7476 -7.902,-17.64965 -17.6496,-17.64965 -9.7476,0 -17.64965,7.90205 -17.64965,17.64965 0,9.7476 7.90205,17.6496 17.64965,17.6496 z"
           fill="url(#paint0_radial_12657_173525)"
           id="path6" />
      </mask>
      <g
         mask="url(#mask1_12657_173525)"
         id="g7">
        <path
           d="m 21.3142,39.8471 c 9.7476,0 17.6496,-7.902 17.6496,-17.6496 0,-9.7476 -7.902,-17.64965 -17.6496,-17.64965 -9.7476,0 -17.64965,7.90205 -17.64965,17.64965 0,9.7476 7.90205,17.6496 17.64965,17.6496 z"
           fill="url(#paint1_linear_12657_173525)"
           id="path7"
           style="fill:url(#paint1_linear_12657_173525)" />
      </g>
      <path
         d="m 21.3145,51.3809 c 16.1176,0 29.1836,-13.066 29.1836,-29.1836 0,-16.11768 -13.066,-29.18363 -29.1836,-29.18363 -16.11769,0 -29.18364,13.06595 -29.18364,29.18363 0,16.1176 13.06595,29.1836 29.18364,29.1836 z"
         fill="url(#paint2_radial_12657_173525)"
         id="path8"
         style="fill:url(#paint2_radial_12657_173525)" />
      <path
         opacity="0.05"
         d="m 21.3145,51.3809 c 16.1176,0 29.1836,-13.066 29.1836,-29.1836 0,-16.11768 -13.066,-29.18363 -29.1836,-29.18363 -16.11769,0 -29.18364,13.06595 -29.18364,29.18363 0,16.1176 13.06595,29.1836 29.18364,29.1836 z"
         fill="url(#paint3_radial_12657_173525)"
         id="path9"
         style="fill:url(#paint3_radial_12657_173525)" />
      <path
         style="mix-blend-mode:screen;fill:url(#paint4_linear_12657_173525)"
         opacity="0.38"
         d="M 9.14648,4.0135 C 12.4705,6.93969 14.1988,16.33 15.1322,21.471 16.4746,27.7089 18.1603,32.3804 21.2219,39.6308 9.8774,46.1495 -4.63646,36.0761 -5.79061,24.1836 -6.94476,12.2911 4.31937,4.78873 9.14648,4.0135 Z"
         fill="url(#paint4_linear_12657_173525)"
         id="path10" />
      <path
         style="mix-blend-mode:screen;fill:url(#paint5_linear_12657_173525)"
         opacity="0.38"
         d="M -5.09418,10.175 C 3.53865,10.286 4.46727,20.3723 3.00835,25.9416 1.28986,32.5305 0.457752,38.9482 6.68256,44.5952 0.670391,43.2779 -8.3755,36.6098 -9.74956,27.707 -11.1236,18.8041 -6.99569,12.7142 -5.09418,10.175 Z"
         fill="url(#paint5_linear_12657_173525)"
         id="path11" />
      <path
         style="mix-blend-mode:screen;fill:url(#paint6_linear_12657_173525)"
         opacity="0.30165"
         d="M 26.2394,-1.49691 C 21.0007,4.83687 25.3978,13.0274 30.9637,17.7013 38.1613,23.6383 44.8016,25.6209 43.522,34.6668 23.3008,54.7241 -1.05107,40.3034 -3.05977,23.6885 -5.06847,7.07361 16.9911,-3.31643 26.2394,-1.49691 Z"
         fill="url(#paint6_linear_12657_173525)"
         id="path12" />
    </g>
  </g>
  <defs
     id="defs25">
    <radialGradient
       id="paint0_radial_12657_173525"
       cx="0"
       cy="0"
       r="1"
       gradientUnits="userSpaceOnUse"
       gradientTransform="translate(7.16518 39.8996) rotate(-90) scale(26.934 21.7417)">
      <stop
         offset="0.24"
         id="stop12" />
      <stop
         offset="1"
         stop-color="white"
         id="stop13" />
    </radialGradient>
    <linearGradient
       id="paint1_linear_12657_173525"
       x1="3.66455"
       y1="22.1975"
       x2="38.9638"
       y2="22.1975"
       gradientUnits="userSpaceOnUse">
      <stop
         stop-color="#FF0000"
         id="stop14" />
      <stop
         offset="1"
         stop-color="#FC0137"
         id="stop15" />
    </linearGradient>
    <radialGradient
       id="paint2_radial_12657_173525"
       cx="0"
       cy="0"
       r="1"
       gradientUnits="userSpaceOnUse"
       gradientTransform="matrix(29.1836,0,0,29.1836,-7.81664,-6.93383)">
      <stop
         id="stop16" />
      <stop
         offset="1"
         stop-color="#FC0137"
         stop-opacity="0"
         id="stop17" />
    </radialGradient>
    <radialGradient
       id="paint3_radial_12657_173525"
       cx="0"
       cy="0"
       r="1"
       gradientUnits="userSpaceOnUse"
       gradientTransform="matrix(29.1836,0,0,29.1836,-7.81664,-6.93383)">
      <stop
         stop-color="white"
         id="stop18" />
      <stop
         offset="1"
         stop-color="white"
         stop-opacity="0"
         id="stop19" />
    </radialGradient>
    <linearGradient
       id="paint4_linear_12657_173525"
       x1="-5.60091"
       y1="28.0277"
       x2="15.466"
       y2="18.1623"
       gradientUnits="userSpaceOnUse">
      <stop
         id="stop20" />
      <stop
         offset="1"
         stop-color="#FF0000"
         id="stop21" />
    </linearGradient>
    <linearGradient
       id="paint5_linear_12657_173525"
       x1="-11.8483"
       y1="30.8593"
       x2="4.30694"
       y2="21.3608"
       gradientUnits="userSpaceOnUse">
      <stop
         id="stop22" />
      <stop
         offset="1"
         stop-color="#FF0000"
         id="stop23" />
    </linearGradient>
    <linearGradient
       id="paint6_linear_12657_173525"
       x1="-0.800022"
       y1="28.643"
       x2="29.7695"
       y2="15.3768"
       gradientUnits="userSpaceOnUse">
      <stop
         id="stop24" />
      <stop
         offset="1"
         stop-color="#FF0000"
         id="stop25" />
    </linearGradient>
  </defs>
</svg>
