<svg width="20" height="18" viewBox="0 0 20 18" fill="none" xmlns="http://www.w3.org/2000/svg">
<path d="M11.1882 0C12.832 0 14.2812 0.326931 15.5357 0.980693C16.7901 1.61959 17.7706 2.51846 18.4771 3.67737C20.4876 6.97512 20.5276 11.1603 18.4771 14.5668C17.7706 15.7257 16.7901 16.632 15.5357 17.2858C14.2812 17.9247 12.832 18 11.1882 18C11.1882 18 3.29393 18 2.14766 18C1.50133 18 0.00144073 17.5 0.00144073 16C0.00144073 14.5 -0.00131314 14 0.999993 14H10.9992C13.0523 14 15.3498 11.5256 15.3498 9.25064C15.3498 6.97571 14.377 4 11.1882 4C7.99945 4 0.999993 4 0.999993 4C-0.0810746 4 0.00143772 3.07319 0.00145217 2C0.00145217 0.926814 1.50133 0 2.14766 0H11.1882Z" fill="#FF0000"/>
</svg>
