<svg width="80" height="80" viewBox="0 0 80 80" fill="none" xmlns="http://www.w3.org/2000/svg">
<path d="M72 2C75.3137 2 78 4.68629 78 8V72C78 75.3137 75.3137 78 72 78H8C4.68629 78 2 75.3137 2 72V8C2 4.68629 4.68629 2 8 2H72Z" fill="#FF0000"/>
<path d="M72 2C75.3137 2 78 4.68629 78 8V72C78 75.3137 75.3137 78 72 78H8C4.68629 78 2 75.3137 2 72V8C2 4.68629 4.68629 2 8 2H72Z" stroke="white" stroke-width="4"/>
<path d="M42.3764 22C45.664 22 48.5625 22.6539 51.0714 23.9614C53.5802 25.2392 55.5412 27.0369 56.9543 29.3547C60.9752 35.9502 61.0551 44.3207 56.9543 51.1336C55.5412 53.4514 53.5803 55.2641 51.0714 56.5716C48.5625 57.8494 45.664 58 42.3764 58C42.3764 58 26.5879 58 24.2953 58C23.0027 58 20.0029 57 20.0029 54C20.0029 51 19.9974 50 22 50H41.9985C46.1047 50 50.6996 45.0512 50.6996 40.5013C50.6996 35.9514 48.754 30 42.3764 30C35.9989 30 22 30 22 30C19.8379 30 20.0029 28.1464 20.0029 26C20.0029 23.8536 23.0027 22 24.2953 22H42.3764Z" fill="white"/>
</svg>
