<svg width="541" height="136" viewBox="0 0 541 136" fill="none" xmlns="http://www.w3.org/2000/svg">
<path d="M14.7296 135.57C6.89957 135.57 0.55957 129.03 0.55957 120.96V112.02C0.55957 108.79 3.09957 106.18 6.22957 106.18H89.4696C99.6496 106.18 109.63 101.84 116.86 94.2597C123.83 86.9597 127.57 77.4897 127.41 67.5997C127.07 47.0397 110.57 30.3197 90.6196 30.3197H6.22957C3.09957 30.3197 0.55957 27.6997 0.55957 24.4797V15.5397C0.55957 7.46969 6.90957 0.929688 14.7296 0.929688H90.5396C108.43 0.929688 125.13 8.2597 137.57 21.5697C150 34.8697 156.48 52.3597 155.81 70.8197C155.17 88.3797 147.83 104.76 135.14 116.93C122.61 128.95 106.26 135.57 89.1196 135.57H14.7396H14.7296Z" fill="#FF0000"/>
<path d="M203.419 16.1797H196.909C190.646 16.1797 185.569 21.2568 185.569 27.5197V123.77C185.569 130.033 190.646 135.11 196.909 135.11H203.419C209.682 135.11 214.759 130.033 214.759 123.77V27.5197C214.759 21.2568 209.682 16.1797 203.419 16.1797Z" fill="white"/>
<path d="M262.379 58.1396H255.629C249.366 58.1396 244.289 63.2167 244.289 69.4796V123.5C244.289 129.763 249.366 134.84 255.629 134.84H262.379C268.642 134.84 273.719 129.763 273.719 123.5V69.4796C273.719 63.2167 268.642 58.1396 262.379 58.1396Z" fill="white"/>
<path d="M255.32 37.5699C255.2 37.1299 255.12 36.7098 255.08 36.3398C255.15 36.7598 255.23 37.1699 255.32 37.5699Z" fill="white"/>
<path d="M510.1 74.5695C510.09 74.2595 510.08 73.9495 510.05 73.6395C509.08 57.9895 496.07 45.5995 480.17 45.5995C464.27 45.5995 450.3 58.9295 450.24 75.4195V75.5295C450.24 91.0195 462.01 103.85 477.12 105.28C492.23 106.71 531.62 105.68 531.62 105.68C536.34 105.71 540.15 109.54 540.15 114.26V135.08C540.15 135.08 483.06 135.03 480.52 135.03C446.65 135.03 419.37 106.78 420.96 72.5595C422.38 42.0095 447.18 17.2295 477.73 15.8395C490.99 15.2295 503.37 18.9695 513.53 25.7395C529.32 36.2495 539.8 54.0795 540.15 74.3795V81.9095C540.15 81.9095 540.15 82.0095 540.15 82.0595C539.49 89.7695 533.02 95.8295 525.13 95.8295C520.97 95.8295 517.2 94.1395 514.47 91.4095C512.04 88.9895 510.58 85.7595 510.28 81.9195C510.28 81.9195 510.11 74.8395 510.1 74.5595V74.5695Z" fill="white"/>
<path d="M391.41 56.9996V123.52C391.41 129.78 386.33 134.86 380.07 134.86H373.6C367.33 134.86 362.26 129.79 362.26 123.53V59.1796C362.26 55.1096 360.61 51.4296 357.95 48.7696C355.06 45.8796 350.97 44.1796 346.5 44.4996C338.73 45.0396 332.84 51.7796 332.84 59.5596V123.52C332.84 129.78 327.76 134.86 321.5 134.86H314.82C308.56 134.86 303.48 129.78 303.48 123.52L303.51 59.1396C303.51 58.3696 303.45 57.6096 303.34 56.8696C302.86 53.7096 301.36 50.8696 299.2 48.7096C297.2 46.7096 294.64 45.2896 291.76 44.6996C290.03 44.3396 288.23 44.3996 286.48 44.6696C282.24 45.3196 281.51 46.5096 278.59 47.8196H278.58C276.29 49.1096 273.64 49.8396 270.82 49.8396C263.44 49.8396 257.22 44.8096 255.43 37.9796C255.39 37.8496 255.35 37.7096 255.32 37.5696C255.23 37.1696 255.15 36.7596 255.08 36.3396V36.3096C255.07 36.2496 255.06 36.1896 255.06 36.1296C254.85 33.1796 255.15 30.3296 256.14 27.7496C256.15 27.7096 256.17 27.6796 256.18 27.6496C259.44 19.3196 269.94 13.8596 293.87 16.9796C301.49 17.9696 304.97 18.4196 314.23 22.2596C318.44 24.0096 318.46 24.7396 322.25 22.4996C329.64 18.1196 342.15 16.9796 349.77 16.9796C372.52 16.9796 391.41 33.4396 391.41 56.9996Z" fill="white"/>
</svg>
