<svg width="32" height="32" viewBox="0 0 48 48" fill="none" xmlns="http://www.w3.org/2000/svg">
<path fill-rule="evenodd" clip-rule="evenodd" d="M39.5972 7.07169L39.9292 7.41753C40.2206 7.69373 40.3867 7.9237 40.6638 8.2137C40.5046 9.3011 42.5128 11.6866 42.1462 9.9895C42.428 10.2869 41.9214 9.73465 42.1878 10.0464C42.2158 10.0792 43.588 13.2865 43.062 11.242C43.4534 11.7047 45.2079 15.5577 45.1006 15.1852C45.1245 15.2182 44.5984 14.0427 44.6224 14.0762C44.7234 14.2173 44.8144 15.7562 44.4767 13.9562C44.9021 15.9372 45.0847 16.333 45.1006 16.3562C46.357 20.9162 44.797 21.0362 46.754 23.7961C46.754 28.4764 43.7523 34.7593 41.4316 38.4529C41.4035 38.4978 38.7877 39.119 40.7995 37.1162C37.9427 39.9603 41.391 36.4356 41.2171 36.6868C41.1792 36.7416 40.3334 36.5955 41.7601 37.08C41.718 37.1397 41.8026 37.5008 41.7601 37.56C41.7171 37.6198 41.5635 37.7407 41.5201 37.8V37.68C41.4435 37.7844 40.7583 38.5369 40.6801 38.64C40.6355 38.6987 40.605 37.9819 40.5601 38.04C40.3758 38.2785 38.725 39.7862 39.8401 39.84C39.8011 39.8867 39.7592 39.9139 39.7201 39.96C39.5061 40.2127 39.5842 39.8741 39.3601 40.1176C39.3366 40.1431 39.6237 40.0547 39.6001 40.08C39.5109 40.1761 39.451 40.1053 39.3601 40.2C36.8541 39.516 38.9058 40.0535 38.8801 40.08C38.6635 40.3038 38.3428 40.4582 38.7601 40.92C38.2228 40.3382 38.4024 40.0873 38.3703 40.1176L38.2801 40.404C35.6051 39.2449 36.9286 39.7048 36.8172 39.8057C36.7969 39.8241 35.574 40.0471 37.9775 41.28C35.574 40.0471 38.1774 41.4357 37.9355 41.6369L36.8401 41.88C36.804 41.9097 34.6157 42.0728 36.7201 42.24C34.0157 41.9528 36.4502 42.2887 36.3601 42.36C35.8768 41.6191 35.5419 43.0144 35.5201 43.0315C35.3905 43.1335 33.9027 43.7829 34.5601 43.2C33.9027 43.5429 35.5441 43.1821 35.5201 43.2C35.4218 43.2736 35.2602 43.4875 35.1601 43.56C35.1284 43.5827 34.295 42.1958 34.2001 42.84C30.2667 45.658 28.7601 46.9931 23.5571 46.9931C22.6251 46.9931 22.7077 46.9778 20.8013 47.6393L20.2136 47.5646L20.1792 47.5599C19.9804 47.5318 19.7823 47.5013 19.5849 47.4684C19.5776 47.4672 19.5699 47.4659 19.5622 47.4646C19.3831 47.4345 19.2049 47.4025 19.0275 47.3686C18.9995 47.3632 18.9715 47.3578 18.9435 47.3523C18.7677 47.3181 18.5926 47.2819 18.4182 47.2438C18.3796 47.2353 18.3412 47.2268 18.3029 47.2182C17.9396 47.137 17.5793 47.0475 17.2224 46.9499C17.1983 46.9433 17.1743 46.9366 17.1502 46.93C16.9819 46.8835 16.8143 46.8351 16.6475 46.785C16.6317 46.7801 16.6161 46.7754 16.6004 46.7707C14.2801 44.04 11.35 43.7367 8.99331 41.8469L8.56221 41.52L8.48441 41.4644C8.18211 41.2069 8.05706 40.9615 7.76816 40.6897L7.80011 40.68C7.77141 40.6529 7.58871 40.4672 7.56011 40.44C7.43393 40.32 7.80011 40.1484 7.44011 40.44C7.56011 40.32 7.45831 40.3381 7.44011 40.32C7.15061 40.0314 7.35391 40.2621 7.08011 39.96C7.08011 39.96 6.86891 39.752 6.84011 39.72C6.58601 39.4366 5.52091 38.4556 5.28011 38.1599C5.68621 37.1431 5.80011 37.2694 5.34651 37.8705C3.9706 32.5362 3.14043 28.0895 0.371031 24.5133C0.371031 11.2673 9.46168 0.614502 22.7077 0.614502C28.8429 0.614502 34.9709 2.8946 39.2159 6.6878L39.5972 7.07169ZM20.2136 47.5646L20.2458 47.5691L20.3788 47.5871L20.4452 47.5958L20.5757 47.6123L20.6331 47.6195L20.8013 47.6393L20.8071 47.64C20.749 47.6334 20.691 47.6266 20.6331 47.6195L20.8013 47.2438L20.5757 47.6123L20.4925 47.602L20.4452 47.5958L20.411 47.5915L20.3788 47.5871L20.3357 47.5814L20.2458 47.5691L20.2054 47.5636L20.2136 47.5646ZM11.2444 28.8152L13.7008 24.9234H19.6643H20.6877L14.2291 33.5439L18.4684 40.2608L22.7077 46.9778C22.9895 46.9879 23.2727 46.9931 23.5571 46.9931C28.6876 46.9931 34.1097 44.7066 37.9527 41.8821C40.2029 40.0872 42.1119 37.8822 43.5664 35.3806L42.1462 9.9895C41.4256 9.017 40.0769 7.535 39.2159 6.6878L31.7055 27.1183L30.256 18.6588H28.0857L24.8735 26.2047L23.3718 20.6402L19.7925 21.6062L20.1451 22.9128H0.374508C0.373008 22.9545 0.371807 23.0193 0.371007 23.1008C0.364207 23.3319 0.360107 23.5636 0.360107 23.7961C0.360107 24.2621 0.373876 24.7248 0.401029 25.1841C0.689839 30.0683 2.4928 34.548 5.34651 38.1599L8.25981 33.5439L0.401029 25.1841L8.78811 24.9234L11.2444 28.8152ZM11.2444 38.2771L8.99331 41.8469C11.0463 43.5059 13.9801 45.7941 16.5223 46.68L11.2444 38.2771ZM8.56221 41.52L8.77776 41.6834L9.09186 41.9261L8.28711 42.3066L8.41451 42.4111L8.43011 42.4238L8.55571 42.5253L8.99331 41.8469L8.56221 42.5305L8.55571 42.5253L8.48441 42.468L8.43011 42.4238L8.42181 42.4171L8.41451 42.4111L8.36801 42.3733L8.28711 42.3066L8.28231 42.3027L9.09186 41.9261C9.58941 41.3085 9.04101 41.8869 8.99331 41.8469L8.56221 41.52ZM43.062 11.242L42.1462 9.9895L43.5664 35.3806C45.1147 32.2719 46.754 27.5022 46.754 23.7961C46.754 19.1717 45.3978 14.8616 43.062 11.242ZM22.7077 0.614502C10.8214 0.614502 1.86061 9.5585 0.517008 21.0866L1.32371 21.0625L4.49601 18.1232L5.96981 20.4582H16.5191L17.9928 18.1232L19.7925 21.6062L23.3718 20.6402L24.8735 26.2047L28.0857 18.6588H30.256L31.7055 27.1183L39.2159 6.6878C35.0882 2.9073 28.7407 0.614502 22.7077 0.614502ZM39.3605 6.41844L39.6073 5.9587C39.6955 6.038 39.783 6.118 39.8698 6.1987L39.8959 6.2228L39.9024 6.2289L39.9292 6.2538L39.9951 6.3156L39.9024 6.2289L39.8698 6.1987C39.783 6.118 39.6955 6.038 39.6073 5.9587L39.2159 6.6878L39.3605 6.41844Z" fill="black"/>
<path d="M22.7077 0.614502C10.8214 0.614502 1.86061 9.5585 0.517008 21.0866L1.32371 21.0625L4.49601 18.1232L5.96981 20.4582H16.5191L17.9928 18.1232L19.7925 21.6062L23.3718 20.6402L24.8735 26.2047L28.0857 18.6588H30.256L31.7055 27.1183L39.2159 6.6878C35.0882 2.9073 28.7407 0.614502 22.7077 0.614502Z" fill="#FFF200"/>
<path d="M43.062 11.242L42.1462 9.9895L43.5664 35.3806C45.1147 32.2719 46.754 27.5022 46.754 23.7961C46.754 19.1717 45.3978 14.8616 43.062 11.242Z" fill="#FFF200"/>
<path d="M11.2444 38.2771L8.99331 41.8469C11.0463 43.5059 13.9801 45.7941 16.5223 46.68L11.2444 38.2771Z" fill="#FFF200"/>
<path d="M22.7077 46.9778C22.9895 46.9879 23.2727 46.9931 23.5571 46.9931C28.6876 46.9931 34.1097 44.7066 37.9527 41.8821L36.8172 25.6782L32.4073 36.6868H29.9917L28.5543 28.2969L26.3061 34.9731H23.788L20.6877 24.9234L14.2291 33.5439L18.4684 40.2608L22.7077 46.9778Z" fill="#FFF200"/>
<path d="M0.401029 25.1841C0.699548 30.048 2.50296 34.5608 5.34651 38.1599L8.25981 33.5439L0.401029 25.1841Z" fill="#FFF200"/>
<path d="M11.2444 28.8152L13.7008 24.9234L20.6191 25.1272L19.6643 24.9234H20.6877L23.788 34.9731H26.3061L28.5543 28.2969L29.9917 36.6868H32.4073L36.8172 25.6782L37.9527 41.8821C40.2029 40.0872 42.1119 37.8822 43.5664 35.3806L42.1462 9.9895C41.4256 9.017 40.0769 7.535 39.2159 6.6878L31.7055 27.1183L30.256 18.6588H28.0857L24.8735 26.2047L23.3718 20.6402L19.7925 21.6062L20.1451 22.9128H0.374508C0.373008 22.9545 0.371807 23.0193 0.371007 23.1008C0.364207 23.3319 0.360107 23.5636 0.360107 23.7961C0.360107 24.2621 0.373876 24.7248 0.401029 25.1841C0.399963 25.1667 0.402058 25.2014 0.401029 25.1841L8.78811 24.9234L11.2444 28.8152Z" fill="#ED1302"/>
</svg>
