<svg width="43" height="105" viewBox="0 0 43 105" fill="none" xmlns="http://www.w3.org/2000/svg">
<path d="M1.35644 3.29183L6.77142 0.230215L6.77287 0.234317C7.33771 -0.106933 8.0794 -0.0890916 8.89485 0.378077L39.4889 17.9119C41.2548 18.9237 42.6863 21.6387 42.6863 23.9758V99.1766C42.6863 100.528 42.2057 101.454 41.4601 101.801L41.4611 101.804L36.0765 104.848L1.35644 3.29183Z" fill="url(#paint0_linear_2450_27594)"/>
<path d="M3.51085 87.0856L34.1052 104.619C35.871 105.631 37.3025 104.557 37.3025 102.22V27.0192C37.3025 24.6821 35.871 21.9673 34.1052 20.9553L3.51085 3.42167C1.74504 2.40961 0.313511 3.48381 0.313511 5.82089V81.0214C0.313511 83.3587 1.74504 86.0736 3.51085 87.0856Z" fill="#273339"/>
<path d="M33.824 25.9653L3.51023 8.59253V77.2378L33.824 94.6106V25.9653Z" fill="white"/>
<path d="M19.3894 88.868L13.6133 85.5576V91.3177L19.3894 94.628V88.868Z" fill="#7E7976"/>
<path d="M27.5281 39.0475L9.12315 28.4998V46.8534L27.5281 57.4012V39.0475Z" fill="#FFC30D"/>
<path d="M24.7371 60.4552L11.9163 53.1077V56.7203L24.7371 64.0681V60.4552Z" fill="#D7D1EB"/>
<path d="M22.7703 69.1623L13.8819 64.0686V69.1201L22.7703 74.214V69.1623Z" fill="#F7E041"/>
<path d="M20.1501 34.8534L16.5032 32.7634V38.4902L20.1501 40.5802V34.8534Z" fill="#CC8241"/>
<path d="M26.2056 49.5895L20.1485 46.1182V47.2496L26.2056 50.7209V49.5895Z" fill="#8B451C"/>
<path d="M26.2068 51.6096L21.6081 48.9741V49.833L26.2068 52.4685V51.6096Z" fill="#8B451C"/>
<path d="M26.2068 53.1681L21.6081 50.5325V51.3915L26.2068 54.027V53.1681Z" fill="#8B451C"/>
<defs>
<linearGradient id="paint0_linear_2450_27594" x1="23.1544" y1="35.5461" x2="19.1407" y2="28.5424" gradientUnits="userSpaceOnUse">
<stop stop-color="#263238"/>
<stop offset="1" stop-color="#6B6A6A" stop-opacity="0.88"/>
</linearGradient>
</defs>
</svg>
