<svg width="225" height="235" viewBox="0 0 225 235" fill="none" xmlns="http://www.w3.org/2000/svg">
<path d="M26.6094 0.81366H108.619C113.086 0.81366 117.072 2.87838 119.672 6.11346C121.627 8.54428 122.795 11.6317 122.795 14.9894V183.324C122.795 191.141 116.444 197.492 108.619 197.492H26.6094C22.2159 197.492 18.2894 195.486 15.6895 192.339L15.6885 192.338L15.3184 191.871C13.5125 189.499 12.4415 186.534 12.4414 183.324V14.9894C12.4416 7.16432 18.7925 0.813812 26.6094 0.81366Z" fill="white" stroke="#C7C7CC"/>
<path d="M117.03 21.3532V176.954C117.03 184.285 111.083 190.225 103.753 190.225H31.4759C24.1454 190.225 18.2053 184.285 18.2053 176.954V21.3532C18.2053 14.0305 24.1454 8.08263 31.4759 8.08263H53.9511V13.2591C53.9511 14.5363 54.979 15.5636 56.2563 15.5636H78.9807C80.258 15.5636 81.2859 14.5357 81.2859 13.2591V8.08263H103.753C111.082 8.08263 117.03 14.0305 117.03 21.3532Z" fill="#E5E5EA"/>
<path d="M32.9426 10.1929H53.4514V13.2593C53.4514 14.8129 54.7029 16.0639 56.2561 16.064H78.9807C80.534 16.064 81.7863 14.8122 81.7863 13.2593V10.1929H102.287C109.037 10.1926 114.527 15.7712 114.528 22.6832V175.035C114.527 181.947 109.036 187.533 102.286 187.533H32.9426C26.1931 187.533 20.7084 181.948 20.7082 175.035V22.6832C20.7084 15.7707 26.1921 10.1929 32.9426 10.1929Z" fill="#F9F9F9" stroke="#E5E5EA"/>
<path d="M67.1705 123.176C63.2718 123.128 60.1492 119.929 60.1983 116.027C60.2467 112.178 63.3635 109.087 67.1957 109.054C67.2451 109.054 67.2942 109.054 67.3437 109.054C71.2425 109.102 74.3643 112.304 74.3159 116.203C74.2676 120.102 71.0693 123.224 67.1705 123.176Z" fill="#3A3A3C"/>
<path d="M99.5077 93.3846L99.4224 93.4535C97.987 94.5829 95.9417 94.3743 94.7114 93.0218C87.5336 85.1391 77.2333 81.2023 66.9612 81.2636C57.2166 81.3222 47.4938 84.9746 40.4793 92.2532C39.2113 93.5665 37.16 93.7161 35.7587 92.5505L35.6777 92.4805C34.1181 91.187 34.0203 88.8402 35.4409 87.3991C43.2543 79.476 54.0248 74.5989 65.2257 74.1528C65.7838 74.1254 66.3434 74.106 66.9014 74.1048C79.3452 73.961 91.5108 79.2955 99.8868 88.3126C101.264 89.7927 101.102 92.1326 99.5077 93.3846Z" fill="#3A3A3C"/>
<path d="M80.8839 108.012L80.705 108.151C79.4107 109.164 77.5847 109.121 76.3353 108.054C73.928 105.995 70.8108 104.735 67.3955 104.694C67.3163 104.692 67.2372 104.691 67.1603 104.694C63.8542 104.705 60.8158 105.867 58.4203 107.796C57.1394 108.829 55.3133 108.823 54.0514 107.772L53.8756 107.627C52.2056 106.236 52.2258 103.663 53.9167 102.293C57.5292 99.3683 62.1135 97.6112 67.0978 97.58C67.2265 97.5811 67.3552 97.5823 67.4834 97.5834C72.6441 97.6474 77.354 99.5541 80.9901 102.674C82.6414 104.09 82.5938 106.666 80.8839 108.012Z" fill="#3A3A3C"/>
<path d="M90.2199 100.68L90.0996 100.776C88.7357 101.844 86.7776 101.749 85.5561 100.517C80.9527 95.8781 74.5922 92.9767 67.5386 92.8907C67.3802 92.8881 67.2207 92.8888 67.0601 92.893C60.2356 92.9257 54.0225 95.6246 49.418 100.003C48.1641 101.196 46.2018 101.24 44.8706 100.13L44.7522 100.033C43.1759 98.7194 43.0758 96.319 44.5588 94.9082C50.41 89.335 58.314 85.9029 67.0003 85.8447C67.2059 85.8428 67.4179 85.8428 67.6258 85.8454C76.6025 85.9554 84.6962 89.6532 90.5568 95.5576C92.0026 97.0133 91.8343 99.4118 90.2199 100.68Z" fill="#3A3A3C"/>
<line x1="107.06" y1="61.5607" x2="35.0605" y2="133.561" stroke="#FF5C5C" stroke-width="3"/>
<path d="M44.8658 50.7587C49.5252 46.6719 49.9894 39.5818 45.9027 34.9224C41.816 30.263 34.7258 29.7987 30.0664 33.8855C25.407 37.9722 24.9428 45.0624 29.0295 49.7218C33.1162 54.3812 40.2064 54.8454 44.8658 50.7587Z" fill="#C7C7CC"/>
<path d="M89.3362 40.5343H52.802C52.5612 40.5343 52.3662 40.3393 52.3662 40.0985V36.079C52.3662 35.8382 52.5612 35.6432 52.802 35.6432H89.3362C89.577 35.6432 89.772 35.8382 89.772 36.079V40.0985C89.772 40.3387 89.577 40.5343 89.3362 40.5343Z" fill="#C7C7CC"/>
<path d="M81.5673 49.0133H52.8021C52.5613 49.0133 52.3663 48.8183 52.3663 48.5776V45.5742C52.3663 45.3334 52.5613 45.1384 52.8021 45.1384H81.5673C81.8081 45.1384 82.0031 45.3334 82.0031 45.5742V48.5776C82.0031 48.8183 81.8081 49.0133 81.5673 49.0133Z" fill="#C7C7CC"/>
<path d="M101.409 168.946H30.4368C30.0298 168.946 29.7 168.616 29.7 168.209V162.475C29.7 162.068 30.0298 161.738 30.4368 161.738H101.409C101.816 161.738 102.145 162.068 102.145 162.475V168.209C102.145 168.616 101.815 168.946 101.409 168.946Z" fill="#C7C7CC"/>
<path d="M101.577 168.946H59.1386V161.739H101.577C101.891 161.739 102.145 161.992 102.145 162.306V168.378C102.145 168.692 101.891 168.946 101.577 168.946Z" fill="#2C2C2E"/>
<path d="M72.7259 181.44H30.3426C29.9879 181.44 29.7 181.153 29.7 180.797V176.371C29.7 176.017 29.9879 175.729 30.3426 175.729H72.7259C73.0805 175.729 73.3684 176.017 73.3684 176.371V180.797C73.3684 181.152 73.0805 181.44 72.7259 181.44Z" fill="#C7C7CC"/>
<path d="M72.9144 181.44H51.5346V175.73H72.9144C73.165 175.73 73.3685 175.933 73.3685 176.184V180.986C73.3685 181.236 73.165 181.44 72.9144 181.44Z" fill="#2C2C2E"/>
<rect x="194.011" y="142.333" width="29.8906" height="30.6245" rx="14.9453" fill="white"/>
<rect x="194.011" y="142.333" width="29.8906" height="30.6245" rx="14.9453" stroke="#FF4747" stroke-width="1.66539"/>
<path d="M208.956 147.645C203.436 147.645 198.956 152.125 198.956 157.645C198.956 163.165 203.436 167.645 208.956 167.645C214.476 167.645 218.956 163.165 218.956 157.645C218.956 152.125 214.476 147.645 208.956 147.645ZM212.486 160.115C212.776 160.405 212.776 160.885 212.486 161.175C212.336 161.325 212.146 161.395 211.956 161.395C211.766 161.395 211.576 161.325 211.426 161.175L208.956 158.705L206.486 161.175C206.336 161.325 206.146 161.395 205.956 161.395C205.766 161.395 205.576 161.325 205.426 161.175C205.136 160.885 205.136 160.405 205.426 160.115L207.896 157.645L205.426 155.175C205.136 154.885 205.136 154.405 205.426 154.115C205.716 153.825 206.196 153.825 206.486 154.115L208.956 156.585L211.426 154.115C211.716 153.825 212.196 153.825 212.486 154.115C212.776 154.405 212.776 154.885 212.486 155.175L210.016 157.645L212.486 160.115Z" fill="#FF4747"/>
<path d="M191.861 108.795L191.862 108.796L194.185 109.469L194.186 109.47L195.074 109.726C195.409 109.829 195.605 110.183 195.513 110.525L173.177 187.336H168.342L191.052 109.24L191.053 109.241C191.156 108.892 191.52 108.694 191.861 108.795Z" fill="white" stroke="#C7C7CC"/>
<path d="M133.181 128.172C133.522 128.088 133.865 128.284 133.963 128.617V128.618L151.127 187.336H146.292L129.505 129.91C129.407 129.562 129.608 129.206 129.946 129.109L129.949 129.108L131.978 128.515L131.979 128.516L133.181 128.172Z" fill="white" stroke="#C7C7CC"/>
<path d="M117.527 208.582V216.637C117.527 217.084 117.166 217.446 116.72 217.446H110.381C109.935 217.446 109.573 217.084 109.573 216.637V208.582H117.527Z" fill="white" stroke="#C7C7CC"/>
<path d="M210.39 208.582V216.637C210.39 217.083 210.028 217.446 209.582 217.446H203.243C202.797 217.446 202.436 217.083 202.436 216.637V208.582H210.39Z" fill="white" stroke="#C7C7CC"/>
<path d="M105.867 188.337H213.762C214.221 188.336 214.591 188.709 214.591 189.167V206.756C214.591 207.209 214.223 207.579 213.761 207.579H105.867C105.409 207.579 105.037 207.208 105.037 206.756V189.167C105.037 188.711 105.412 188.337 105.867 188.337Z" fill="white" stroke="#C7C7CC"/>
<path d="M187.464 192.028H187.533C188.093 192.028 188.548 192.482 188.548 193.043V202.881C188.548 203.441 188.093 203.895 187.533 203.895H187.464C186.903 203.895 186.449 203.441 186.449 202.88V193.043C186.449 192.482 186.903 192.028 187.464 192.028Z" fill="#8E8E93" stroke="#C7C7CC" stroke-width="0.2928"/>
<path d="M194.041 192.028H194.111C194.672 192.028 195.126 192.482 195.126 193.043V202.88C195.126 203.441 194.672 203.895 194.111 203.895H194.041C193.481 203.895 193.026 203.441 193.026 202.88V193.043C193.026 192.482 193.481 192.028 194.041 192.028Z" fill="#8E8E93" stroke="#C7C7CC" stroke-width="0.2928"/>
<path d="M200.619 192.028H200.688C201.249 192.028 201.703 192.482 201.703 193.043V202.881C201.703 203.441 201.249 203.895 200.688 203.895H200.619C200.059 203.895 199.604 203.441 199.604 202.88V193.043C199.604 192.482 200.059 192.028 200.619 192.028Z" fill="#8E8E93" stroke="#C7C7CC" stroke-width="0.2928"/>
<path d="M207.196 192.028H207.267C207.827 192.028 208.281 192.482 208.281 193.043V202.88C208.281 203.441 207.827 203.895 207.267 203.895H207.196C206.636 203.895 206.182 203.441 206.182 202.88V193.043C206.182 192.482 206.636 192.028 207.196 192.028Z" fill="#8E8E93" stroke="#C7C7CC" stroke-width="0.2928"/>
</svg>
