<svg width="124" height="131" viewBox="0 0 124 131" fill="none" xmlns="http://www.w3.org/2000/svg">
<circle cx="61.8462" cy="57" r="57" fill="#2C2C2E"/>
<g filter="url(#filter0_dd_22549_3050)">
<path d="M39.9353 37.6382L39.9377 33.8186C39.9404 33.003 40.1025 32.3431 40.7032 31.7536C41.042 31.421 41.4783 31.1823 41.9409 31.0755C42.522 30.9414 43.1891 31.0265 43.7838 31.0279C44.6004 31.0296 45.4173 31.0132 46.2337 31.0209C46.9576 31.0475 47.6504 31.3178 48.147 31.8575C48.4366 32.1723 48.6627 32.5586 48.769 32.974C48.9163 33.5488 48.8524 34.2274 48.8521 34.8182C48.8517 35.7498 48.8388 36.6831 48.8521 37.6146L48.855 37.9914C48.8559 38.2177 48.8612 38.445 48.8561 38.6712L48.0499 38.6678L39.9344 38.6647L39.9357 38.22L39.9353 37.6382Z" fill="#FBFBFB"/>
<path d="M44.181 32.5701C44.6814 32.4911 45.2276 32.6433 45.6447 32.9174C46.1582 33.2547 46.5268 33.7639 46.6455 34.369C46.7638 34.9718 46.6358 35.6039 46.2896 36.1117C45.908 36.6716 45.3409 36.9807 44.6851 37.108C44.0983 37.1665 43.5365 37.0509 43.0529 36.7037C42.553 36.3449 42.2338 35.7904 42.1389 35.1869C42.0462 34.5979 42.1947 33.9678 42.5518 33.4876C42.9385 32.9676 43.5503 32.6671 44.181 32.5701Z" fill="#A3A3A3"/>
<path d="M75.494 37.6382L75.4967 33.8186C75.4991 33.003 75.6612 32.3431 76.2619 31.7536C76.6007 31.421 77.037 31.1823 77.4996 31.0755C78.0809 30.9414 78.7478 31.0265 79.3425 31.0279C80.1592 31.0296 80.976 31.0132 81.7925 31.0209C82.5163 31.0475 83.2091 31.3178 83.7057 31.8575C83.9953 32.1723 84.2214 32.5586 84.3278 32.974C84.475 33.5488 84.4111 34.2274 84.4109 34.8182C84.4105 35.7498 84.3977 36.6831 84.4109 37.6146L84.4137 37.9914C84.4148 38.2177 84.4199 38.445 84.4148 38.6712L83.6086 38.6678L75.4932 38.6647L75.4944 38.22L75.4938 37.6382H75.494Z" fill="#FBFBFB"/>
<path d="M79.7397 32.5701C80.2402 32.4911 80.7863 32.6433 81.2037 32.9174C81.7169 33.2547 82.0855 33.7639 82.2042 34.369C82.3225 34.9718 82.1945 35.6039 81.8483 36.1117C81.4668 36.6716 80.8996 36.9807 80.2439 37.108C79.657 37.1665 79.0952 37.0509 78.6116 36.7037C78.1119 36.3449 77.7925 35.7904 77.6976 35.1869C77.6049 34.5979 77.7534 33.9678 78.1105 33.4876C78.4972 32.9676 79.109 32.6671 79.7397 32.5701Z" fill="#A3A3A3"/>
<path d="M90.957 37.8364H30.3066C27.8432 37.8364 25.8462 39.8327 25.8462 42.2951V74.557C25.8462 77.0195 27.8432 79.0156 30.3066 79.0156H90.957C93.4205 79.0156 95.4175 77.0195 95.4175 74.557V42.2951C95.4175 39.8327 93.4205 37.8364 90.957 37.8364Z" fill="url(#paint0_linear_22549_3050)"/>
<path d="M85.8369 49.6453H61.2581C60.4637 49.6453 59.8197 50.2893 59.8197 51.0837V51.0837C59.8197 51.8781 60.4637 52.522 61.2581 52.522H85.8369C86.6313 52.522 87.2753 51.8781 87.2753 51.0837C87.2753 50.2893 86.6313 49.6453 85.8369 49.6453Z" fill="#A3A3A3"/>
<path d="M89.7287 56.3047H61.2581C60.4637 56.3047 59.8197 56.9487 59.8197 57.7431V57.7431C59.8197 58.5375 60.4637 59.1815 61.2581 59.1815H89.7287C90.523 59.1815 91.167 58.5375 91.167 57.7431C91.167 56.9487 90.523 56.3047 89.7287 56.3047Z" fill="#A3A3A3"/>
</g>
<path d="M51.7058 56.4409C51.7058 59.7953 50.262 62.8167 47.964 64.9103C45.9348 66.7574 43.2357 67.8836 40.276 67.8836C37.3164 67.8836 34.6192 66.7574 32.59 64.9103C30.29 62.8167 28.8462 59.7974 28.8462 56.4409C28.8462 50.1231 33.9635 45 40.276 45C46.5885 45 51.7058 50.1231 51.7058 56.4409Z" fill="white"/>
<g filter="url(#filter1_dd_22549_3050)">
<path d="M88.4679 82.9927C93.1514 83.4923 97.3546 80.1044 97.8561 75.4254C98.3574 70.7465 94.967 66.5485 90.2835 66.0488C85.6 65.5492 81.3968 68.9371 80.8953 73.6161C80.394 78.295 83.7845 82.493 88.4679 82.9927Z" fill="#FF0000"/>
</g>
<path d="M94.0129 72.6667H92.1379V71.2407C92.1379 70.6465 91.8964 70.0765 91.4666 69.6563C91.0369 69.2361 90.454 69 89.8462 69C89.2384 69 88.6555 69.2361 88.2257 69.6563C87.796 70.0765 87.5545 70.6465 87.5545 71.2407V72.6667H85.6795C85.4585 72.6667 85.2465 72.7525 85.0903 72.9053C84.934 73.0581 84.8462 73.2654 84.8462 73.4815V79.1852C84.8462 79.4013 84.934 79.6085 85.0903 79.7613C85.2465 79.9142 85.4585 80 85.6795 80H94.0129C94.2339 80 94.4458 79.9142 94.6021 79.7613C94.7584 79.6085 94.8462 79.4013 94.8462 79.1852V73.4815C94.8462 73.2654 94.7584 73.0581 94.6021 72.9053C94.4458 72.7525 94.2339 72.6667 94.0129 72.6667ZM88.3879 71.2407C88.3879 70.8626 88.5415 70.4999 88.815 70.2325C89.0885 69.965 89.4594 69.8148 89.8462 69.8148C90.233 69.8148 90.6039 69.965 90.8774 70.2325C91.1509 70.4999 91.3045 70.8626 91.3045 71.2407V72.6667H88.3879V71.2407Z" fill="white"/>
<path d="M47.8462 61.1534C47.7207 61.332 47.5324 61.451 47.3441 61.57C45.4613 63.2365 42.9508 64.2483 40.1893 64.2483C37.9926 64.2483 35.9215 63.5937 34.2269 62.4628C33.7249 62.1652 33.2855 61.7486 32.8462 61.3915C33.0972 61.0939 33.4738 60.9154 34.2897 60.6178L34.6035 60.4987C35.2311 60.2607 36.1098 59.9631 37.2395 59.4869C37.4278 59.4274 37.5533 59.3084 37.6788 59.1893C37.7416 59.1298 37.8044 59.0703 37.8044 58.9513C37.8671 58.8322 37.9299 58.6537 37.9299 58.5346V56.511C37.8671 56.4515 37.8671 56.4515 37.8044 56.392C37.6161 56.1539 37.4905 55.8563 37.4905 55.4992L37.365 55.4397C36.8002 55.5588 36.8629 55.0231 36.7374 53.9518C36.6746 53.5352 36.7374 53.4161 36.9884 53.3566L37.1767 53.1185C36.8002 52.2853 36.6119 51.5115 36.6119 50.9164C36.6119 49.9046 37.0512 49.2499 37.6788 48.9523C37.3023 48.2381 37.3023 48 37.3023 48C37.3023 48 39.4989 48.3571 40.2521 48.2381C41.1935 48.0595 42.6997 48.2976 43.2646 49.4879C44.206 49.8451 44.5198 50.3807 44.6454 50.9759C44.7709 51.9282 44.206 52.94 44.0805 53.3566V53.4161C44.206 53.4756 44.2688 53.5947 44.206 54.0113C44.0805 55.0231 44.0805 55.6183 43.5784 55.4992L43.0763 56.3325C43.0763 56.4515 43.0763 56.4515 43.0136 56.511C43.0136 56.6896 43.0136 56.9872 43.0136 58.5942C43.0136 58.7727 43.0763 59.0108 43.2018 59.1298C43.2646 59.1893 43.2646 59.2489 43.3274 59.2489C43.4529 59.3679 43.5784 59.4869 43.7039 59.4869C44.9592 59.9631 45.8378 60.3202 46.5282 60.5582C47.1558 60.7963 47.5951 60.9749 47.8462 61.1534Z" fill="white"/>
<path d="M47.8462 61.1534C47.7207 61.3319 47.5324 61.4509 47.3441 61.57C45.4613 63.2365 42.9508 64.2483 40.1893 64.2483C37.9926 64.2483 35.9215 63.5936 34.2269 62.4627C33.7249 62.1652 33.2855 61.7485 32.8462 61.3914C33.0972 61.0938 33.4738 60.9153 34.2897 60.6177L34.6035 60.4987C35.2311 60.2606 36.1098 59.963 37.2395 59.4869C37.4278 59.4273 37.5533 59.3083 37.6788 59.1893C38.3064 60.0225 39.3106 60.5582 40.5031 60.5582C41.6328 60.5582 42.637 60.0225 43.2646 59.2488C43.3901 59.3678 43.5156 59.4869 43.6412 59.4869C44.8964 59.963 45.7751 60.3201 46.4654 60.5582C47.1558 60.7962 47.5951 60.9748 47.8462 61.1534Z" fill="#A3A3A3"/>
<path d="M44.137 53.2984C44.2 53.0602 44.0739 52.703 43.9477 52.5245C43.9477 52.4649 43.8846 52.4649 43.8846 52.4054C43.4429 51.5719 42.4965 51.2743 41.6132 51.2147C39.2788 51.0957 39.0895 51.5124 38.3955 50.9171C38.6479 51.2147 38.6479 51.7505 38.2693 52.3459C38.017 52.7626 37.5753 53.0007 37.1337 53.1198C36.0611 50.8575 36.6289 49.4288 37.6384 48.9525C37.2599 48.2381 37.2599 48 37.2599 48C37.2599 48 39.4681 48.3572 40.2252 48.2381C41.1716 48.0595 42.6858 48.2977 43.2537 49.4883C44.2 49.8455 44.5155 50.3813 44.6417 50.9766C44.831 51.8696 44.2631 52.8816 44.137 53.2984Z" fill="black"/>
<path d="M37.9922 58.5347V56.5111C37.9295 56.4516 37.9295 56.4516 37.8667 56.3921V56.273C37.9922 56.4516 38.1177 56.6301 38.306 56.7492L40.0006 57.88C40.3772 58.1776 40.942 58.1776 41.3186 57.88L42.8876 56.5706C42.9504 56.5111 43.0131 56.5111 43.0759 56.4516C43.0759 56.6301 43.0759 56.9277 43.0759 58.5347C43.0759 58.6537 43.0759 58.7133 43.1387 58.8323H37.9922C37.9295 58.7133 37.9922 58.6537 37.9922 58.5347Z" fill="url(#paint1_linear_22549_3050)"/>
<defs>
<filter id="filter0_dd_22549_3050" x="-9.53674e-06" y="26.6923" width="121.264" height="99.708" filterUnits="userSpaceOnUse" color-interpolation-filters="sRGB">
<feFlood flood-opacity="0" result="BackgroundImageFix"/>
<feColorMatrix in="SourceAlpha" type="matrix" values="0 0 0 0 0 0 0 0 0 0 0 0 0 0 0 0 0 0 127 0" result="hardAlpha"/>
<feOffset dy="8.61538"/>
<feGaussianBlur stdDeviation="4.30769"/>
<feComposite in2="hardAlpha" operator="out"/>
<feColorMatrix type="matrix" values="0 0 0 0 0.0901961 0 0 0 0 0.219608 0 0 0 0 0.482353 0 0 0 0.03 0"/>
<feBlend mode="normal" in2="BackgroundImageFix" result="effect1_dropShadow_22549_3050"/>
<feColorMatrix in="SourceAlpha" type="matrix" values="0 0 0 0 0 0 0 0 0 0 0 0 0 0 0 0 0 0 127 0" result="hardAlpha"/>
<feOffset dy="21.5385"/>
<feGaussianBlur stdDeviation="12.9231"/>
<feComposite in2="hardAlpha" operator="out"/>
<feColorMatrix type="matrix" values="0 0 0 0 0.0902477 0 0 0 0 0.2203 0 0 0 0 0.480404 0 0 0 0.08 0"/>
<feBlend mode="normal" in2="effect1_dropShadow_22549_3050" result="effect2_dropShadow_22549_3050"/>
<feBlend mode="normal" in="SourceGraphic" in2="effect2_dropShadow_22549_3050" result="shape"/>
</filter>
<filter id="filter1_dd_22549_3050" x="55" y="61.6922" width="68.7515" height="68.734" filterUnits="userSpaceOnUse" color-interpolation-filters="sRGB">
<feFlood flood-opacity="0" result="BackgroundImageFix"/>
<feColorMatrix in="SourceAlpha" type="matrix" values="0 0 0 0 0 0 0 0 0 0 0 0 0 0 0 0 0 0 127 0" result="hardAlpha"/>
<feOffset dy="8.61538"/>
<feGaussianBlur stdDeviation="4.30769"/>
<feComposite in2="hardAlpha" operator="out"/>
<feColorMatrix type="matrix" values="0 0 0 0 0.0901961 0 0 0 0 0.219608 0 0 0 0 0.482353 0 0 0 0.03 0"/>
<feBlend mode="normal" in2="BackgroundImageFix" result="effect1_dropShadow_22549_3050"/>
<feColorMatrix in="SourceAlpha" type="matrix" values="0 0 0 0 0 0 0 0 0 0 0 0 0 0 0 0 0 0 127 0" result="hardAlpha"/>
<feOffset dy="21.5385"/>
<feGaussianBlur stdDeviation="12.9231"/>
<feComposite in2="hardAlpha" operator="out"/>
<feColorMatrix type="matrix" values="0 0 0 0 0.0902477 0 0 0 0 0.2203 0 0 0 0 0.480404 0 0 0 0.08 0"/>
<feBlend mode="normal" in2="effect1_dropShadow_22549_3050" result="effect2_dropShadow_22549_3050"/>
<feBlend mode="normal" in="SourceGraphic" in2="effect2_dropShadow_22549_3050" result="shape"/>
</filter>
<linearGradient id="paint0_linear_22549_3050" x1="25.8506" y1="58.4094" x2="95.5012" y2="58.4094" gradientUnits="userSpaceOnUse">
<stop stop-color="white"/>
<stop offset="0.78" stop-color="#ECEEFF"/>
</linearGradient>
<linearGradient id="paint1_linear_22549_3050" x1="40.5027" y1="56.273" x2="40.5027" y2="58.8323" gradientUnits="userSpaceOnUse">
<stop stop-color="#DADADA"/>
<stop offset="1" stop-color="white"/>
</linearGradient>
</defs>
</svg>
