<svg width="24" height="24" viewBox="0 0 24 24" fill="currentColor" xmlns="http://www.w3.org/2000/svg">
<path fill-rule="evenodd" clip-rule="evenodd" d="M11.5921 0.128596L5.7485 3.48515L5.71585 3.50361C5.1488 3.83612 4.7683 4.44969 4.7683 5.15186V16.9739L7.9197 15.1639L7.90139 15.1228L7.9004 15.1199L7.88036 15.0724L7.86156 15.0256L7.85884 15.0187L7.84004 14.9707L7.82198 14.9225L7.82148 14.9205L7.82099 14.92L7.80317 14.8708L7.78585 14.8204L7.78536 14.8189L7.76854 14.7689L7.75196 14.717L7.75171 14.716L7.75122 14.715L7.74677 14.7005L7.74231 14.6865C7.73514 14.6624 7.72796 14.6375 7.72104 14.6129L7.72054 14.6121L7.70619 14.5602L7.69209 14.5073L7.6916 14.5056V14.5048L7.68417 14.4751L7.6765 14.4455C7.66413 14.3953 7.653 14.3446 7.64236 14.2937L7.64211 14.2929L7.63148 14.239L7.62183 14.1871V14.1856L7.62133 14.1837V14.1824L7.61168 14.129L7.60327 14.0756C7.59189 14.0013 7.58224 13.9274 7.57507 13.8543L7.57482 13.8521L7.56963 13.799L7.56493 13.7424L7.56097 13.686L7.558 13.6323L7.55775 13.6304V13.6296L7.55503 13.5728L7.5533 13.5177V13.5164L7.55231 13.4588L7.55181 13.4022L7.55231 13.3473L7.5533 13.2927L7.55453 13.2558L7.55503 13.2452L7.55726 13.1832L7.55948 13.1453L7.56022 13.1369L7.56072 13.1305L7.56418 13.0751L7.57334 12.9673L7.57878 12.9166L7.58546 12.8588L7.59164 12.8113L7.59981 12.7527L7.60748 12.7037L7.61713 12.6457L7.62554 12.5996L7.63667 12.5408L7.64607 12.4936C7.65152 12.467 7.65523 12.4505 7.65894 12.4345L7.66859 12.3924L7.68343 12.3321L7.69481 12.2873L7.70817 12.2381L7.71238 12.2223L7.72178 12.1884L7.73118 12.1564L7.74132 12.1236L7.75542 12.0774L7.77002 12.0314L7.78487 11.9866L7.79105 11.9691C7.79996 11.9435 7.80886 11.9181 7.8195 11.8888L7.8336 11.8517L7.83385 11.8507L7.83632 11.8441C7.84177 11.83 7.84746 11.8145 7.85686 11.7906L7.87591 11.7436L7.89422 11.6988L7.92118 11.6368L7.93702 11.6009L7.95904 11.5527L7.97932 11.5091L8.00332 11.4599L8.02633 11.4143L8.05057 11.3671L8.07235 11.3257L8.0862 11.3004L8.09956 11.2755L8.12232 11.2354L8.1243 11.2317C8.13172 11.2187 8.1389 11.2056 8.15077 11.1859L8.17329 11.1478L8.17353 11.147L8.17774 11.1399L8.20273 11.0991L8.22598 11.0619L8.25963 11.0087L8.26804 10.9964L8.29624 10.9536L8.32519 10.9113C8.37442 10.8392 8.42588 10.769 8.47883 10.7011L8.5147 10.6551L8.5387 10.626L8.55527 10.6053L8.57754 10.5783L8.60055 10.5512L8.62183 10.5263L8.64162 10.5035L8.66215 10.4806L8.69011 10.4493L8.71163 10.4257L8.73316 10.4023L8.75715 10.3767L8.78165 10.3509L8.80639 10.3253L8.82346 10.308L8.85191 10.2792L8.88061 10.2509L8.89149 10.2404L8.92093 10.212L8.95087 10.184L8.96646 10.1695L8.99664 10.1414L9.02781 10.1134L9.03301 10.1089L9.06715 10.0784L9.10253 10.0481L9.10624 10.0449L9.10698 10.0444C9.12925 10.0252 9.15077 10.0073 9.16957 9.99202C9.18813 9.97676 9.2094 9.95978 9.23315 9.94083C9.34325 9.85395 9.45681 9.77223 9.57457 9.69643L9.57927 9.69298L9.61861 9.66813L9.6577 9.64351L9.66314 9.64032L9.70173 9.61693L9.73983 9.59404L9.75146 9.5874L9.7621 9.58125L9.77299 9.57509C9.79204 9.56402 9.81009 9.55368 9.82618 9.54482L9.83879 9.53793L9.87541 9.51775L9.91277 9.49781L9.92984 9.48895L9.96843 9.46902L10.0065 9.44957L10.0127 9.44662L10.056 9.42545L10.0988 9.40478L10.1003 9.40429C10.1379 9.38657 10.176 9.36909 10.2143 9.3526C10.251 9.33661 10.2898 9.32036 10.3306 9.30412C10.5308 9.22364 10.7379 9.15694 10.9506 9.10624L10.9543 9.10526L11.0013 9.09418L11.0478 9.08384L11.0558 9.08212L11.1035 9.07228L11.1522 9.06292L11.155 9.06243L11.2017 9.05357L11.2495 9.04545L11.2618 9.04323L11.3079 9.03585L11.3546 9.0292L11.3606 9.02797L11.4088 9.02157L11.4561 9.01542L11.46 9.01493L11.5038 9.00927L11.5036 8.96546V4.22671C11.5036 4.14499 11.5204 4.07977 11.5478 4.0308C11.5716 3.98871 11.6035 3.95745 11.6409 3.93727C11.6787 3.91684 11.7223 3.90651 11.768 3.90651C11.8279 3.90651 11.8915 3.92398 11.9514 3.95696L19.2287 8.1417V5.15186C19.2287 4.4711 18.8704 3.87303 18.3311 3.53438L12.4152 0.136964C12.2596 0.0483612 12.1305 0.00209101 12.0006 0.00012207C11.9976 0.00012207 11.9947 0.00012207 11.9917 0.00012207C11.8645 0.00012207 11.7396 0.0427005 11.5921 0.128596ZM12.4974 8.99376L12.5424 8.99869L12.5456 8.99918L12.5966 9.00582L12.647 9.01271L12.6542 9.01419L12.7054 9.02182L12.7566 9.03019L12.7584 9.03068L12.8111 9.04003L12.8635 9.05012L12.865 9.05037L12.917 9.0612L12.9702 9.07252L12.9724 9.07326L12.9872 9.0767L13.0016 9.0799C13.0266 9.08557 13.0516 9.09196 13.0765 9.09812H13.0773L13.13 9.11165L13.1829 9.12593L13.1847 9.12642L13.1851 9.12691L13.2151 9.13503L13.2443 9.1434C13.294 9.15817 13.344 9.17368 13.3935 9.18992L13.3949 9.19041L13.4467 9.20789L13.4969 9.22561L13.4981 9.2261L13.5001 9.22708L13.5011 9.22733L13.5523 9.24603L13.603 9.26523L13.6035 9.26548C13.674 9.2928 13.7425 9.32159 13.8096 9.35137L13.8118 9.35211L13.8608 9.37475L13.9123 9.39887L13.9632 9.42373L14.0115 9.44785L14.0134 9.44859L14.0142 9.44908L14.0649 9.47517L14.1136 9.5015L14.1146 9.502L14.1656 9.52981L14.2151 9.55762L14.2623 9.58543L14.3096 9.61373L14.3502 9.63884L14.4029 9.67231L14.435 9.69298L14.4417 9.69741L14.4466 9.70111L14.4533 9.70529L14.4934 9.73187L14.5345 9.75993L14.5827 9.79365L14.6243 9.82367L14.6713 9.85862L14.7094 9.88742L14.7564 9.92409L14.7952 9.9551L14.841 9.99226L14.8769 10.0225L14.9224 10.0614L14.9588 10.0934C14.9791 10.1114 14.9917 10.1227 15.0038 10.134L15.0357 10.1631L15.0807 10.2064L15.1141 10.2384L15.15 10.2743L15.1869 10.311L15.2101 10.3351L15.2331 10.3602L15.2668 10.3954L15.2992 10.4311L15.3309 10.4663L15.343 10.4806C15.3608 10.501 15.3786 10.5212 15.3987 10.545L15.4239 10.5758L15.4246 10.5763L15.4291 10.582C15.439 10.5938 15.4491 10.6063 15.4654 10.6263L15.4969 10.6661L15.5266 10.7045L15.5612 10.7508L15.5671 10.7587L15.5906 10.7902L15.6216 10.8332L15.6493 10.8726L15.6799 10.9177L15.7084 10.9605L15.7373 11.0048L15.7623 11.0444L15.7779 11.069L15.7925 11.0929L15.816 11.1325L15.8182 11.1362C15.8259 11.149 15.8336 11.1618 15.845 11.1818L15.867 11.2204L15.8672 11.2209L15.8714 11.228L15.8947 11.2699L15.9152 11.3087L15.9301 11.3363L15.9449 11.3644L15.9511 11.3772L15.9513 11.3777L15.9518 11.3779L15.9744 11.4232L15.9969 11.4695C16.035 11.5482 16.0703 11.6275 16.103 11.707L16.1114 11.7271L16.125 11.7611L16.1386 11.7958L16.1604 11.8534L16.1725 11.8869L16.1834 11.9174L16.1936 11.9459L16.2034 11.9752L16.2166 12.0149L16.2265 12.0454L16.2361 12.0757L16.2564 12.1426L16.2663 12.1771L16.273 12.2002L16.294 12.278L16.2977 12.2927L16.3079 12.3326L16.317 12.372L16.322 12.3924L16.3314 12.4328L16.34 12.4739L16.3413 12.4805L16.3507 12.5253L16.3596 12.5706L16.3605 12.5755V12.5765C16.366 12.6053 16.3709 12.6329 16.3749 12.6565C16.3789 12.6801 16.3833 12.7069 16.3875 12.737C16.4081 12.875 16.4224 13.0141 16.4301 13.1532L16.4303 13.1591L16.4325 13.2056L16.434 13.2514L16.4343 13.2578L16.4353 13.3028L16.436 13.3469V13.3848C16.4363 13.4069 16.436 13.4276 16.4358 13.4458L16.4348 13.5017L16.4333 13.544L16.4328 13.5629L16.4283 13.6488L16.4281 13.6555L16.4249 13.7037L16.4214 13.7505V13.7522C16.4177 13.7936 16.4137 13.8349 16.409 13.8765C16.4046 13.9161 16.3991 13.9575 16.3932 14.0008C16.363 14.2134 16.3175 14.4251 16.2556 14.6338L16.2544 14.6375L16.2403 14.6833L16.2262 14.7288L16.2237 14.7364L16.2084 14.7825L16.1923 14.8292L16.1916 14.8317L16.1757 14.8762L16.1587 14.9218L16.1545 14.9333L16.1379 14.9769L16.1206 15.0205L16.1186 15.0264L16.1 15.0707L16.0817 15.115L16.0802 15.1184L16.0632 15.159L16.1015 15.1809L20.2269 17.5501C20.2982 17.5909 20.3462 17.6377 20.3754 17.6864C20.4001 17.7275 20.411 17.7708 20.41 17.8132C20.4093 17.8557 20.3959 17.8983 20.3732 17.9379C20.343 17.9896 20.2965 18.0356 20.2378 18.0708L13.0318 22.2044L12.9558 22.2477L13.0318 22.2915L15.5587 23.7426C16.1517 24.0835 16.8511 24.0737 17.4157 23.7783L23.3311 20.3804C23.4862 20.2906 23.5911 20.2025 23.6577 20.0915C23.7245 19.9802 23.7514 19.8493 23.7499 19.6753V12.9253C23.744 12.2706 23.4001 11.6356 22.789 11.2846L12.4974 5.37361V8.99376ZM1.20967 11.2856C0.616897 11.6262 0.275482 12.2339 0.25 12.8677L0.250742 19.663C0.251484 19.8414 0.27573 19.976 0.338817 20.0888C0.402152 20.202 0.502845 20.2903 0.654997 20.3765L6.49887 23.7328L6.53103 23.7515C7.10402 24.0737 7.8289 24.0948 8.43998 23.7439L18.6559 17.8764L18.7314 17.8326L15.6193 16.0453L15.58 16.0229L15.5533 16.0591L15.553 16.0596L15.5513 16.0615L15.5199 16.1024L15.4887 16.142L15.484 16.1477L15.4516 16.188L15.4187 16.2277L15.4175 16.2291L15.4172 16.2296L15.3831 16.2697L15.3479 16.3099L15.3469 16.3111L15.3118 16.3507L15.275 16.3908L15.274 16.3913L15.2732 16.3923L15.2631 16.4034L15.2529 16.4142C15.2356 16.4327 15.2178 16.4509 15.1997 16.4696L15.199 16.4701L15.1614 16.5085L15.1221 16.5471L15.1208 16.5484L15.1203 16.5486L15.0983 16.5703L15.0763 16.5914C15.0387 16.6271 15.0003 16.6621 14.961 16.6968L14.9605 16.6973L14.9189 16.7334L14.8784 16.7679L14.8774 16.7686L14.8756 16.7699L14.8749 16.7706L14.8328 16.8055L14.7908 16.8398C14.7319 16.8868 14.672 16.9316 14.6124 16.9744L14.6109 16.9756L14.5666 17.0069L14.5199 17.0391L14.4726 17.0709L14.4276 17.1001L14.4261 17.1014L14.4254 17.1016L14.3771 17.1324L14.3299 17.1614L14.3289 17.1619L14.2794 17.192L14.2304 17.2205L14.1824 17.2478L14.1342 17.2742L14.1015 17.2914L14.0924 17.2963L14.0367 17.3253L14.0026 17.3423L13.9951 17.3458L13.9897 17.3485L13.9825 17.3522L13.9395 17.3733L13.841 17.4194L13.7943 17.4403L13.6963 17.4816L13.6406 17.5038L13.5944 17.5217L13.5389 17.5427L13.4949 17.5584L13.438 17.5781L13.3922 17.5936C13.3662 17.6022 13.3502 17.6069 13.3341 17.6121L13.293 17.6249L13.2329 17.6423L13.1884 17.6547L13.1389 17.6679L13.1231 17.6721L13.0887 17.681L13.056 17.6889L13.0226 17.6965L12.9751 17.7078L12.9276 17.7179L12.8813 17.7275L12.863 17.7309C12.8366 17.7364 12.8098 17.7413 12.7789 17.7465L12.7396 17.7529L12.7388 17.7531L12.7317 17.7543C12.7166 17.7568 12.7005 17.7597 12.675 17.7634L12.6243 17.7708L12.576 17.7772L12.5186 17.7841L12.5088 17.7851L12.4694 17.7893L12.4165 17.7947L12.3685 17.7989L12.3138 17.8026L12.2623 17.8058L12.2094 17.8085L12.1621 17.8104L12.105 17.8119L12.0587 17.8127L12.0545 17.8124C12.0392 17.8127 12.0243 17.8129 12.0016 17.8129L11.957 17.8124H11.9479L11.8999 17.8114L11.8561 17.81L11.7925 17.8075L11.7787 17.8063H11.7779L11.7774 17.8065L11.7265 17.8036L11.675 17.7996C11.5877 17.7932 11.5008 17.7841 11.4152 17.7725L11.3937 17.7696L11.3573 17.7644L11.3202 17.7585L11.2938 17.7546L11.2591 17.7487L11.224 17.7425L11.1918 17.7366L11.1621 17.7307L11.1317 17.7248L11.0906 17.7164L11.0278 17.7026L10.9934 17.695L10.9593 17.6866L10.9244 17.678L10.9009 17.6721L10.8616 17.6618L10.8227 17.6512L10.8079 17.6473L10.7683 17.6359L10.7292 17.6246L10.7089 17.6182L10.6691 17.6062L10.6292 17.5934L10.6228 17.5914L10.579 17.5766L10.5352 17.5616L10.5303 17.5601L10.5295 17.5599C10.5016 17.5501 10.4754 17.5405 10.4528 17.5318C10.4301 17.5237 10.4048 17.5139 10.3764 17.5026C10.2458 17.4516 10.1179 17.3943 9.99292 17.331L9.98748 17.3283L9.94641 17.3071L9.90534 17.2857L9.89965 17.2825L9.86007 17.2611L9.82123 17.2395L9.8096 17.2326L9.79871 17.2267L9.78832 17.2205C9.76878 17.2097 9.75072 17.1991 9.73513 17.19L9.72276 17.1826L9.68689 17.1609L9.65102 17.1388L9.59807 17.1053L9.56195 17.0819L9.55651 17.0782L9.51618 17.0514L9.47684 17.0248L9.47561 17.0241C9.44122 17.0005 9.40732 16.9761 9.37368 16.9515C9.34152 16.9279 9.30787 16.9025 9.27323 16.8757C9.10302 16.7435 8.94171 16.5983 8.79105 16.4406L8.78857 16.4376L8.75542 16.4027L8.72301 16.3677L8.71732 16.3618L8.68516 16.3254L8.65275 16.2885L8.65077 16.2862L8.6196 16.2503L8.58867 16.2134L8.58076 16.2035L8.55132 16.1676L8.52187 16.1307L8.51816 16.1263L8.48823 16.0879L8.45928 16.05L8.45706 16.0473L8.43009 16.0123L4.26657 18.4038C4.19556 18.4444 4.13074 18.4627 4.07409 18.4636C4.02584 18.4641 3.98255 18.4521 3.94593 18.4299C3.90957 18.408 3.87914 18.3755 3.85588 18.3359C3.82594 18.2845 3.80912 18.221 3.80788 18.1528L3.81234 9.79069L1.20967 11.2856Z" fill="currentColor"/>
<path fill-rule="evenodd" clip-rule="evenodd" d="M8.5 13.3583C8.5 15.2909 10.0672 16.8583 11.9997 16.8583C13.9328 16.8583 15.5 15.2909 15.5 13.3583C15.5 11.4257 13.9328 9.85834 11.9997 9.85834C10.0672 9.85834 8.5 11.4257 8.5 13.3583Z" fill="currentColor"/>
</svg>
