<?xml version="1.0" encoding="utf-8"?>
<!-- Generator: Adobe Illustrator 27.7.0, SVG Export Plug-In . SVG Version: 6.00 Build 0)  -->
<svg version="1.1" id="Layer_1" xmlns="http://www.w3.org/2000/svg" xmlns:xlink="http://www.w3.org/1999/xlink" x="0px" y="0px"
	 viewBox="0 0 361 156" style="enable-background:new 0 0 361 156;" xml:space="preserve">
<style type="text/css">
	.st0{clip-path:url(#SVGID_00000065067538437381687170000015538801042568407702_);}
	.st1{fill:url(#SVGID_00000006701823728819118270000015176040767398381721_);}
	.st2{opacity:0.5;}
	.st3{clip-path:url(#SVGID_00000132808267654869169330000013681998196892022701_);}
	.st4{clip-path:url(#SVGID_00000018215536807375184050000002438378459195208363_);}
	.st5{fill:none;}
	.st6{fill:url(#SVGID_00000161629574617683621340000017884006783224759223_);}
	.st7{fill:url(#SVGID_00000072266320206477518410000010157937339484120450_);}
	.st8{fill:none;stroke:url(#SVGID_00000011717804455503933530000011082755482654816409_);stroke-width:0.91;}
	.st9{fill:#FF0000;}
	.st10{clip-path:url(#SVGID_00000094612977946755549520000008082248722353780911_);}
	.st11{clip-path:url(#SVGID_00000173128063539046218780000010460465145899650971_);}
	.st12{clip-path:url(#SVGID_00000083773989806586537510000014045329263988465830_);}
	.st13{fill:#070707;}
	.st14{fill:url(#SVGID_00000070809594935953353310000008341892246373766034_);}
	.st15{clip-path:url(#SVGID_00000010312213248997556960000008559763370575339918_);}
	.st16{fill:url(#SVGID_00000096048475540607439550000003719186424082121913_);}
	.st17{fill:none;stroke:url(#SVGID_00000168835214701081988990000014841168627952180406_);stroke-width:0.5072;}
	.st18{fill:#FFFFFF;}
	.st19{clip-path:url(#SVGID_00000000209269418352487410000011110660497712630916_);}
	.st20{clip-path:url(#SVGID_00000008828503548340341410000014624813301892226980_);}
	.st21{fill:url(#SVGID_00000071519313636251059920000014076558235064057268_);}
	.st22{fill:url(#SVGID_00000116210094905468512440000012818618304132557486_);}
	.st23{fill:none;stroke:url(#SVGID_00000079450397708053196250000008669303411450806181_);stroke-width:0.91;}
	.st24{clip-path:url(#SVGID_00000115488767136629704370000010949722562521752471_);}
	.st25{clip-path:url(#SVGID_00000159445383197261737210000010721183429590917299_);}
	.st26{clip-path:url(#SVGID_00000021118394697381725660000017046548899202024093_);}
	.st27{fill:url(#SVGID_00000178175138237680942310000000370030341221888159_);}
	.st28{clip-path:url(#SVGID_00000170259614153818243900000008721001154171141044_);}
	.st29{fill:url(#SVGID_00000109734624341297594900000004108845555418118303_);}
	.st30{fill:none;stroke:url(#SVGID_00000168101431961588400150000013059664011813858731_);stroke-width:0.5072;}
</style>
<g>
	<defs>
		<path id="SVGID_1_" d="M29,0.8h303c16,0,29,13,29,29v96.4c0,16-13,29-29,29H29c-16,0-29-13-29-29V29.8C0,13.8,13,0.8,29,0.8z"/>
	</defs>
	<clipPath id="SVGID_00000178925237610488979670000015718906129245476276_">
		<use xlink:href="#SVGID_1_"  style="overflow:visible;"/>
	</clipPath>
	<g style="clip-path:url(#SVGID_00000178925237610488979670000015718906129245476276_);">
		
			<linearGradient id="SVGID_00000070114896546107610710000013809927057970268545_" gradientUnits="userSpaceOnUse" x1="-0.1377" y1="74.6018" x2="360.0969" y2="75.4049" gradientTransform="matrix(1 0 0 -1 0 158)">
			<stop  offset="0" style="stop-color:#E25656"/>
			<stop  offset="1" style="stop-color:#5F0303"/>
		</linearGradient>
		<path style="fill:url(#SVGID_00000070114896546107610710000013809927057970268545_);" d="M29,0.8h302c16,0,29,13,29,29v106.4
			c0,16-13,29-29,29H29c-16,0-29-13-29-29V29.8C0,13.8,13,0.8,29,0.8z"/>
		<g class="st2">
			<g>
				<g>
					<defs>
						<path id="SVGID_00000150795713023536424920000002549495642474858884_" d="M63.5-6.5l124.7,120c2.2,2.1,2.2,5.5,0.1,7.7
							l-73.1,75.9c-2.1,2.2-5.5,2.2-7.7,0.1l-124.7-120c-2.2-2.1-2.2-5.5-0.1-7.7L55.8-6.3C57.8-8.5,61.3-8.6,63.5-6.5z"/>
					</defs>
					<clipPath id="SVGID_00000036252393002351798000000001244240676453648045_">
						<use xlink:href="#SVGID_00000150795713023536424920000002549495642474858884_"  style="overflow:visible;"/>
					</clipPath>
					<g style="clip-path:url(#SVGID_00000036252393002351798000000001244240676453648045_);">
						<g>
							<defs>
								<polygon id="SVGID_00000049204882258263178260000002748277578840378279_" points="-25.1,-14.3 -24.1,-14.3 -25.1,-13.3 
																	"/>
							</defs>
							<defs>
								<polygon id="SVGID_00000016050963103300618370000006914155687204864186_" points="-27.1,-16.3 -28.1,-16.3 -27.1,-17.3 
																	"/>
							</defs>
							<clipPath id="SVGID_00000032622232189912594640000018330818951494261946_">
								<use xlink:href="#SVGID_00000049204882258263178260000002748277578840378279_"  style="overflow:visible;"/>
							</clipPath>
							
								<clipPath id="SVGID_00000160180261237277564750000017595907779541385382_" style="clip-path:url(#SVGID_00000032622232189912594640000018330818951494261946_);">
								<use xlink:href="#SVGID_00000016050963103300618370000006914155687204864186_"  style="overflow:visible;"/>
							</clipPath>
						</g>
					</g>
				</g>
			</g>
			<g>
				<path shape-rendering="crispEdges" class="st5" d="M63.5-6.5l124.7,120c2.2,2.1,2.2,5.5,0.1,7.7l-73.1,75.9
					c-2.1,2.2-5.5,2.2-7.7,0.1l-124.7-120c-2.2-2.1-2.2-5.5-0.1-7.7L55.8-6.3C57.8-8.5,61.3-8.6,63.5-6.5z"/>
				
					<linearGradient id="SVGID_00000049203936147875700910000002463467664137018775_" gradientUnits="userSpaceOnUse" x1="102.2937" y1="529.1287" x2="335.5597" y2="347.0546" gradientTransform="matrix(0.7204 0.6936 0.6936 -0.7204 -370.4691 298.4711)">
					<stop  offset="0" style="stop-color:#FFFFFF"/>
					<stop  offset="1" style="stop-color:#FFF5F5;stop-opacity:0"/>
				</linearGradient>
				<path shape-rendering="crispEdges" style="fill:url(#SVGID_00000049203936147875700910000002463467664137018775_);" d="
					M63.5-6.5l124.7,120c2.2,2.1,2.2,5.5,0.1,7.7l-73.1,75.9c-2.1,2.2-5.5,2.2-7.7,0.1l-124.7-120c-2.2-2.1-2.2-5.5-0.1-7.7
					L55.8-6.3C57.8-8.5,61.3-8.6,63.5-6.5z"/>
				
					<linearGradient id="SVGID_00000157998856808772268280000014314688318092165259_" gradientUnits="userSpaceOnUse" x1="104.4924" y1="523.8392" x2="301.7165" y2="378.3703" gradientTransform="matrix(0.7204 0.6936 0.6936 -0.7204 -370.4691 298.4711)">
					<stop  offset="0" style="stop-color:#000000;stop-opacity:0"/>
					<stop  offset="0.3365" style="stop-color:#FFFFFF;stop-opacity:0.9"/>
					<stop  offset="1" style="stop-color:#000000;stop-opacity:0"/>
				</linearGradient>
				<path shape-rendering="crispEdges" style="fill:url(#SVGID_00000157998856808772268280000014314688318092165259_);" d="
					M63.5-6.5l124.7,120c2.2,2.1,2.2,5.5,0.1,7.7l-73.1,75.9c-2.1,2.2-5.5,2.2-7.7,0.1l-124.7-120c-2.2-2.1-2.2-5.5-0.1-7.7
					L55.8-6.3C57.8-8.5,61.3-8.6,63.5-6.5z"/>
				
					<linearGradient id="SVGID_00000052102361623619340350000010869306314639963312_" gradientUnits="userSpaceOnUse" x1="141.5907" y1="526.547" x2="325.6875" y2="267.3732" gradientTransform="matrix(0.7204 0.6936 0.6936 -0.7204 -370.0195 298.6425)">
					<stop  offset="0" style="stop-color:#FFFFFF"/>
					<stop  offset="0.5708" style="stop-color:#646464;stop-opacity:0"/>
				</linearGradient>
				
					<path shape-rendering="crispEdges" style="fill:none;stroke:url(#SVGID_00000052102361623619340350000010869306314639963312_);stroke-width:0.91;" d="
					M63.2-6.1l124.7,120c2,1.9,2.1,5.1,0.1,7.1l-73.1,75.9c-1.9,2-5.1,2.1-7.1,0.1L-16.9,77c-2-1.9-2.1-5.1-0.1-7.1L56.1-6
					C58-8,61.2-8,63.2-6.1z"/>
			</g>
			
				<rect x="27.3" y="3.5" transform="matrix(0.6936 -0.7204 0.7204 0.6936 -42.5659 90.8377)" class="st5" width="116.3" height="184"/>
			<path class="st9" d="M99.1,66.4c0.1,0,0.2,0.1,0.3,0.1l0,0c0.1,0.1,0.1,0.2,0.2,0.3l1.4,5c0.1,0.5,0,1-0.4,1.4l-1.6,1.6l-1.8-6.1
				c0,0,0-0.1-0.1-0.1c0,0-0.1,0-0.1-0.1c0,0-0.1,0-0.1,0c0,0-0.1,0-0.1,0.1l-2.5,2.6l0,0l0,0l0,0l0,0l0,0l0,0l0,0l0,0l0,0l0,0l0,0
				l0,0l0,0l0,0l0,0l0,0l0,0l0,0c-0.1-0.1-0.3-0.2-0.4-0.2c0,0-0.1,0-0.1,0c0,0-0.1,0-0.1,0l0,0l0,0l0,0l0,0l0,0l0,0l0,0l0,0l0,0
				l0,0c0,0,0,0,0,0l0,0l0,0l0,0l0,0l0,0l0,0l0,0l0,0l0,0c-0.1,0-0.2,0-0.3,0c0,0,0,0-0.1,0c0,0,0,0-0.1,0l0,0l0,0l0,0l0,0l0,0l0,0
				l0,0l0,0l0,0h0l0,0l0,0l0,0l0,0l0,0l0,0l0,0l0,0l0,0l0,0l0,0l0,0l0,0l0,0l0,0l0,0l0,0l0,0l0,0c-0.1,0-0.1,0-0.2,0l0,0l0,0l0,0
				l0,0l0,0l0,0l0,0l0,0l0,0c0,0,0,0,0,0c0,0,0,0,0,0l0,0l0,0l0,0l0,0l0,0l0,0l0,0l0,0l0,0l0,0l0,0l0,0l0,0l0,0c0,0,0,0,0,0
				c0,0,0,0,0,0l0,0l0,0l0,0c0,0,0,0-0.1,0l0,0l0,0l0,0l0,0l0,0l0,0l0,0l0,0l0,0l0,0l0,0l0,0c0,0,0,0,0,0l0,0l0,0l0,0l0,0l0,0l0,0
				l0,0l0,0l0,0l0,0l0,0l0,0l0,0l0,0l0,0l0,0l0,0l0,0l0,0l0,0l0,0l0,0l0,0l0,0l0,0l0,0l0,0l0,0l0,0l0,0l0,0l0,0c0,0-0.1,0.1-0.1,0.1
				l0,0l0,0l0,0l0,0l0,0l0,0l0,0l0,0c0,0,0,0.1-0.1,0.1l0,0l0,0l0,0l0,0l0,0l0,0l0,0c0,0,0,0,0,0c0,0,0,0,0,0l0,0l0,0l0,0l0,0l0,0
				l0,0l0,0l0,0l0,0l0,0l0,0l0,0l0,0l0,0l0,0l0,0l0,0l0,0L86.5,72l6.2-6.5c0.4-0.4,0.9-0.5,1.4-0.4l0,0L99.1,66.4z"/>
			<path class="st9" d="M96.9,69.8l2.5,8.6c0.1,0.5,0,1-0.3,1.4l-3.6,3.7c-0.1,0.1-0.2,0.2-0.3,0.2c-0.1,0-0.2,0-0.3,0l-5-1.3
				c-0.5-0.1-0.9-0.5-1-1l-0.6-2.1l0-0.1l0.1,0l6.1,1.5c0.1,0,0.1,0,0.1,0c0,0,0.1,0,0.1,0c0,0,0-0.1,0-0.1c0,0,0-0.1,0-0.2l-1-3.5
				l0,0l0,0l0,0l0,0l0,0l0,0l0,0l0,0l0,0l0,0l0,0l0,0l0,0l0,0l0,0l0,0l0,0c0.1-0.1,0.3-0.2,0.4-0.3c0,0,0.1,0,0.1-0.1
				c0,0,0,0,0.1-0.1l0,0l0,0l0,0l0,0l0,0l0,0l0,0l0,0l0,0c0,0,0,0,0,0l0,0l0,0l0,0l0,0l0,0l0,0l0,0c0.1-0.1,0.1-0.2,0.2-0.2
				c0,0,0,0,0-0.1c0,0,0,0,0-0.1l0,0l0,0l0,0l0,0l0,0l0,0l0,0l0,0l0,0l0,0l0,0l0-0.1l0,0l0,0l0,0l0,0l0,0l0,0l0,0l0,0l0,0l0,0l0,0
				l0,0l0,0l0,0c0-0.1,0-0.1,0.1-0.2l0-0.1l0,0l0,0l0,0l0,0l0,0l0,0l0,0l0,0l0,0l0,0c0,0,0,0,0,0l0,0l0,0l0,0l0,0l0,0l0,0l0,0l0,0
				l0,0l0,0l0,0l0,0l0,0l0,0l0,0c0,0,0,0,0,0l0,0l0,0l0,0c0,0,0,0,0-0.1l0,0l0,0l0,0l0,0l0-0.1l0,0l0,0l0,0l0,0l0,0l0,0c0,0,0,0,0,0
				l0,0l0,0l0,0l0,0l0,0l0,0l0,0l0,0l0,0l0,0l0,0l0,0l0,0l0,0l0,0l0,0l0,0l0,0l0,0l0,0l0,0l0,0l0,0l0,0l0,0l0,0l0,0l0,0l0,0l0,0l0,0
				l0,0c0-0.1,0-0.1-0.1-0.2l0,0l0,0l0,0l0,0l0,0l0,0l0,0l0,0l0,0c0,0,0-0.1-0.1-0.1l0,0l0,0v0l0,0l0,0l0,0l0,0c0,0,0,0,0,0l0,0l0,0
				l0,0l0,0l0,0l0,0l0,0l0,0l0,0l0,0l0,0l0,0l0,0l0,0l0,0l0,0l0,0L96.9,69.8z"/>
			<path class="st9" d="M89.8,67.6l-4.4,4.6c0,0-0.1,0.1-0.1,0.1c0,0,0,0.1,0,0.1c0,0,0,0.1,0.1,0.1c0,0,0.1,0.1,0.1,0.1l3.5,0.9
				l0,0l0,0l0,0l0,0l0,0l0,0l0,0l0,0l0,0l0,0l0,0l0,0l0,0l0,0l0,0l0,0l0,0c0,0.2,0,0.3,0,0.5c0,0,0,0.1,0,0.1c0,0,0,0.1,0,0.1l0,0
				l0,0l0,0l0,0l0,0l0,0l0,0l0,0l0,0l0,0c0,0,0,0,0,0l0,0l0,0l0,0l0,0l0,0l0,0l0,0l0,0l0,0c0,0.1,0.1,0.2,0.1,0.3c0,0,0,0,0,0.1
				c0,0,0,0,0,0.1l0,0l0,0l0,0l0,0l0,0l0,0l0,0l0,0l0,0l0,0l0,0l0,0l0,0l0,0l0,0l0,0l0,0l0,0l0,0l0,0l0,0l0,0l0,0l0,0l0,0l0,0l0,0
				l0,0c0,0.1,0.1,0.1,0.1,0.2l0,0l0,0l0,0l0,0l0,0l0,0l0,0l0,0l0,0l0,0l0,0c0,0,0,0,0,0l0,0l0,0l0,0l0,0l0,0l0,0l0,0l0,0l0,0l0,0
				l0,0l0,0l0.1,0c0,0,0,0,0,0c0,0,0,0,0,0l0,0l0,0l0,0c0,0,0,0,0.1,0l0,0l0,0l0,0l0,0l0,0l0,0l0,0l0,0l0,0l0,0l0,0l0,0c0,0,0,0,0,0
				l0,0l0,0l0,0l0,0l0,0l0,0l0,0l0,0l0,0l0,0l0,0l0,0l0,0l0,0l0,0l0,0l0,0l0,0l0,0l0,0l0,0l0,0l0,0l0,0l0,0l0,0l0,0h0l0,0l0,0l0,0
				l0,0l0,0c0.1,0,0.1,0,0.2,0l0,0l0,0h0l0,0h0l0,0l0,0l0,0l0,0c0,0,0.1,0,0.1,0h0l0,0l0,0l0,0l0,0l0,0l0,0c0,0,0,0,0.1,0l0,0l0,0
				l0,0h0l0,0l0,0l0,0l0,0l0,0l0,0l0,0l0,0l0,0l0,0l0,0l0,0l0,0l0,0l0,0l0.8,2.6l-0.1,0L85,77.7c-0.5-0.1-0.9-0.5-1-1l0,0l-1.4-4.9
				c0-0.1,0-0.2,0-0.3c0-0.1,0.1-0.2,0.2-0.3l3.6-3.7c0.3-0.3,0.9-0.5,1.4-0.4L89.8,67.6z"/>
			<path class="st9" d="M90.5,75.8c-1.1-1-1.1-2.7-0.1-3.8c1-1.1,2.7-1.1,3.8-0.1c1.1,1,1.1,2.7,0.1,3.8
				C93.3,76.8,91.6,76.8,90.5,75.8z"/>
			<path d="M66.8,71.4l-0.6-0.5l1.9-2l0,0L65.4,70L65,69.7l1.1-2.7l0,0l-1.9,2l-0.6-0.5l2.8-3l0.7,0.7L66,69l0,0l2.9-1.3l0.7,0.7
				L66.8,71.4z M71.1,72.1c-0.3-0.3-0.6-0.2-0.9,0l0.9,0.9C71.4,72.7,71.4,72.4,71.1,72.1z M70.5,73.7l0.5,0.5
				c-0.5,0.4-1.2,0.3-1.7-0.2c-0.7-0.7-0.7-1.5,0-2.2c0.7-0.7,1.5-0.8,2.2-0.1c0.6,0.6,0.6,1.4,0,2.1l-0.2,0.2l-1.5-1.5l0,0
				c-0.3,0.3-0.3,0.7,0,1C70,73.7,70.3,73.8,70.5,73.7z M71.9,76.3l2.8-3l0.6,0.6l-2.8,3L71.9,76.3z M74.1,78.4l2.8-3l0.6,0.6
				l-2.8,3L74.1,78.4z M77.5,81c0.3,0.3,0.6,0.3,0.9,0l0.2-0.2L78,80.4c-0.2-0.2-0.5-0.2-0.6-0.1C77.3,80.5,77.3,80.8,77.5,81z
				 M76.9,81.2c-0.4-0.4-0.5-1-0.1-1.4c0.4-0.4,0.9-0.3,1.5,0.2l0.6,0.5l0.1-0.1c0.2-0.2,0.2-0.5-0.1-0.7c-0.2-0.2-0.5-0.2-0.7-0.1
				L77.8,79c0.4-0.4,1.1-0.3,1.7,0.2c0.6,0.5,0.7,1.2,0.2,1.6l-1.5,1.5l-0.6-0.6l0.3-0.3l0,0C77.6,81.6,77.2,81.5,76.9,81.2z
				 M82.5,81.3l0.6,0.6l-0.5,0.5l0.4,0.4l-0.4,0.5l-0.4-0.4l-1,1.1c-0.2,0.2-0.2,0.3,0,0.5c0.1,0.1,0.1,0.1,0.2,0.1L80.9,85
				c-0.1,0-0.2-0.1-0.3-0.2c-0.5-0.5-0.6-0.9-0.1-1.3l1.1-1.2L81.3,82l0.4-0.5l0.3,0.3L82.5,81.3z M87.3,85.5l1.1,1.1
				c0.9,0.9,0.9,1.9,0,2.8c-0.9,0.9-2,1-2.8,0.1l-1.1-1.1L87.3,85.5z M87.5,86.6l-1.9,1.9l0.4,0.4c0.6,0.5,1.2,0.5,1.8-0.2
				c0.6-0.6,0.6-1.3,0.1-1.8L87.5,86.6z M91.3,91.5c-0.3-0.3-0.6-0.2-0.9,0l0.9,0.9C91.5,92.1,91.5,91.7,91.3,91.5z M90.6,93.1
				l0.5,0.5c-0.5,0.4-1.2,0.3-1.7-0.2c-0.7-0.7-0.7-1.5,0-2.2c0.7-0.7,1.5-0.8,2.2-0.1c0.6,0.6,0.6,1.4,0,2.1l-0.2,0.2L90,91.9l0,0
				c-0.3,0.3-0.3,0.7,0,1C90.2,93.1,90.4,93.2,90.6,93.1z M93.3,97c-0.3-0.3-0.4-0.7-0.3-1.1l0,0l-0.4,0.4l-0.6-0.6l2.8-3l0.6,0.6
				l-1.1,1.1l0,0c0.4-0.1,0.8-0.1,1.1,0.2c0.6,0.5,0.5,1.3-0.2,2C94.6,97.4,93.9,97.5,93.3,97z M94.8,95c-0.3-0.3-0.7-0.2-1.1,0.2
				c-0.4,0.4-0.4,0.8-0.1,1.1c0.3,0.3,0.7,0.2,1.1-0.2C95.1,95.7,95.1,95.3,94.8,95z M95.7,99.3l2.1-2.2l0.6,0.6l-2.1,2.2L95.7,99.3
				z M98.4,97.1c-0.2-0.2-0.2-0.4,0-0.6c0.2-0.2,0.4-0.2,0.6,0c0.2,0.2,0.2,0.4,0,0.6C98.8,97.3,98.6,97.3,98.4,97.1z M100.7,98.8
				l0.6,0.6l-0.5,0.5l0.4,0.4l-0.4,0.5l-0.4-0.4l-1,1.1c-0.2,0.2-0.2,0.3,0,0.5c0.1,0.1,0.1,0.1,0.2,0.1l-0.4,0.4
				c-0.1,0-0.2-0.1-0.3-0.2c-0.5-0.5-0.6-0.9-0.1-1.3l1.1-1.2l-0.3-0.3l0.4-0.5l0.3,0.3L100.7,98.8z"/>
			<g>
				<defs>
					
						<rect id="SVGID_00000031188346498947530340000012035355771401747895_" x="-36.1" y="6.4" transform="matrix(0.6936 -0.7204 0.7204 0.6936 -55.5759 33.6384)" width="95.7" height="151.5"/>
				</defs>
				<clipPath id="SVGID_00000052803688695420413390000001989531088288001426_">
					<use xlink:href="#SVGID_00000031188346498947530340000012035355771401747895_"  style="overflow:visible;"/>
				</clipPath>
				<g style="clip-path:url(#SVGID_00000052803688695420413390000001989531088288001426_);">
					<g>
						<g>
							<defs>
								<path id="SVGID_00000003101249569677300760000011945870662404186529_" d="M-67.2,55l48.8-50.7c4.9-5,12.9-5.2,17.9-0.3
									l90.8,87.5c5,4.9,5.2,12.9,0.3,17.9L41.9,160c-4.9,5-12.9,5.2-17.9,0.3l-90.8-87.5C-71.9,68-72.1,60-67.2,55z"/>
							</defs>
							<clipPath id="SVGID_00000046332622047843661790000007566303172296405937_">
								<use xlink:href="#SVGID_00000003101249569677300760000011945870662404186529_"  style="overflow:visible;"/>
							</clipPath>
							<g style="clip-path:url(#SVGID_00000046332622047843661790000007566303172296405937_);">
								<g>
									<defs>
										<polygon id="SVGID_00000036954654196622015020000010436001512428177552_" points="-112,-40.9 -111,-40.9 -112,-39.9 
																					"/>
									</defs>
									<defs>
										<polygon id="SVGID_00000012432582301863020470000013472606321501951659_" points="-114,-42.9 -115,-42.9 -114,-43.9 
																					"/>
									</defs>
									<clipPath id="SVGID_00000116950041066868704770000011782339627002451115_">
										<use xlink:href="#SVGID_00000036954654196622015020000010436001512428177552_"  style="overflow:visible;"/>
									</clipPath>
									
										<clipPath id="SVGID_00000005978665130886473010000007962270188916805050_" style="clip-path:url(#SVGID_00000116950041066868704770000011782339627002451115_);">
										<use xlink:href="#SVGID_00000012432582301863020470000013472606321501951659_"  style="overflow:visible;"/>
									</clipPath>
								</g>
							</g>
						</g>
					</g>
					<g>
						<path class="st13" d="M-67.2,55l48.8-50.7c4.9-5,12.9-5.2,17.9-0.3l90.8,87.5c5,4.9,5.2,12.9,0.3,17.9L41.9,160
							c-4.9,5-12.9,5.2-17.9,0.3l-90.8-87.5C-71.9,68-72.1,60-67.2,55z"/>
						
							<radialGradient id="SVGID_00000035521322659152055460000006330552648089431943_" cx="-416.2337" cy="377.9104" r="1" gradientTransform="matrix(161.3562 39.7739 25.1046 -101.8455 57595.0039 55108.4727)" gradientUnits="userSpaceOnUse">
							<stop  offset="0" style="stop-color:#FFFFFF;stop-opacity:0.3"/>
							<stop  offset="1" style="stop-color:#FFFFFF;stop-opacity:0"/>
						</radialGradient>
						<path style="fill:url(#SVGID_00000035521322659152055460000006330552648089431943_);" d="M-67.2,55l48.8-50.7
							c4.9-5,12.9-5.2,17.9-0.3l90.8,87.5c5,4.9,5.2,12.9,0.3,17.9L41.9,160c-4.9,5-12.9,5.2-17.9,0.3l-90.8-87.5
							C-71.9,68-72.1,60-67.2,55z"/>
						<path class="st5" d="M-67.2,55l48.8-50.7c4.9-5,12.9-5.2,17.9-0.3l90.8,87.5c5,4.9,5.2,12.9,0.3,17.9L41.9,160
							c-4.9,5-12.9,5.2-17.9,0.3l-90.8-87.5C-71.9,68-72.1,60-67.2,55z"/>
					</g>
					<g>
						<g>
							<defs>
								<path id="SVGID_00000090992216756484439880000016363263316794809004_" d="M-7.3,16.1l8.3,8c1.1,1,1.1,2.7,0.1,3.8l-5.6,5.8
									c-1,1.1-2.7,1.1-3.8,0.1l-8.3-8c-1.1-1-1.1-2.7-0.1-3.8l5.6-5.8C-10.1,15.1-8.4,15.1-7.3,16.1z"/>
							</defs>
							<clipPath id="SVGID_00000078752980086606089720000002485094544991191171_">
								<use xlink:href="#SVGID_00000090992216756484439880000016363263316794809004_"  style="overflow:visible;"/>
							</clipPath>
							<g style="clip-path:url(#SVGID_00000078752980086606089720000002485094544991191171_);">
								
									<linearGradient id="SVGID_00000058548604572360403290000011511635946700708763_" gradientUnits="userSpaceOnUse" x1="26.5366" y1="495.6452" x2="42.9668" y2="483.9161" gradientTransform="matrix(0.7204 0.6936 0.6936 -0.7204 -372.7015 353.0319)">
									<stop  offset="0" style="stop-color:#ABABAB"/>
									<stop  offset="0.3125" style="stop-color:#FFFFFF"/>
									<stop  offset="0.6302" style="stop-color:#BDBDBD"/>
									<stop  offset="1" style="stop-color:#5E5E5E"/>
								</linearGradient>
								<path style="fill:url(#SVGID_00000058548604572360403290000011511635946700708763_);" d="M-7.3,16.1l8.3,8
									c1.1,1,1.1,2.7,0.1,3.8l-5.6,5.8c-1,1.1-2.7,1.1-3.8,0.1l-8.3-8c-1.1-1-1.1-2.7-0.1-3.8l5.6-5.8
									C-10.1,15.1-8.4,15.1-7.3,16.1z"/>
								
									<linearGradient id="SVGID_00000089551096911528554580000006679125611843905665_" gradientUnits="userSpaceOnUse" x1="-9.8499" y1="142.16" x2="-6.5415" y2="124.2234" gradientTransform="matrix(1 0 0 -1 0 158)">
									<stop  offset="0" style="stop-color:#7D7D7D"/>
									<stop  offset="0.4948" style="stop-color:#FFFFFF"/>
									<stop  offset="1" style="stop-color:#1C1C1C"/>
								</linearGradient>
								<path style="fill:none;stroke:url(#SVGID_00000089551096911528554580000006679125611843905665_);stroke-width:0.5072;" d="
									M-12.4,17.8l4.1,3.9c1-0.5,3.3-1.5,4.3-0.9c0.2,0.4,0.6,1.5,0.3,2.6 M-15.1,20.6l4.1,3.9c-1.3,1.4-1,3.5-0.8,4.4
									c1.3,0.6,3.6-0.2,4.6-0.7l4,3.9 M-1.1,30l-4-3.9c0.1-0.5,0.6-1.5,1.5-1.5"/>
							</g>
						</g>
					</g>
					<path class="st9" d="M23,70.3c0.2,0,0.3,0.1,0.4,0.2l0,0c0.1,0.1,0.2,0.2,0.2,0.4l2,6.9c0.2,0.7,0,1.4-0.5,1.9L22.9,82
						l-2.5-8.5c0-0.1-0.1-0.1-0.1-0.2c0,0-0.1-0.1-0.1-0.1c0,0-0.1,0-0.1,0c-0.1,0-0.1,0.1-0.2,0.1L16.5,77l0,0l0,0l0,0l0,0l0,0l0,0
						l0,0l0,0l0,0l0,0l0,0l0,0l0,0l0,0l0,0l0,0l0,0l0,0c-0.2-0.1-0.4-0.2-0.6-0.3c0,0-0.1,0-0.1,0c0,0-0.1,0-0.1,0l0,0l0,0l0,0l0,0
						l0,0l0,0l0,0l0,0l0,0l0,0c0,0,0,0-0.1,0l0,0l0,0l0,0l0,0l0,0l0,0l0,0l0,0l0,0c-0.1,0-0.3,0-0.4-0.1c0,0-0.1,0-0.1,0
						c0,0-0.1,0-0.1,0l0,0l0,0l0,0l0,0l0,0l0,0l0,0l0,0l0,0h0l0,0l0,0l0,0l0,0l0,0l0,0l0,0l0,0l0,0l0,0l0,0l0,0l0,0l0,0l0,0l0,0l0,0
						l0,0l0,0c-0.1,0-0.2,0-0.3,0l-0.1,0l-0.1,0l0,0l-0.1,0l0,0l0,0l0,0l0,0l0,0c0,0,0,0,0,0c0,0,0,0,0,0l0,0l0,0l0,0l0,0l0,0
						l-0.1,0l-0.1,0l-0.1,0l0,0l-0.1,0l0,0l-0.1,0l0,0l0,0c0,0,0,0,0,0c0,0,0,0,0,0l0,0l0,0l0,0c0,0-0.1,0-0.1,0l0,0l0,0l0,0l0,0
						l0,0l0,0l0,0l0,0l0,0l0,0l-0.1,0l0,0c0,0,0,0-0.1,0l0,0l-0.1,0l0,0l-0.1,0l0,0l0,0l0,0l0,0l0,0l0,0l0,0l0,0l0,0l0,0l0,0l0,0
						l0,0l0,0l0,0l0,0l0,0l0,0l0,0l0,0l0,0l0,0l0,0l0,0l0,0l0,0l0,0l0,0c0,0.1-0.1,0.1-0.1,0.2l0,0l0,0l0,0l0,0l0,0l0,0l0,0l0,0
						c0,0-0.1,0.1-0.1,0.1l0,0l0,0l0,0l0,0l0,0.1l0,0l0,0c0,0,0,0,0,0.1c0,0,0,0,0,0l0,0l0,0l0,0l0,0l0,0.1l0,0.1l0,0l0,0.1l0,0.1
						l0,0l0,0l0,0.1l0,0.1l0,0l0,0l0,0.1l0,0l0,0l-3.7-0.9l8.7-9c0.5-0.5,1.3-0.7,1.9-0.6l0,0L23,70.3z"/>
					<path class="st9" d="M19.8,75l3.5,12c0.2,0.7,0,1.5-0.5,2l-4.9,5.1c-0.1,0.1-0.2,0.2-0.4,0.2c-0.1,0-0.3,0-0.5,0l-7-1.7
						c-0.6-0.2-1.2-0.7-1.4-1.4l-0.9-3l0-0.1l0.1,0l8.5,2.1c0.1,0,0.1,0,0.2,0c0,0,0.1,0,0.1-0.1c0,0,0.1-0.1,0.1-0.1
						c0-0.1,0-0.1,0-0.2l-1.4-4.8l0,0l0,0l0,0l0,0l0,0l0.1,0l0,0l0,0l0,0l0,0l0,0l0,0l0,0l0,0l0,0l0,0l0,0c0.2-0.1,0.4-0.2,0.6-0.4
						c0,0,0.1-0.1,0.1-0.1c0,0,0.1-0.1,0.1-0.1l0,0l0,0l0,0l0,0l0,0l0,0l0,0l0,0l0,0c0,0,0,0,0,0l0,0l0,0l0,0l0,0l0,0l0,0l0,0
						c0.1-0.1,0.2-0.2,0.3-0.3c0,0,0,0,0-0.1c0,0,0,0,0-0.1l0,0l0,0l0,0l0,0l0,0l0,0l0,0l0,0l0,0l0,0l0,0l0-0.1l0,0l0,0l0-0.1l0,0
						l0,0l0,0l0-0.1l0,0l0,0l0,0l0,0l0,0l0,0l0,0c0-0.1,0.1-0.2,0.1-0.3l0-0.1l0,0l0,0l0,0l0,0l0,0l0,0l0,0l0,0l0,0l0,0
						c0,0,0,0,0-0.1l0,0l0,0l0,0l0,0l0,0l0-0.1l0-0.1l0-0.1l0-0.1l0-0.1l0,0l0,0l0-0.1l0-0.1l0-0.1c0,0,0,0,0-0.1l0,0l0,0l0,0
						c0,0,0-0.1,0-0.1l0,0l0,0l0-0.1l0-0.1l0-0.1l0,0l0,0l0-0.1l0,0l0-0.1l0,0c0,0,0,0,0-0.1l0-0.1l0-0.1l0,0l0-0.1l0-0.1l0-0.1l0,0
						l0-0.1l0-0.1l0-0.1l0-0.1l0,0l0,0l0,0l0,0l0,0l0-0.1l0,0l0-0.1l0-0.1l0-0.1l0-0.1l0,0l0-0.1l0-0.1l0,0l0,0l0-0.1l0-0.1l0-0.1
						l0-0.1l0,0c0-0.1-0.1-0.1-0.1-0.2l0-0.1l0-0.1l0,0l0,0l0,0l0-0.1l0-0.1l0,0l0,0c0,0-0.1-0.1-0.1-0.1l0,0l0,0v0l0,0l0,0l0,0l0,0
						c0,0,0,0,0-0.1l0,0l0,0l0,0l0,0l0,0l0,0l0,0l0,0l0,0l0,0l0,0l0,0l0,0l0,0l0,0l0,0l0,0L19.8,75z"/>
					<path class="st9" d="M10,72l-6.1,6.4c0,0.1-0.1,0.1-0.1,0.2c0,0,0,0.1,0,0.1c0,0,0,0.1,0.1,0.1c0,0,0.1,0.1,0.2,0.1l4.9,1.2
						l0,0l0,0l0,0.1l0,0.1l0,0l0,0l0,0l0,0l0,0.1l0,0l0,0l0,0.1l0,0.1l0,0l0,0.1l0,0.1l0,0c0,0.2,0,0.5,0,0.7c0,0,0,0.1,0,0.1
						c0,0,0,0.1,0,0.1l0,0l0,0l0,0l0,0l0,0l0,0l0,0l0,0l0,0l0,0c0,0,0,0,0,0.1l0,0l0,0l0,0l0,0l0,0l0,0l0,0l0,0l0,0
						c0,0.1,0.1,0.3,0.2,0.4c0,0,0,0.1,0,0.1c0,0,0,0,0,0.1l0,0l0,0l0,0l0,0l0,0l0,0l0,0l0,0l0,0l0,0l0,0l0,0l0,0l0,0l0,0l0,0l0,0
						l0,0.1l0,0l0,0l0,0l0,0l0,0l0,0l0,0l0,0l0,0l0,0c0.1,0.1,0.1,0.1,0.2,0.2l0,0l0,0l0,0l0,0l0,0l0,0l0,0l0,0l0,0l0,0l0,0
						c0,0,0,0,0,0l0,0l0,0l0,0l0,0l0,0l0,0l0,0l0,0l0,0l0,0l0,0l0,0l0.1,0.1c0,0,0,0,0,0c0,0,0,0,0,0l0,0l0,0l0,0c0,0,0.1,0,0.1,0
						l0,0l0,0l0,0l0,0l0,0l0,0l0,0l0,0l0,0l0,0l0.1,0l0,0c0,0,0,0,0.1,0l0,0l0.1,0l0,0l0.1,0l0,0l0.1,0l0,0l0.1,0l0.1,0l0.1,0l0.1,0
						l0,0l0,0l0,0l0,0l0,0l0.1,0l0,0l0,0l0.1,0l0.1,0l0.1,0l0.1,0l0,0l0.1,0l0.1,0l0,0h0l0.1,0l0.1,0l0.1,0l0.1,0l0,0
						c0.1,0,0.2,0,0.2,0l0.1,0l0.1,0h0l0,0h0l0.1,0l0.1,0l0,0l0,0c0.1,0,0.1,0,0.2,0h0l0,0l0,0l0,0l0.1,0l0.1,0l0,0c0,0,0.1,0,0.1,0
						l0,0l0,0l0,0h0l0.1,0l0.1,0l0,0l0.1,0l0.1,0l0,0l0,0l0.1,0l0.1,0l0,0l0.1,0l0.1,0l0,0l0,0l0,0l1.1,3.6l-0.1,0L3.3,86
						c-0.7-0.2-1.3-0.7-1.5-1.4l0,0l-2-6.8c-0.1-0.2-0.1-0.3,0-0.5c0-0.1,0.1-0.3,0.2-0.4l5-5.2c0.5-0.5,1.2-0.7,1.9-0.5L10,72z"/>
					<path class="st9" d="M11,83.4c-1.5-1.4-1.5-3.8-0.1-5.2c1.4-1.5,3.8-1.5,5.2-0.1c1.5,1.4,1.5,3.8,0.1,5.2
						C14.9,84.7,12.5,84.8,11,83.4z"/>
					<path class="st18" d="M-12.2,75l-2.9,3l-0.4-0.4l2.2-2.3l-3.2,1.3l-0.3-0.3l1.2-3.2l-2.2,2.3l-0.4-0.4l2.9-3l0.4,0.4l-1.3,3.6
						l3.5-1.4L-12.2,75z M-9.7,80.7c-0.1,0.1-0.2,0.2-0.2,0.2l-1.9-1.8c-0.2,0.3-0.3,0.5-0.3,0.8c0,0.3,0.1,0.5,0.3,0.7
						c0.2,0.2,0.4,0.3,0.5,0.3c0.2,0,0.4,0,0.6-0.1l0.4,0.4c-0.3,0.2-0.6,0.2-0.9,0.2c-0.3,0-0.6-0.2-0.9-0.5
						c-0.2-0.2-0.4-0.5-0.5-0.7c-0.1-0.3-0.1-0.6,0-0.8c0.1-0.3,0.2-0.6,0.5-0.8c0.2-0.2,0.5-0.4,0.8-0.5c0.3-0.1,0.6-0.1,0.8,0
						c0.3,0.1,0.5,0.2,0.8,0.4c0.2,0.2,0.4,0.5,0.5,0.7c0.1,0.3,0.1,0.5,0,0.8C-9.4,80.2-9.5,80.4-9.7,80.7z M-10.1,80.2
						c0.1-0.2,0.2-0.3,0.3-0.5c0-0.2,0-0.3,0-0.5c-0.1-0.2-0.2-0.3-0.3-0.5c-0.2-0.2-0.4-0.3-0.7-0.3c-0.3,0-0.5,0.1-0.8,0.3
						L-10.1,80.2z M-5.7,80.8L-8.8,84l-0.4-0.4l3.1-3.2L-5.7,80.8z M-3.4,83l-3.1,3.2l-0.4-0.4l3.1-3.2L-3.4,83z M-3.6,86.7
						c0.2-0.2,0.5-0.4,0.8-0.5c0.3-0.1,0.6-0.1,0.8,0c0.3,0.1,0.5,0.2,0.7,0.4c0.2,0.2,0.3,0.4,0.4,0.7s0.1,0.5,0,0.7l0.4-0.4
						L0,87.9l-2.3,2.4l-0.4-0.4l0.4-0.4c-0.2,0.1-0.4,0.1-0.7,0c-0.2-0.1-0.5-0.2-0.7-0.4c-0.2-0.2-0.4-0.4-0.4-0.7
						c-0.1-0.3-0.1-0.5,0-0.8C-4,87.2-3.8,87-3.6,86.7z M-1.6,88.7c0.2-0.2,0.3-0.4,0.3-0.6c0.1-0.2,0.1-0.4,0-0.6
						c-0.1-0.2-0.2-0.4-0.3-0.5s-0.3-0.2-0.5-0.3c-0.2,0-0.4,0-0.6,0c-0.2,0.1-0.4,0.2-0.6,0.4c-0.2,0.2-0.3,0.4-0.4,0.6
						c-0.1,0.2-0.1,0.4,0,0.6c0.1,0.2,0.2,0.4,0.3,0.5s0.3,0.2,0.5,0.3c0.2,0,0.4,0,0.6,0C-1.9,89-1.7,88.9-1.6,88.7z M2.1,90.5
						l-1.4,1.4c-0.1,0.1-0.2,0.2-0.2,0.3c0,0.1,0.1,0.2,0.2,0.3L1,92.8l-0.3,0.3l-0.4-0.3C0.1,92.6,0,92.4,0,92.2
						c0-0.2,0.1-0.4,0.3-0.7l1.4-1.4l-0.3-0.3l0.3-0.3L2,89.8l0.6-0.6L3,89.6l-0.6,0.6L3,90.8l-0.3,0.3L2.1,90.5z M8.7,95
						c0.3,0.3,0.6,0.7,0.7,1c0.1,0.4,0.1,0.7,0.1,1.1c-0.1,0.4-0.3,0.7-0.6,1c-0.3,0.3-0.6,0.5-1,0.6c-0.3,0.1-0.7,0.1-1.1,0
						c-0.4-0.1-0.7-0.3-1-0.7l-1-0.9l2.9-3.1L8.7,95z M6.1,97.7c0.4,0.4,0.8,0.6,1.2,0.6c0.4,0,0.8-0.2,1.2-0.6
						C8.8,97.3,9,96.9,9,96.5c0-0.4-0.2-0.8-0.6-1.2l-0.6-0.5l-2.3,2.4L6.1,97.7z M12.6,102.1c-0.1,0.1-0.2,0.2-0.2,0.2l-1.9-1.8
						c-0.2,0.3-0.3,0.5-0.3,0.8c0,0.3,0.1,0.5,0.3,0.7c0.2,0.2,0.4,0.3,0.5,0.3c0.2,0,0.4,0,0.6-0.1l0.4,0.4
						c-0.3,0.2-0.6,0.2-0.9,0.2c-0.3,0-0.6-0.2-0.9-0.5c-0.2-0.2-0.4-0.5-0.5-0.7c-0.1-0.3-0.1-0.6,0-0.8c0.1-0.3,0.2-0.6,0.5-0.8
						c0.2-0.2,0.5-0.4,0.8-0.5s0.6-0.1,0.8,0c0.3,0.1,0.5,0.2,0.8,0.4c0.2,0.2,0.4,0.5,0.5,0.7c0.1,0.3,0.1,0.5,0,0.8
						C12.9,101.7,12.8,101.9,12.6,102.1z M12.2,101.6c0.1-0.2,0.2-0.3,0.3-0.5c0-0.2,0-0.3,0-0.5c-0.1-0.2-0.2-0.3-0.3-0.5
						c-0.2-0.2-0.4-0.3-0.7-0.3c-0.3,0-0.5,0.1-0.8,0.3L12.2,101.6z M15.4,103.5c0.2-0.1,0.5-0.1,0.7,0c0.2,0.1,0.5,0.2,0.7,0.4
						c0.2,0.2,0.4,0.4,0.4,0.7c0.1,0.3,0.1,0.5,0,0.8c-0.1,0.3-0.2,0.5-0.5,0.8c-0.2,0.2-0.5,0.4-0.8,0.5c-0.3,0.1-0.6,0.1-0.8,0
						c-0.3-0.1-0.5-0.2-0.7-0.4c-0.2-0.2-0.3-0.4-0.4-0.7c-0.1-0.2-0.1-0.5,0-0.7l-0.4,0.4l-0.4-0.4l3.1-3.2l0.4,0.4L15.4,103.5z
						 M16.3,105.8c0.2-0.2,0.3-0.4,0.3-0.6c0.1-0.2,0.1-0.4,0-0.6c-0.1-0.2-0.2-0.4-0.3-0.5c-0.1-0.1-0.3-0.2-0.5-0.3
						c-0.2,0-0.4,0-0.6,0c-0.2,0.1-0.4,0.2-0.6,0.4c-0.2,0.2-0.3,0.4-0.4,0.6c-0.1,0.2-0.1,0.4,0,0.6c0.1,0.2,0.2,0.4,0.3,0.5
						c0.1,0.1,0.3,0.2,0.5,0.3c0.2,0,0.4,0,0.6,0C15.9,106.2,16.1,106,16.3,105.8z M20.2,106.5c-0.1-0.1-0.1-0.2-0.1-0.3
						c0-0.1,0-0.2,0.1-0.3c0.1-0.1,0.2-0.1,0.3-0.1s0.2,0,0.3,0.1c0.1,0.1,0.1,0.2,0.1,0.3c0,0.1,0,0.2-0.1,0.3
						c-0.1,0.1-0.2,0.1-0.3,0.1C20.3,106.6,20.2,106.6,20.2,106.5z M20,107.1l-2.3,2.4l-0.4-0.4l2.3-2.4L20,107.1z M22.1,109.8
						l-1.4,1.4c-0.1,0.1-0.2,0.2-0.2,0.3c0,0.1,0.1,0.2,0.2,0.3l0.3,0.3l-0.3,0.3l-0.4-0.3c-0.2-0.2-0.3-0.4-0.4-0.6
						c0-0.2,0.1-0.4,0.3-0.7l1.4-1.4l-0.3-0.3l0.3-0.3L22,109l0.6-0.6l0.4,0.4l-0.6,0.6L23,110l-0.3,0.3L22.1,109.8z"/>
				</g>
			</g>
		</g>
		<g>
			<g>
				<defs>
					<path id="SVGID_00000124877391174433706300000002182604130468367250_" d="M28.8-18.6l98,94.3c9.5,9.2,9.8,24.4,0.6,33.9
						L80,158.9c-9.2,9.5-24.4,9.8-33.9,0.6l-98-94.3c-9.5-9.2-9.8-24.4-0.6-33.9L-5.2-18C4-27.5,19.2-27.8,28.8-18.6z"/>
				</defs>
				<clipPath id="SVGID_00000083089134208195265770000015201889415958861730_">
					<use xlink:href="#SVGID_00000124877391174433706300000002182604130468367250_"  style="overflow:visible;"/>
				</clipPath>
				<g style="clip-path:url(#SVGID_00000083089134208195265770000015201889415958861730_);">
					<g>
						<defs>
							<polygon id="SVGID_00000139994290850058806190000012674642056189096076_" points="-65.5,-31.6 -64.5,-31.6 -65.5,-30.6 
															"/>
						</defs>
						<defs>
							<polygon id="SVGID_00000080185163523465574010000001789855147647481755_" points="-67.5,-33.6 -68.5,-33.6 -67.5,-34.6 
															"/>
						</defs>
						<clipPath id="SVGID_00000005952078159857267330000015320782782298643115_">
							<use xlink:href="#SVGID_00000139994290850058806190000012674642056189096076_"  style="overflow:visible;"/>
						</clipPath>
						
							<clipPath id="SVGID_00000013894130864147406390000015187899889939209361_" style="clip-path:url(#SVGID_00000005952078159857267330000015320782782298643115_);">
							<use xlink:href="#SVGID_00000080185163523465574010000001789855147647481755_"  style="overflow:visible;"/>
						</clipPath>
					</g>
				</g>
			</g>
		</g>
		<g>
			<path shape-rendering="crispEdges" class="st5" d="M28.8-18.6l98,94.3c9.5,9.2,9.8,24.4,0.6,33.9L80,158.9
				c-9.2,9.5-24.4,9.8-33.9,0.6l-98-94.3c-9.5-9.2-9.8-24.4-0.6-33.9L-5.2-18C4-27.5,19.2-27.8,28.8-18.6z"/>
			
				<linearGradient id="SVGID_00000074402550620355108480000012954173026510116232_" gradientUnits="userSpaceOnUse" x1="54.2253" y1="554.1286" x2="287.4917" y2="372.0545" gradientTransform="matrix(0.7204 0.6936 0.6936 -0.7204 -401.248 324.8193)">
				<stop  offset="0" style="stop-color:#FFFFFF"/>
				<stop  offset="1" style="stop-color:#FFF5F5;stop-opacity:0"/>
			</linearGradient>
			<path shape-rendering="crispEdges" style="fill:url(#SVGID_00000074402550620355108480000012954173026510116232_);" d="
				M28.8-18.6l98,94.3c9.5,9.2,9.8,24.4,0.6,33.9L80,158.9c-9.2,9.5-24.4,9.8-33.9,0.6l-98-94.3c-9.5-9.2-9.8-24.4-0.6-33.9L-5.2-18
				C4-27.5,19.2-27.8,28.8-18.6z"/>
			
				<linearGradient id="SVGID_00000157300647186443849820000009356004161750000516_" gradientUnits="userSpaceOnUse" x1="56.424" y1="548.8391" x2="253.6484" y2="403.3702" gradientTransform="matrix(0.7204 0.6936 0.6936 -0.7204 -401.248 324.8193)">
				<stop  offset="0" style="stop-color:#000000;stop-opacity:0"/>
				<stop  offset="0.3365" style="stop-color:#FFFFFF;stop-opacity:0.9"/>
				<stop  offset="1" style="stop-color:#000000;stop-opacity:0"/>
			</linearGradient>
			<path shape-rendering="crispEdges" style="fill:url(#SVGID_00000157300647186443849820000009356004161750000516_);" d="
				M28.8-18.6l98,94.3c9.5,9.2,9.8,24.4,0.6,33.9L80,158.9c-9.2,9.5-24.4,9.8-33.9,0.6l-98-94.3c-9.5-9.2-9.8-24.4-0.6-33.9L-5.2-18
				C4-27.5,19.2-27.8,28.8-18.6z"/>
			
				<linearGradient id="SVGID_00000036252556827427474610000001146340803045165232_" gradientUnits="userSpaceOnUse" x1="93.5223" y1="551.5469" x2="277.6194" y2="292.3731" gradientTransform="matrix(0.7204 0.6936 0.6936 -0.7204 -400.7983 324.9908)">
				<stop  offset="0" style="stop-color:#FFFFFF"/>
				<stop  offset="0.5708" style="stop-color:#646464;stop-opacity:0"/>
			</linearGradient>
			
				<path shape-rendering="crispEdges" style="fill:none;stroke:url(#SVGID_00000036252556827427474610000001146340803045165232_);stroke-width:0.91;" d="
				M28.4-18.3l98,94.3c9.4,9,9.7,23.9,0.6,33.3l-47.4,49.2c-9,9.4-23.9,9.7-33.3,0.6l-98-94.3c-9.4-9-9.7-23.9-0.6-33.3l47.4-49.2
				C4.2-27,19.1-27.3,28.4-18.3z"/>
		</g>
		<path class="st5" d="M28.8-18.6l98,94.3c9.5,9.2,9.8,24.4,0.6,33.9L80,158.9c-9.2,9.5-24.4,9.8-33.9,0.6l-98-94.3
			c-9.5-9.2-9.8-24.4-0.6-33.9L-5.2-18C4-27.5,19.2-27.8,28.8-18.6z"/>
		<path class="st9" d="M55.6,40.8c0.1,0,0.2,0.1,0.3,0.1l0,0c0.1,0.1,0.1,0.2,0.2,0.3l1.4,5c0.1,0.5,0,1-0.4,1.4l-1.6,1.6l-1.8-6.1
			c0,0,0-0.1-0.1-0.1c0,0-0.1,0-0.1-0.1c0,0-0.1,0-0.1,0c0,0-0.1,0-0.1,0.1L51,45.6l0,0l0,0l0,0l0,0l0,0l0,0l0,0l0,0l0,0l0,0l0,0
			l0,0l0,0l0,0l0,0l0,0l0,0l0,0c-0.1-0.1-0.3-0.2-0.4-0.2c0,0-0.1,0-0.1,0c0,0-0.1,0-0.1,0l0,0l0,0l0,0l0,0l0,0l0,0l0,0l0,0l0,0l0,0
			c0,0,0,0,0,0l0,0l0,0l0,0l0,0l0,0l0,0l0,0l0,0l0,0c-0.1,0-0.2,0-0.3,0c0,0,0,0-0.1,0c0,0,0,0-0.1,0l0,0l0,0l0,0l0,0l0,0l0,0l0,0
			l0,0l0,0h0l0,0l0,0l0,0l0,0l0,0l0,0l0,0l0,0l0,0l0,0l0,0l0,0l0,0l0,0l0,0l0,0l0,0l0,0l0,0c-0.1,0-0.1,0-0.2,0l0,0l0,0l0,0l0,0l0,0
			l0,0l0,0l0,0l0,0c0,0,0,0,0,0c0,0,0,0,0,0l0,0l0,0l0,0l0,0l0,0l0,0l0,0l0,0l0,0l0,0l0,0l0,0l0,0l0,0c0,0,0,0,0,0c0,0,0,0,0,0l0,0
			l0,0l0,0c0,0,0,0-0.1,0l0,0l0,0l0,0l0,0l0,0l0,0l0,0l0,0l0,0l0,0l0,0l0,0c0,0,0,0,0,0l0,0l0,0l0,0l0,0l0,0l0,0l0,0l0,0l0,0l0,0
			l0,0l0,0l0,0l0,0l0,0l0,0l0,0l0,0l0,0l0,0l0,0l0,0l0,0l0,0l0,0l0,0l0,0l0,0l0,0l0,0l0,0l0,0c0,0-0.1,0.1-0.1,0.1l0,0l0,0l0,0l0,0
			l0,0l0,0l0,0l0,0c0,0,0,0.1-0.1,0.1l0,0l0,0l0,0l0,0l0,0l0,0l0,0c0,0,0,0,0,0c0,0,0,0,0,0l0,0l0,0l0,0l0,0l0,0l0,0l0,0l0,0l0,0v0
			l0,0l0,0l0,0l0,0l0,0l0,0l0,0l0,0l-2.7-0.7l6.2-6.5c0.4-0.4,0.9-0.5,1.4-0.4l0,0L55.6,40.8z"/>
		<path class="st9" d="M53.4,44.2l2.5,8.6c0.1,0.5,0,1-0.3,1.4L52,57.9c-0.1,0.1-0.2,0.2-0.3,0.2c-0.1,0-0.2,0-0.3,0l-5-1.3
			c-0.5-0.1-0.9-0.5-1-1l-0.6-2.1l0-0.1l0.1,0l6.1,1.5c0.1,0,0.1,0,0.1,0c0,0,0.1,0,0.1,0c0,0,0-0.1,0-0.1c0,0,0-0.1,0-0.2l-1-3.5
			l0,0l0,0l0,0l0,0l0,0l0,0l0,0l0,0l0,0l0,0l0,0l0,0l0,0l0,0l0,0l0,0l0,0c0.1-0.1,0.3-0.2,0.4-0.3c0,0,0.1,0,0.1-0.1
			c0,0,0,0,0.1-0.1l0,0l0,0l0,0l0,0l0,0l0,0l0,0l0,0l0,0c0,0,0,0,0,0l0,0l0,0l0,0l0,0l0,0l0,0l0,0c0.1-0.1,0.1-0.2,0.2-0.2
			c0,0,0,0,0-0.1c0,0,0,0,0-0.1l0,0l0,0l0,0l0,0l0,0l0,0l0,0l0,0l0,0l0,0l0,0l0-0.1l0,0l0,0l0,0l0,0l0,0l0,0l0,0l0,0l0,0l0,0l0,0
			l0,0l0,0l0,0c0-0.1,0-0.1,0.1-0.2l0-0.1l0,0l0,0l0,0l0,0l0,0l0,0l0,0l0,0l0,0l0,0c0,0,0,0,0,0l0,0l0,0l0,0l0,0l0,0l0,0l0,0l0,0
			l0,0l0,0l0,0l0,0l0,0l0,0l0,0c0,0,0,0,0,0l0,0l0,0l0,0c0,0,0,0,0-0.1l0,0l0,0l0,0l0,0l0-0.1l0,0l0,0l0,0l0,0l0,0l0,0c0,0,0,0,0,0
			l0,0l0,0l0,0l0,0l0,0l0,0l0,0l0,0l0,0l0,0l0,0l0,0l0,0l0,0l0,0l0,0l0,0l0,0l0,0l0,0l0,0l0,0l0,0l0,0l0,0l0,0l0,0l0,0l0,0l0,0l0,0
			l0,0c0-0.1,0-0.1-0.1-0.2l0,0l0,0l0,0l0,0l0,0l0,0l0,0l0,0l0,0c0,0,0-0.1-0.1-0.1l0,0l0,0v0l0,0l0,0l0,0l0,0c0,0,0,0,0,0l0,0l0,0
			l0,0l0,0l0,0l0,0l0,0l0,0l0,0l0,0l0,0l0,0l0,0l0,0l0,0l0,0l0,0L53.4,44.2z"/>
		<path class="st9" d="M46.3,42l-4.4,4.6c0,0-0.1,0.1-0.1,0.1c0,0,0,0.1,0,0.1c0,0,0,0.1,0.1,0.1c0,0,0.1,0.1,0.1,0.1l3.5,0.9l0,0
			l0,0l0,0l0,0l0,0l0,0l0,0l0,0l0,0l0,0l0,0l0,0l0,0l0,0l0,0l0,0l0,0c0,0.2,0,0.3,0,0.5c0,0,0,0.1,0,0.1c0,0,0,0.1,0,0.1l0,0l0,0
			l0,0l0,0l0,0l0,0l0,0l0,0l0,0l0,0c0,0,0,0,0,0l0,0l0,0l0,0l0,0l0,0l0,0l0,0l0,0l0,0c0,0.1,0.1,0.2,0.1,0.3c0,0,0,0,0,0.1
			c0,0,0,0,0,0.1l0,0l0,0l0,0l0,0l0,0l0,0l0,0l0,0l0,0l0,0l0,0l0,0l0,0l0,0l0,0l0,0l0,0l0,0l0,0l0,0l0,0l0,0l0,0l0,0l0,0l0,0l0,0
			l0,0c0,0.1,0.1,0.1,0.1,0.2l0,0l0,0l0,0l0,0l0,0l0,0l0,0l0,0l0,0l0,0l0,0c0,0,0,0,0,0l0,0l0,0l0,0l0,0l0,0l0,0l0,0l0,0l0,0l0,0
			l0,0l0,0l0.1,0c0,0,0,0,0,0c0,0,0,0,0,0l0,0l0,0l0,0c0,0,0,0,0.1,0l0,0l0,0l0,0l0,0l0,0l0,0l0,0l0,0l0,0l0,0l0,0l0,0c0,0,0,0,0,0
			l0,0l0,0l0,0l0,0l0,0l0,0l0,0l0,0l0,0l0,0l0,0l0,0l0,0l0,0l0,0l0,0l0,0l0,0l0,0l0,0l0,0l0,0l0,0l0,0l0,0l0,0l0,0l0,0l0,0l0,0l0,0
			l0,0l0,0c0.1,0,0.1,0,0.2,0l0,0l0,0h0l0,0h0l0,0l0,0l0,0l0,0c0,0,0.1,0,0.1,0h0l0,0l0,0l0,0l0,0l0,0l0,0c0,0,0,0,0.1,0l0,0l0,0
			l0,0h0l0,0l0,0l0,0l0,0l0,0l0,0l0,0l0,0l0,0l0,0l0,0l0,0l0,0l0,0l0,0l0.8,2.6l-0.1,0l-8.7-2.2c-0.5-0.1-0.9-0.5-1-1l0,0L39,46.2
			c0-0.1,0-0.2,0-0.3c0-0.1,0.1-0.2,0.2-0.3l3.6-3.7c0.3-0.3,0.9-0.5,1.4-0.4L46.3,42z"/>
		<path class="st9" d="M47.1,50.2c-1.1-1-1.1-2.7-0.1-3.8c1-1.1,2.7-1.1,3.8-0.1c1.1,1,1.1,2.7,0.1,3.8
			C49.8,51.2,48.1,51.2,47.1,50.2z"/>
		<path d="M23.3,45.8l-0.6-0.5l1.9-2l0,0L22,44.5l-0.4-0.4l1.1-2.7l0,0l-1.9,2l-0.6-0.5l2.8-3l0.7,0.7l-1.2,2.9l0,0l2.9-1.3l0.7,0.7
			L23.3,45.8z M27.6,46.5c-0.3-0.3-0.6-0.2-0.9,0l0.9,0.9C27.9,47.1,27.9,46.8,27.6,46.5z M27,48.1l0.5,0.5
			c-0.5,0.4-1.2,0.3-1.7-0.2c-0.7-0.7-0.7-1.5,0-2.2c0.7-0.7,1.5-0.8,2.2-0.1c0.6,0.6,0.6,1.4,0,2.1l-0.2,0.2l-1.5-1.5l0,0
			c-0.3,0.3-0.3,0.7,0,1C26.5,48.2,26.8,48.2,27,48.1z M28.4,50.8l2.8-3l0.6,0.6l-2.8,3L28.4,50.8z M30.6,52.9l2.8-3l0.6,0.6l-2.8,3
			L30.6,52.9z M34,55.4c0.3,0.3,0.6,0.3,0.9,0l0.2-0.2l-0.5-0.4c-0.2-0.2-0.5-0.2-0.6-0.1C33.8,55,33.8,55.2,34,55.4z M33.4,55.6
			c-0.4-0.4-0.5-1-0.1-1.4c0.4-0.4,0.9-0.3,1.5,0.2l0.6,0.5l0.1-0.1c0.2-0.2,0.2-0.5-0.1-0.7c-0.2-0.2-0.5-0.2-0.7-0.1l-0.5-0.5
			c0.4-0.4,1.1-0.3,1.7,0.2c0.6,0.5,0.6,1.2,0.2,1.6l-1.5,1.5l-0.6-0.6l0.3-0.3l0,0C34.1,56,33.7,55.9,33.4,55.6z M39,55.8l0.6,0.6
			l-0.5,0.5l0.4,0.4l-0.4,0.5l-0.4-0.4l-1,1.1c-0.2,0.2-0.2,0.3,0,0.5c0.1,0.1,0.1,0.1,0.2,0.1l-0.4,0.4c-0.1,0-0.2-0.1-0.3-0.2
			c-0.5-0.5-0.6-0.9-0.1-1.3l1.1-1.2l-0.3-0.3l0.4-0.5l0.3,0.3L39,55.8z M43.8,59.9L45,61c0.9,0.9,0.9,1.9,0,2.8
			c-0.9,0.9-2,1-2.8,0.1L41,62.9L43.8,59.9z M44,61l-1.9,1.9l0.4,0.4c0.6,0.5,1.2,0.5,1.8-0.2c0.6-0.6,0.6-1.3,0.1-1.8L44,61z
			 M47.8,65.9c-0.3-0.3-0.6-0.2-0.9,0l0.9,0.9C48,66.5,48,66.2,47.8,65.9z M47.2,67.5l0.5,0.5c-0.5,0.4-1.2,0.3-1.7-0.2
			c-0.7-0.7-0.7-1.5,0-2.2c0.7-0.7,1.5-0.8,2.2-0.1c0.6,0.6,0.6,1.4,0,2.1L48,67.8l-1.5-1.5l0,0c-0.3,0.3-0.3,0.7,0,1
			C46.7,67.6,46.9,67.6,47.2,67.5z M49.8,71.4c-0.3-0.3-0.4-0.7-0.3-1.1l0,0l-0.4,0.4l-0.6-0.6l2.8-3l0.6,0.6l-1.1,1.1l0,0
			c0.4-0.1,0.8-0.1,1.1,0.2c0.6,0.5,0.5,1.3-0.2,2C51.1,71.9,50.4,72,49.8,71.4z M51.4,69.5c-0.3-0.3-0.7-0.2-1.1,0.2
			c-0.4,0.4-0.4,0.8-0.1,1.1c0.3,0.3,0.7,0.2,1.1-0.2C51.6,70.2,51.7,69.7,51.4,69.5z M52.3,73.7l2.1-2.2l0.6,0.6l-2.1,2.2
			L52.3,73.7z M54.9,71.6c-0.2-0.2-0.2-0.4,0-0.6c0.2-0.2,0.4-0.2,0.6,0c0.2,0.2,0.2,0.4,0,0.6C55.4,71.7,55.1,71.7,54.9,71.6z
			 M57.2,73.2l0.6,0.6l-0.5,0.5l0.4,0.4l-0.4,0.5l-0.4-0.4l-1,1.1c-0.2,0.2-0.2,0.3,0,0.5c0.1,0.1,0.1,0.1,0.2,0.1l-0.4,0.4
			c-0.1,0-0.2-0.1-0.3-0.2c-0.5-0.5-0.6-0.9-0.1-1.3l1.1-1.2L56,73.9l0.4-0.5l0.3,0.3L57.2,73.2z"/>
		<g>
			<defs>
				
					<rect id="SVGID_00000137109933602183608320000004456005162673453210_" x="-12.1" y="60" transform="matrix(0.6936 -0.7204 0.7204 0.6936 -86.8442 67.3578)" width="95.7" height="151.5"/>
			</defs>
			<clipPath id="SVGID_00000060023680175838084910000003622526821949652152_">
				<use xlink:href="#SVGID_00000137109933602183608320000004456005162673453210_"  style="overflow:visible;"/>
			</clipPath>
			<g style="clip-path:url(#SVGID_00000060023680175838084910000003622526821949652152_);">
				<g>
					<g>
						<defs>
							<path id="SVGID_00000061437299411651049920000012354571580592796319_" d="M-43.2,108.6L5.6,57.9c4.9-5,12.9-5.2,17.9-0.3
								l90.8,87.5c5,4.9,5.2,12.9,0.3,17.9l-48.8,50.7c-4.9,5-12.9,5.2-17.9,0.3l-90.8-87.5C-47.9,121.7-48.1,113.6-43.2,108.6z"/>
						</defs>
						<clipPath id="SVGID_00000098911890120277726630000003086193989320242334_">
							<use xlink:href="#SVGID_00000061437299411651049920000012354571580592796319_"  style="overflow:visible;"/>
						</clipPath>
						<g style="clip-path:url(#SVGID_00000098911890120277726630000003086193989320242334_);">
							<g>
								<defs>
									<polygon id="SVGID_00000178198063960855196830000001950520716923687311_" points="-88,12.7 -87,12.7 -88,13.7 									"/>
								</defs>
								<defs>
									<polygon id="SVGID_00000020358033422460988430000013445973114128462239_" points="-90,10.7 -91,10.7 -90,9.7 									"/>
								</defs>
								<clipPath id="SVGID_00000112604549818826543060000006114848955839277442_">
									<use xlink:href="#SVGID_00000178198063960855196830000001950520716923687311_"  style="overflow:visible;"/>
								</clipPath>
								
									<clipPath id="SVGID_00000093874822528279801280000001364753386259703964_" style="clip-path:url(#SVGID_00000112604549818826543060000006114848955839277442_);">
									<use xlink:href="#SVGID_00000020358033422460988430000013445973114128462239_"  style="overflow:visible;"/>
								</clipPath>
							</g>
						</g>
					</g>
				</g>
				<g>
					<path class="st13" d="M-43.2,108.6L5.6,57.9c4.9-5,12.9-5.2,17.9-0.3l90.8,87.5c5,4.9,5.2,12.9,0.3,17.9l-48.8,50.7
						c-4.9,5-12.9,5.2-17.9,0.3l-90.8-87.5C-47.9,121.7-48.1,113.6-43.2,108.6z"/>
					
						<radialGradient id="SVGID_00000016780611379489003930000005961110601932871070_" cx="-416.2337" cy="377.9104" r="1" gradientTransform="matrix(161.3562 39.7739 25.1046 -101.8455 57619.0039 55162.0859)" gradientUnits="userSpaceOnUse">
						<stop  offset="0" style="stop-color:#FFFFFF;stop-opacity:0.3"/>
						<stop  offset="1" style="stop-color:#FFFFFF;stop-opacity:0"/>
					</radialGradient>
					<path style="fill:url(#SVGID_00000016780611379489003930000005961110601932871070_);" d="M-43.2,108.6L5.6,57.9
						c4.9-5,12.9-5.2,17.9-0.3l90.8,87.5c5,4.9,5.2,12.9,0.3,17.9l-48.8,50.7c-4.9,5-12.9,5.2-17.9,0.3l-90.8-87.5
						C-47.9,121.7-48.1,113.6-43.2,108.6z"/>
					<path class="st5" d="M-43.2,108.6L5.6,57.9c4.9-5,12.9-5.2,17.9-0.3l90.8,87.5c5,4.9,5.2,12.9,0.3,17.9l-48.8,50.7
						c-4.9,5-12.9,5.2-17.9,0.3l-90.8-87.5C-47.9,121.7-48.1,113.6-43.2,108.6z"/>
				</g>
				<g>
					<g>
						<defs>
							<path id="SVGID_00000103255790430559570530000004951774534844623006_" d="M16.7,69.8l8.3,8c1.1,1,1.1,2.7,0.1,3.8l-5.6,5.8
								c-1,1.1-2.7,1.1-3.8,0.1l-8.3-8c-1.1-1-1.1-2.7-0.1-3.8l5.6-5.8C13.9,68.8,15.6,68.7,16.7,69.8z"/>
						</defs>
						<clipPath id="SVGID_00000065764520587269079120000016308997023761139637_">
							<use xlink:href="#SVGID_00000103255790430559570530000004951774534844623006_"  style="overflow:visible;"/>
						</clipPath>
						<g style="clip-path:url(#SVGID_00000065764520587269079120000016308997023761139637_);">
							
								<linearGradient id="SVGID_00000008866465841910938920000016304460755413691278_" gradientUnits="userSpaceOnUse" x1="50.5371" y1="442.0319" x2="66.9673" y2="430.3028" gradientTransform="matrix(0.7204 0.6936 0.6936 -0.7204 -328.807 351.3764)">
								<stop  offset="0" style="stop-color:#ABABAB"/>
								<stop  offset="0.3125" style="stop-color:#FFFFFF"/>
								<stop  offset="0.6302" style="stop-color:#BDBDBD"/>
								<stop  offset="1" style="stop-color:#5E5E5E"/>
							</linearGradient>
							<path style="fill:url(#SVGID_00000008866465841910938920000016304460755413691278_);" d="M16.7,69.8l8.3,8
								c1.1,1,1.1,2.7,0.1,3.8l-5.6,5.8c-1,1.1-2.7,1.1-3.8,0.1l-8.3-8c-1.1-1-1.1-2.7-0.1-3.8l5.6-5.8
								C13.9,68.8,15.6,68.7,16.7,69.8z"/>
							
								<linearGradient id="SVGID_00000101089767606812904150000001535338355126575540_" gradientUnits="userSpaceOnUse" x1="14.1506" y1="88.5467" x2="17.459" y2="70.6102" gradientTransform="matrix(1 0 0 -1 0 158)">
								<stop  offset="0" style="stop-color:#7D7D7D"/>
								<stop  offset="0.4948" style="stop-color:#FFFFFF"/>
								<stop  offset="1" style="stop-color:#1C1C1C"/>
							</linearGradient>
							<path style="fill:none;stroke:url(#SVGID_00000101089767606812904150000001535338355126575540_);stroke-width:0.5072;" d="
								M11.6,71.5l4.1,3.9c1-0.5,3.3-1.5,4.3-0.9c0.2,0.4,0.6,1.5,0.3,2.6 M8.9,74.2l4.1,3.9c-1.3,1.4-1,3.5-0.8,4.4
								c1.3,0.6,3.6-0.2,4.6-0.7l4,3.9 M22.9,83.6l-4-3.9c0.1-0.5,0.6-1.5,1.5-1.5"/>
						</g>
					</g>
				</g>
				<path class="st9" d="M47,123.9c0.2,0,0.3,0.1,0.4,0.2l0,0c0.1,0.1,0.2,0.2,0.2,0.4l2,6.9c0.2,0.7,0,1.4-0.5,1.9l-2.2,2.3
					l-2.5-8.5c0-0.1-0.1-0.1-0.1-0.2c0,0-0.1-0.1-0.1-0.1c0,0-0.1,0-0.1,0c-0.1,0-0.1,0.1-0.2,0.1l-3.5,3.6l0,0l0,0l0,0l0,0l0,0l0,0
					l0,0l0,0l0,0l0,0l0,0l0,0l0,0l0,0l0,0l0,0l0,0l0,0c-0.2-0.1-0.4-0.2-0.6-0.3c0,0-0.1,0-0.1,0c0,0-0.1,0-0.1,0l0,0l0,0l0,0l0,0
					l0,0l0,0l0,0l0,0l0,0l0,0c0,0,0,0-0.1,0l0,0l0,0l0,0l0,0l0,0l0,0l0,0l0,0l0,0c-0.1,0-0.3,0-0.4-0.1c0,0-0.1,0-0.1,0
					c0,0-0.1,0-0.1,0h0h0l0,0l0,0h0l0,0l0,0h0h0h0h0h0l0,0l0,0l0,0l0,0l0,0l0,0l0,0l0,0l0,0l0,0l0,0l0,0l0,0l0,0l0,0l0,0l0,0
					c-0.1,0-0.2,0-0.3,0l-0.1,0l-0.1,0l0,0l-0.1,0l0,0l0,0l0,0h0l0,0c0,0,0,0,0,0c0,0,0,0,0,0l0,0l0,0l0,0l0,0l0,0l-0.1,0l-0.1,0
					l-0.1,0l0,0l-0.1,0l0,0l-0.1,0l0,0l0,0c0,0,0,0,0,0c0,0,0,0,0,0l0,0l0,0l0,0c0,0-0.1,0-0.1,0l0,0l0,0l0,0l0,0l0,0l0,0l0,0l0,0
					l0,0l0,0l-0.1,0l0,0c0,0,0,0-0.1,0l0,0l-0.1,0l0,0l-0.1,0l0,0l0,0l0,0l0,0l0,0l0,0l0,0l0,0l0,0l0,0l0,0l0,0l0,0l0,0l0,0l0,0l0,0
					l0,0l0,0l0,0l0,0l0,0l0,0l0,0l0,0l0,0l0,0l0,0c0,0.1-0.1,0.1-0.1,0.2l0,0l0,0l0,0l0,0l0,0l0,0l0,0l0,0c0,0-0.1,0.1-0.1,0.1l0,0
					l0,0h0l0,0l0,0.1l0,0.1l0,0c0,0,0,0,0,0.1c0,0,0,0,0,0l0,0l0,0l0,0l0,0l0,0.1l0,0.1l0,0l0,0.1l0,0.1l0,0l0,0l0,0.1l0,0.1l0,0
					l0,0l0,0.1l0,0l0,0l-3.7-0.9l8.7-9c0.5-0.5,1.3-0.7,1.9-0.6l0,0L47,123.9z"/>
				<path class="st9" d="M43.8,128.6l3.5,12c0.2,0.7,0,1.5-0.5,2l-4.9,5.1c-0.1,0.1-0.2,0.2-0.4,0.2c-0.1,0-0.3,0-0.5,0l-7-1.7
					c-0.6-0.2-1.2-0.7-1.4-1.4l-0.9-3l0-0.1l0.1,0l8.5,2.1c0.1,0,0.1,0,0.2,0c0,0,0.1,0,0.1-0.1c0,0,0.1-0.1,0.1-0.1
					c0-0.1,0-0.1,0-0.2l-1.4-4.8l0,0l0,0l0,0l0,0l0,0l0.1,0l0,0l0,0l0,0l0,0l0,0l0,0l0,0l0,0l0,0l0,0l0,0c0.2-0.1,0.4-0.2,0.6-0.4
					c0,0,0.1-0.1,0.1-0.1c0,0,0.1-0.1,0.1-0.1l0,0l0,0l0,0l0,0l0,0l0,0l0,0l0,0l0,0c0,0,0,0,0,0l0,0l0,0l0,0l0,0l0,0l0,0l0,0
					c0.1-0.1,0.2-0.2,0.3-0.3c0,0,0,0,0-0.1c0,0,0,0,0-0.1l0,0l0,0l0,0l0,0l0,0l0,0l0,0l0,0l0,0l0,0l0,0l0-0.1l0,0l0,0l0-0.1l0,0
					l0,0l0,0l0-0.1l0,0l0,0l0,0l0,0l0,0l0,0l0,0c0-0.1,0.1-0.2,0.1-0.3l0-0.1l0,0h0l0,0l0,0l0,0l0,0l0,0l0,0h0l0,0c0,0,0,0,0-0.1
					l0,0l0,0l0,0l0,0l0,0l0-0.1l0-0.1l0-0.1l0,0l0-0.1l0,0l0,0l0-0.1l0-0.1l0-0.1c0,0,0,0,0-0.1l0,0h0l0,0c0,0,0-0.1,0-0.1l0,0
					l0-0.1l0-0.1l0-0.1l0-0.1l0,0l0,0l0-0.1l0,0l0-0.1l0,0c0,0,0,0,0-0.1l0-0.1l0-0.1l0,0l0-0.1l0-0.1l0-0.1l0-0.1l0-0.1l0-0.1
					l0-0.1l0-0.1l0,0l0,0l0,0l0,0l0,0l0-0.1l0,0l0-0.1l0-0.1l0-0.1l0-0.1l0,0l0-0.1l0-0.1l0,0l0,0l0-0.1l0-0.1l0-0.1l0-0.1l0,0
					c0-0.1-0.1-0.1-0.1-0.2l0-0.1l0-0.1l0,0l0,0l0,0l0-0.1l0-0.1l0,0l0,0c0,0-0.1-0.1-0.1-0.1l0,0l0,0v0l0,0l0,0l0,0l0,0
					c0,0,0,0,0-0.1l0,0l0,0l0,0l0,0l0,0l0,0l0,0l0,0l0,0l0,0l0,0l0,0l0,0l0,0l0,0l0,0l0,0L43.8,128.6z"/>
				<path class="st9" d="M34,125.6l-6.1,6.4c0,0.1-0.1,0.1-0.1,0.2c0,0,0,0.1,0,0.1c0,0,0,0.1,0.1,0.1c0,0,0.1,0.1,0.2,0.1l4.9,1.2
					l0,0l0,0l0,0l0,0.1l0,0l0,0l0,0l0,0l0,0.1l0,0.1l0,0l0,0.1l0,0.1l0,0l0,0.1l0,0.1l0,0c0,0.2,0,0.5,0,0.7c0,0,0,0.1,0,0.1
					c0,0,0,0.1,0,0.1l0,0l0,0l0,0.1l0,0l0,0l0,0l0,0l0,0l0,0l0,0c0,0,0,0,0,0.1l0,0l0,0l0,0l0,0l0,0l0,0l0,0l0,0l0,0
					c0,0.1,0.1,0.3,0.2,0.4c0,0,0,0.1,0,0.1c0,0,0,0.1,0,0.1l0,0l0,0l0,0l0,0l0,0l0,0l0,0l0,0l0,0l0,0l0,0l0,0l0,0l0,0l0,0l0,0l0,0
					l0,0.1l0,0l0,0l0,0l0,0l0,0l0,0l0,0l0,0l0,0l0,0c0.1,0.1,0.1,0.1,0.2,0.2l0,0l0,0h0l0,0l0,0l0,0l0,0l0,0l0,0l0,0l0,0
					c0,0,0,0,0,0l0,0l0,0l0,0l0,0l0,0l0,0l0,0l0,0l0,0l0,0l0,0l0,0l0.1,0.1c0,0,0,0,0,0c0,0,0,0,0,0l0,0h0l0,0c0,0,0.1,0,0.1,0l0,0
					l0,0l0,0l0,0l0,0l0,0l0,0l0,0l0,0l0,0l0.1,0l0,0c0,0,0,0,0.1,0l0,0l0.1,0l0,0l0.1,0l0,0l0.1,0l0,0l0.1,0l0.1,0l0.1,0l0.1,0l0,0
					l0,0l0,0l0,0l0,0l0.1,0l0,0l0,0l0.1,0l0.1,0l0.1,0l0.1,0h0l0.1,0l0.1,0h0h0l0.1,0l0.1,0l0.1,0l0.1,0h0c0.1,0,0.2,0,0.2,0l0.1,0
					l0.1,0h0h0h0l0.1,0l0.1,0l0,0l0,0c0.1,0,0.1,0,0.2,0h0l0,0l0,0h0l0.1,0l0.1,0h0c0,0,0.1,0,0.1,0h0l0,0l0,0h0l0.1,0l0.1,0h0
					l0.1,0l0.1,0h0h0l0.1,0l0.1,0l0,0l0.1,0l0.1,0l0,0l0,0l0,0l1.1,3.6l-0.1,0l-12.1-3c-0.7-0.2-1.3-0.7-1.5-1.4l0,0l-2-6.8
					c-0.1-0.2-0.1-0.3,0-0.4c0-0.1,0.1-0.3,0.2-0.4l5-5.2c0.5-0.5,1.2-0.7,1.9-0.5L34,125.6z"/>
				<path class="st9" d="M35,137c-1.5-1.4-1.5-3.8-0.1-5.2c1.4-1.5,3.8-1.5,5.2-0.1c1.5,1.4,1.5,3.8,0.1,5.2
					C38.9,138.3,36.5,138.4,35,137z"/>
				<path class="st18" d="M11.8,128.6l-2.9,3l-0.4-0.4l2.2-2.3l-3.2,1.3L7.2,130l1.2-3.2L6.2,129l-0.4-0.4l2.9-3l0.4,0.4l-1.3,3.6
					l3.5-1.4L11.8,128.6z M14.3,134.3c-0.1,0.1-0.2,0.2-0.2,0.2l-1.9-1.8c-0.2,0.3-0.3,0.5-0.3,0.8c0,0.3,0.1,0.5,0.3,0.7
					c0.2,0.2,0.4,0.3,0.5,0.3c0.2,0,0.4,0,0.6-0.1l0.4,0.4c-0.3,0.2-0.6,0.2-0.9,0.2c-0.3,0-0.6-0.2-0.9-0.5
					c-0.2-0.2-0.4-0.5-0.5-0.7c-0.1-0.3-0.1-0.6,0-0.8c0.1-0.3,0.2-0.6,0.5-0.8c0.2-0.2,0.5-0.4,0.8-0.5c0.3-0.1,0.6-0.1,0.8,0
					c0.3,0.1,0.5,0.2,0.8,0.4c0.2,0.2,0.4,0.5,0.5,0.7c0.1,0.3,0.1,0.5,0,0.8C14.6,133.8,14.5,134,14.3,134.3z M13.9,133.8
					c0.1-0.2,0.2-0.3,0.3-0.5c0-0.2,0-0.3,0-0.5c-0.1-0.2-0.2-0.3-0.3-0.5c-0.2-0.2-0.4-0.3-0.7-0.3c-0.3,0-0.5,0.1-0.8,0.3
					L13.9,133.8z M18.3,134.4l-3.1,3.2l-0.4-0.4l3.1-3.2L18.3,134.4z M20.6,136.6l-3.1,3.2l-0.4-0.4l3.1-3.2L20.6,136.6z
					 M20.4,140.3c0.2-0.2,0.5-0.4,0.8-0.5c0.3-0.1,0.6-0.1,0.8,0c0.3,0.1,0.5,0.2,0.7,0.4c0.2,0.2,0.3,0.4,0.4,0.7
					c0.1,0.2,0.1,0.5,0,0.7l0.4-0.4l0.4,0.4l-2.3,2.4l-0.4-0.4l0.4-0.4c-0.2,0.1-0.4,0.1-0.7,0c-0.2-0.1-0.5-0.2-0.7-0.4
					c-0.2-0.2-0.4-0.4-0.4-0.7c-0.1-0.3-0.1-0.6,0-0.8C20,140.8,20.2,140.6,20.4,140.3z M22.4,142.3c0.2-0.2,0.3-0.4,0.3-0.6
					c0.1-0.2,0.1-0.4,0-0.6c-0.1-0.2-0.2-0.4-0.3-0.5c-0.1-0.1-0.3-0.2-0.5-0.3s-0.4,0-0.6,0c-0.2,0.1-0.4,0.2-0.6,0.4
					c-0.2,0.2-0.3,0.4-0.4,0.6c-0.1,0.2-0.1,0.4,0,0.6c0.1,0.2,0.2,0.4,0.3,0.5c0.1,0.1,0.3,0.2,0.5,0.3c0.2,0,0.4,0,0.6,0
					C22.1,142.6,22.3,142.5,22.4,142.3z M26.1,144.1l-1.4,1.4c-0.1,0.1-0.2,0.2-0.2,0.3c0,0.1,0.1,0.2,0.2,0.3l0.3,0.3l-0.3,0.3
					l-0.4-0.3c-0.2-0.2-0.3-0.4-0.4-0.6c0-0.2,0.1-0.4,0.3-0.7l1.4-1.4l-0.3-0.3l0.3-0.3l0.3,0.3l0.6-0.6l0.4,0.4l-0.6,0.6l0.6,0.6
					l-0.3,0.3L26.1,144.1z M32.7,148.6c0.3,0.3,0.6,0.7,0.7,1c0.1,0.4,0.1,0.7,0.1,1.1c-0.1,0.4-0.3,0.7-0.6,1
					c-0.3,0.3-0.6,0.5-1,0.6c-0.3,0.1-0.7,0.1-1.1,0c-0.4-0.1-0.7-0.3-1-0.7l-1-0.9l2.9-3.1L32.7,148.6z M30.1,151.3
					c0.4,0.4,0.8,0.6,1.2,0.6c0.4,0,0.8-0.2,1.2-0.6c0.4-0.4,0.5-0.8,0.5-1.2c0-0.4-0.2-0.8-0.6-1.2l-0.6-0.5l-2.3,2.4L30.1,151.3z
					 M36.6,155.7c-0.1,0.1-0.2,0.2-0.2,0.2l-1.9-1.8c-0.2,0.3-0.3,0.5-0.3,0.8c0,0.3,0.1,0.5,0.3,0.7c0.2,0.2,0.4,0.3,0.5,0.3
					c0.2,0,0.4,0,0.6-0.1l0.4,0.4c-0.3,0.2-0.6,0.2-0.9,0.2c-0.3,0-0.6-0.2-0.9-0.5c-0.2-0.2-0.4-0.5-0.5-0.7
					c-0.1-0.3-0.1-0.6,0-0.8c0.1-0.3,0.2-0.6,0.5-0.8c0.2-0.2,0.5-0.4,0.8-0.5c0.3-0.1,0.6-0.1,0.8,0c0.3,0.1,0.5,0.2,0.8,0.4
					c0.2,0.2,0.4,0.5,0.5,0.7c0.1,0.3,0.1,0.5,0,0.8C36.9,155.3,36.8,155.5,36.6,155.7z M36.2,155.3c0.1-0.2,0.2-0.3,0.3-0.5
					c0-0.2,0-0.3,0-0.5c-0.1-0.2-0.2-0.3-0.3-0.5c-0.2-0.2-0.4-0.3-0.7-0.3c-0.3,0-0.5,0.1-0.8,0.3L36.2,155.3z M39.4,157.1
					c0.2-0.1,0.5-0.1,0.7,0c0.2,0.1,0.5,0.2,0.7,0.4c0.2,0.2,0.4,0.4,0.4,0.7c0.1,0.3,0.1,0.5,0,0.8c-0.1,0.3-0.2,0.5-0.5,0.8
					c-0.2,0.2-0.5,0.4-0.8,0.5c-0.3,0.1-0.6,0.1-0.8,0c-0.3-0.1-0.5-0.2-0.7-0.4c-0.2-0.2-0.3-0.4-0.4-0.7c-0.1-0.2-0.1-0.5,0-0.7
					l-0.4,0.4l-0.4-0.4l3.1-3.2l0.4,0.4L39.4,157.1z M40.3,159.5c0.2-0.2,0.3-0.4,0.3-0.6c0.1-0.2,0.1-0.4,0-0.6
					c-0.1-0.2-0.2-0.4-0.3-0.5c-0.1-0.1-0.3-0.2-0.5-0.3c-0.2,0-0.4,0-0.6,0c-0.2,0.1-0.4,0.2-0.6,0.4c-0.2,0.2-0.3,0.4-0.4,0.6
					c-0.1,0.2-0.1,0.4,0,0.6c0.1,0.2,0.2,0.4,0.3,0.5c0.1,0.1,0.3,0.2,0.5,0.3c0.2,0,0.4,0,0.6,0C39.9,159.8,40.1,159.6,40.3,159.5z
					 M44.2,160.2c-0.1-0.1-0.1-0.2-0.1-0.3c0-0.1,0-0.2,0.1-0.3c0.1-0.1,0.2-0.1,0.3-0.1c0.1,0,0.2,0,0.3,0.1
					c0.1,0.1,0.1,0.2,0.1,0.3c0,0.1,0,0.2-0.1,0.3c-0.1,0.1-0.2,0.1-0.3,0.1C44.3,160.3,44.2,160.2,44.2,160.2z M44,160.7l-2.3,2.4
					l-0.4-0.4l2.3-2.4L44,160.7z M46.1,163.4l-1.4,1.4c-0.1,0.1-0.2,0.2-0.2,0.3c0,0.1,0.1,0.2,0.2,0.3l0.3,0.3l-0.3,0.3l-0.4-0.3
					c-0.2-0.2-0.3-0.4-0.4-0.6c0-0.2,0.1-0.4,0.3-0.7l1.4-1.4l-0.3-0.3l0.3-0.3l0.3,0.3l0.6-0.6l0.4,0.4l-0.6,0.6l0.6,0.6l-0.3,0.3
					L46.1,163.4z"/>
			</g>
		</g>
		<path class="st18" d="M185.7,34c-0.5,0-1-0.1-1.4-0.3c-0.4-0.2-0.8-0.5-1.1-0.9c-0.9,0.9-2,1.3-3.3,1.3c-1.5,0-2.8-0.5-4.1-1.4
			l1-1.9c0.4,0.2,0.8,0.4,1.3,0.6c0.5,0.2,1,0.2,1.6,0.2c0.9,0,1.8-0.2,2.5-0.7l-2.5-5.6l1.9-1l2.5,5.8c0.2,0.5,0.4,0.8,0.7,1
			c0.3,0.2,0.6,0.3,1.1,0.3h0.2l0.1,1.3l-0.1,1.3H185.7z M185.7,31.3h0.9c1.2,0,2-0.1,2.5-0.3c0.5-0.2,0.7-0.5,0.7-0.9
			c0-0.3-0.2-0.8-0.4-1.5c-0.3-0.8-0.5-1.3-0.6-1.5l1.9-1c0.2,0.5,0.5,1.2,0.7,2c0.2,0.8,0.4,1.6,0.4,2.2c0,1.2-0.4,2.2-1.2,2.8
			c-0.8,0.6-2,1-3.6,1h-1.3L185.7,31.3z M189.1,38.6l-1.5-1.5l1.5-1.5l0.5,0.5l1,1L189.1,38.6z M185.9,38.6l-1.5-1.5l1.5-1.5
			l0.5,0.5l1,1L185.9,38.6z M202.9,34c-0.5,0-1-0.1-1.4-0.3c-0.4-0.2-0.8-0.5-1.1-0.9c-0.9,0.9-2,1.3-3.3,1.3
			c-1.5,0-2.8-0.5-4.1-1.4l1-1.9c0.4,0.2,0.8,0.4,1.3,0.6c0.5,0.2,1,0.2,1.6,0.2c0.9,0,1.8-0.2,2.5-0.7l-2.5-5.6l1.9-1l2.5,5.8
			c0.2,0.5,0.4,0.8,0.7,1c0.3,0.2,0.6,0.3,1.1,0.3h0.2l0.1,1.3l-0.1,1.3H202.9z M202.9,31.3h1.4c1.4,0,2.6-0.1,3.8-0.4
			c1.2-0.3,2.4-0.8,3.8-1.4c-0.3-0.1-0.8-0.3-1.3-0.6c-1.1-0.5-2-0.8-2.8-0.8c-0.5,0-0.9,0.1-1.2,0.4c-0.3,0.2-0.6,0.5-0.8,0.8
			l-1.5-1.1c0.9-1.8,2.1-2.7,3.6-2.7c0.5,0,1,0.1,1.5,0.3c0.5,0.2,1.2,0.5,2.1,0.9c0.7,0.4,1.3,0.6,1.8,0.8c0.5,0.2,1,0.3,1.6,0.5
			l0.1,2.4c-0.3,0.1-1,0.4-1.9,0.9c-0.1,0-0.1,0.1-0.2,0.1c-0.1,0-0.1,0-0.2,0.1c-1.2,0.6-2.2,1.1-3.1,1.5c-0.9,0.3-1.8,0.6-2.7,0.8
			c-0.9,0.2-1.9,0.3-3.1,0.3h-0.8V31.3z M209.1,35.4c0.4,0.4,0.7,0.7,1.1,1.1l0.6,0.6l-1.7,1.7l-1.7-1.7L209.1,35.4z M226.7,34.2
			c-2.1,0-3.7-0.3-4.9-1s-1.9-1.6-2-2.7c0-0.1,0-0.2,0-0.4c0-0.5,0.1-1.1,0.2-1.7c0.1-0.6,0.3-1.1,0.5-1.6l1.7,0.8
			c-0.3,1.1-0.5,1.9-0.5,2.4c0.1,0.5,0.6,0.8,1.4,1.1c0.9,0.3,2.1,0.4,3.6,0.5c1.1,0,2-0.1,2.8-0.2c0.8-0.1,1.3-0.3,1.7-0.4
			c0.4-0.2,0.6-0.3,0.6-0.4c-0.1-0.6-0.3-1.2-0.5-1.9c-0.2-0.7-0.4-1.2-0.6-1.6l1.9-1c0.3,0.6,0.5,1.4,0.8,2.2
			c0.2,0.8,0.3,1.5,0.3,2.2c0,1.2-0.6,2.2-1.9,2.8c-1.3,0.6-2.9,1-5,1H226.7L226.7,34.2z M225.2,24.9l1.5,1.5l-1.5,1.5l-1-1
			l-0.5-0.5L225.2,24.9z M228.4,24.9l1.5,1.5l-1.5,1.5l-1-1l-0.5-0.5L228.4,24.9z M233,37c0.8-0.3,1.5-0.7,2.2-1.1
			c0.7-0.4,1.2-0.8,1.5-1.3c0.4-0.4,0.6-0.8,0.6-1.1c0-0.5-0.3-1.8-1-4l-0.1-0.4l2-0.8c0.3,0.8,0.5,1.7,0.7,2.7
			c0.2,0.9,0.3,1.8,0.3,2.5c0,1.2-0.5,2.3-1.4,3.3c-0.9,1-2.2,1.8-3.7,2.5L233,37z M244.9,34c-1.3,0-2.3-0.4-2.9-1.1
			c-0.6-0.8-0.9-1.9-0.9-3.5c0-1.5-0.1-3-0.1-4.5c-0.1-1.5-0.2-2.8-0.3-3.8l2.2-0.5c0.1,0.9,0.2,2.1,0.3,3.6
			c0.1,1.5,0.1,2.9,0.1,4.1v0.7c0,0.6,0,1.1,0.1,1.4c0.1,0.3,0.2,0.5,0.4,0.7c0.2,0.1,0.6,0.2,1,0.2h0.1l0.1,1.3L244.9,34L244.9,34z
			 M244.8,31.3h0.6c1,0,1.9-0.1,2.5-0.2c0.7-0.2,1.1-0.4,1.3-0.7c-0.1-0.6-0.5-1.3-1.1-2.1c-0.6-0.8-1.5-1.7-2.7-2.6l0.3-2.3
			l6.7-2.8l0.7,2.1l-5.2,2.2c0.4,0.3,0.8,0.8,1.4,1.4c0.5,0.6,1,1.2,1.4,2c0.4,0.7,0.6,1.4,0.6,2.1c0,0.2,0,0.4-0.1,0.7
			c-0.2,1-0.9,1.7-1.9,2.2c-1,0.5-2.3,0.7-3.9,0.7h-0.6V31.3z M259.7,34c-0.6,0-1-0.2-1.4-0.6c-0.4-0.4-0.5-0.9-0.5-1.5
			c0-0.7,0.2-1.5,0.7-2.3c0.5-0.8,1.1-1.4,1.8-1.9l1,1c-0.9,0.7-1.5,1.4-1.8,2.1c0,0,0.1,0,0.1,0c0.1,0,0.1,0,0.2,0
			c0.4,0,0.8,0.2,1.1,0.5c0.3,0.3,0.4,0.7,0.4,1.1s-0.2,0.8-0.5,1.1S260.1,34,259.7,34z M276.4,34c-0.5,0-1-0.1-1.4-0.3
			c-0.4-0.2-0.8-0.5-1.1-0.9c-0.9,0.9-2,1.3-3.3,1.3c-1.5,0-2.8-0.5-4.1-1.4l1-1.9c0.4,0.2,0.8,0.4,1.3,0.6c0.5,0.2,1,0.2,1.6,0.2
			c0.9,0,1.8-0.2,2.5-0.7l-2.5-5.6l1.9-1l2.5,5.8c0.2,0.5,0.4,0.8,0.7,1c0.3,0.2,0.6,0.3,1.1,0.3h0.2l0.1,1.3l-0.1,1.3H276.4z
			 M276.4,31.3h0.9c1.2,0,2-0.1,2.5-0.3c0.5-0.2,0.7-0.5,0.7-0.9c0-0.3-0.1-0.8-0.4-1.5c-0.3-0.8-0.5-1.3-0.6-1.5l1.9-1
			c0.2,0.5,0.5,1.2,0.7,2c0.2,0.8,0.4,1.6,0.4,2.2c0,1.2-0.4,2.2-1.2,2.8c-0.8,0.6-2,1-3.6,1h-1.3L276.4,31.3z M279.8,38.6l-1.5-1.5
			l1.5-1.5l0.5,0.5l1,1L279.8,38.6z M276.6,38.6l-1.5-1.5l1.5-1.5l0.5,0.5l1,1L276.6,38.6z M293.6,34c-0.5,0-1-0.1-1.4-0.3
			c-0.4-0.2-0.8-0.5-1.1-0.9c-0.9,0.9-2,1.3-3.3,1.3c-1.5,0-2.8-0.5-4.1-1.4l1-1.9c0.4,0.2,0.8,0.4,1.3,0.6c0.5,0.2,1,0.2,1.6,0.2
			c0.9,0,1.8-0.2,2.5-0.7l-2.5-5.6l1.9-1l2.5,5.8c0.2,0.5,0.4,0.8,0.7,1c0.3,0.2,0.6,0.3,1.1,0.3h0.2l0.1,1.3l-0.1,1.3H293.6z
			 M293.7,31.3h1.4c1.4,0,2.6-0.1,3.8-0.4c1.2-0.3,2.4-0.8,3.8-1.4c-0.3-0.1-0.8-0.3-1.3-0.6c-1.1-0.5-2-0.8-2.8-0.8
			c-0.5,0-0.9,0.1-1.2,0.4c-0.3,0.2-0.6,0.5-0.8,0.8l-1.5-1.1c0.9-1.8,2.1-2.7,3.6-2.7c0.5,0,1,0.1,1.5,0.3c0.5,0.2,1.2,0.5,2.1,0.9
			c0.7,0.4,1.3,0.6,1.8,0.8c0.5,0.2,1,0.3,1.6,0.5l0.1,2.4c-0.3,0.1-1,0.4-1.9,0.9c-0.1,0-0.1,0.1-0.2,0.1c-0.1,0-0.1,0-0.2,0.1
			c-1.2,0.6-2.2,1.1-3.1,1.5c-0.9,0.3-1.8,0.6-2.7,0.8c-0.9,0.2-1.9,0.3-3.1,0.3h-0.8V31.3z M299.8,35.4c0.4,0.4,0.7,0.7,1.1,1.1
			l0.6,0.6l-1.7,1.7l-1.7-1.7L299.8,35.4z M315.9,38.7c-1,0-1.8-0.2-2.6-0.6c-0.8-0.4-1.4-0.9-1.9-1.7c-0.5-0.7-0.7-1.6-0.7-2.5
			c0-0.7,0.1-1.5,0.4-2.3c0.3-0.9,0.5-1.6,0.9-2.3l1.7,0.8c-0.3,0.7-0.6,1.3-0.7,1.9c-0.2,0.5-0.2,1-0.2,1.6c0,0.7,0.3,1.4,0.9,1.8
			c0.6,0.5,1.4,0.7,2.4,0.7c1.2,0,2.1-0.3,2.8-0.9c0.6-0.6,0.9-1.6,0.9-2.8c-0.1-2.1-0.2-4.2-0.3-6.2c-0.2-2.1-0.3-3.7-0.5-4.9
			l2.2-0.5c0.2,1.5,0.4,5.4,0.5,11.4c0,1.4-0.2,2.5-0.6,3.5c-0.4,1-1.1,1.7-1.9,2.3C318.1,38.4,317.1,38.7,315.9,38.7z M327.3,34
			c-1.3,0-2.3-0.4-2.9-1.1c-0.6-0.8-0.9-1.9-0.9-3.5c0-1.5-0.1-3-0.1-4.5c-0.1-1.5-0.2-2.8-0.3-3.8l2.2-0.5c0.1,0.9,0.2,2.1,0.3,3.6
			c0.1,1.5,0.1,2.9,0.1,4.1v0.7c0,0.6,0,1.1,0.1,1.4c0.1,0.3,0.2,0.5,0.4,0.7c0.2,0.1,0.6,0.2,1,0.2h0.1l0.1,1.3L327.3,34L327.3,34z
			 M337.2,34c-0.6,0-1-0.2-1.4-0.4c-0.4-0.3-0.7-0.6-0.9-1.1c-0.7,1-1.5,1.5-2.4,1.5h-0.1c-0.5,0-1-0.1-1.3-0.4
			c-0.4-0.3-0.7-0.6-0.8-1.1c-0.4,0.5-0.8,0.9-1.3,1.1c-0.5,0.3-1,0.4-1.6,0.4h-0.1l-0.1-1.3l0.1-1.3h0.1c0.4,0,0.7-0.1,1.1-0.2
			c0.4-0.2,0.6-0.4,0.8-0.6c0.3-0.3,0.4-0.6,0.6-1c0.1-0.4,0.3-0.7,0.4-1.2l1.9,0.2c0,0.1-0.1,0.3-0.2,0.7c-0.1,0.4-0.2,0.8-0.2,1.1
			c0,0.6,0.3,0.9,0.8,0.9h0c0.6,0,1.1-0.3,1.4-1c0.3-0.6,0.5-1.3,0.6-2.1l1.9,0.1c0,0.2-0.1,0.5-0.1,0.8c0,0.3-0.1,0.6-0.1,0.9
			c0,0.9,0.4,1.3,1.1,1.3h0c0.4,0,0.6-0.1,0.8-0.3c0.2-0.2,0.3-0.5,0.3-0.8c0-0.3-0.1-0.8-0.4-1.5c-0.2-0.7-0.4-1.2-0.6-1.6l1.9-1
			c0.2,0.5,0.5,1.2,0.7,2c0.3,0.9,0.4,1.6,0.4,2.2c0,0.7-0.1,1.3-0.4,1.8c-0.3,0.6-0.6,1-1.1,1.3C338.4,33.8,337.9,34,337.2,34
			L337.2,34z"/>
		<path class="st18" d="M145,69.5c-0.4,0.2-0.9,0.4-1.5,0.6c-0.6,0.2-1.3,0.2-2,0.2c-0.7,0-1.4-0.1-2-0.4c-0.6-0.3-1.1-0.6-1.4-1.1
			c-0.3-0.5-0.5-1.1-0.5-1.7c0-1.3,0.7-2.4,2-3.3c-0.4-0.2-0.8-0.4-1.1-0.8c-0.3-0.4-0.4-0.8-0.4-1.3c0-0.4,0.1-0.8,0.3-1.1
			c0.2-0.4,0.5-0.7,0.8-0.9s0.7-0.4,1.1-0.4c0,0,0.1,0,0.2,0c0.3,0,0.7,0.1,1,0.2c0.4,0.1,0.7,0.3,1,0.6l-0.4,0.7
			c-0.3-0.2-0.5-0.3-0.8-0.3c-0.3-0.1-0.5-0.1-0.8-0.1c-0.3,0-0.6,0.1-0.8,0.2c-0.2,0.1-0.4,0.3-0.5,0.5c-0.1,0.2-0.2,0.4-0.2,0.7
			c0,0.2,0.1,0.5,0.2,0.7c0.2,0.2,0.4,0.4,0.6,0.5c0.2,0.1,0.5,0.2,0.8,0.2c0.1,0,0.2,0,0.4,0c0.6-0.2,1.2-0.4,1.8-0.6l0.2,1
			c-1.3,0.4-2.3,0.8-3.1,1.5c-0.8,0.6-1.2,1.3-1.3,2.2c0,0.4,0.1,0.8,0.4,1.2c0.3,0.3,0.6,0.6,1.1,0.8c0.5,0.2,1,0.3,1.7,0.3
			c0.5,0,1.1-0.1,1.6-0.2c0.5-0.1,1-0.2,1.4-0.4L145,69.5z M145.7,68.5c1.1-0.2,2-0.6,2.6-1c0.6-0.4,1-0.9,1.1-1.5
			c-0.9,0-1.6-0.1-2.1-0.2c-0.5-0.1-0.9-0.4-1.1-0.8c-0.1-0.3-0.2-0.6-0.2-0.9c0-0.4,0.1-0.8,0.3-1.2c0.2-0.4,0.4-0.8,0.7-1
			c0.3-0.3,0.6-0.4,1-0.4c0.4,0,0.8,0.2,1.1,0.5c0.3,0.3,0.6,0.8,0.8,1.3c0.2,0.5,0.3,1.1,0.4,1.7h0.4l0.1,0.5l-0.1,0.5h-0.5
			c-0.1,0.9-0.6,1.6-1.3,2.2c-0.7,0.6-1.7,1-2.9,1.3L145.7,68.5z M147,64.4c0.1,0.2,0.4,0.3,0.8,0.4c0.4,0.1,1,0.1,1.6,0.1
			c-0.1-0.6-0.3-1.2-0.5-1.7c-0.3-0.5-0.6-0.7-1-0.8c-0.2,0-0.3,0.1-0.5,0.2s-0.3,0.3-0.4,0.6c-0.1,0.2-0.2,0.5-0.2,0.7
			C146.9,64.1,146.9,64.3,147,64.4z M150.6,64.9L150.6,64.9c0.7,0,1.1-0.1,1.4-0.2c0.3-0.1,0.5-0.3,0.6-0.6c0-0.1,0.1-0.3,0.1-0.5
			s0-0.5-0.1-1l0-0.3l0.9-0.2c0.1,0.5,0.2,1.1,0.2,1.9c0.1,0.3,0.2,0.5,0.4,0.6c0.2,0.1,0.4,0.2,0.7,0.2h0.1l0.1,0.5l-0.1,0.5h-0.1
			c-0.3,0-0.6-0.1-0.9-0.3c-0.3-0.2-0.5-0.4-0.6-0.7c-0.2,0.3-0.5,0.6-0.9,0.7c-0.4,0.1-0.9,0.2-1.6,0.2h-0.1V64.9z M152.1,59.4
			l0.9,0.9l-0.9,0.9l-0.9-0.9L152.1,59.4z M154.6,64.9h0.1c0.6,0,1.1,0,1.4-0.1c0.3-0.1,0.6-0.1,0.8-0.3c0.2-0.1,0.3-0.3,0.3-0.5
			c0-0.1,0.1-0.3,0.1-0.5c0-0.3,0-0.7-0.1-1.3l0.9-0.2c0.1,0.5,0.1,1.1,0.2,1.9c0.1,0.6,0.5,0.9,1.1,0.9h0.1l0.1,0.5l-0.1,0.5h-0.1
			c-0.3,0-0.6-0.1-0.9-0.3c-0.3-0.2-0.5-0.4-0.6-0.7c-0.2,0.4-0.5,0.6-1,0.7c-0.5,0.1-1.2,0.2-2.1,0.2h-0.1V64.9z M155.8,59.5
			l0.9,0.9l-0.9,0.9l-0.9-0.9L155.8,59.5z M158,59.5l0.9,0.9l-0.9,0.9l-0.9-0.9L158,59.5z M159.3,64.9h0.2c0.3,0,0.6-0.1,0.9-0.3
			c0.3-0.2,0.5-0.5,0.7-0.8c0.3-0.7,0.7-1.2,1-1.6s0.8-0.6,1.2-0.6c0.4,0,0.8,0.1,1.1,0.3c0.3,0.2,0.5,0.5,0.7,0.9
			c0.2,0.4,0.3,0.8,0.3,1.2s-0.1,0.8-0.3,1.2c-0.2,0.3-0.4,0.6-0.7,0.8c-0.2,0.1-0.3,0.1-0.5,0.1c-0.6,0-1.4-0.3-2.4-1
			c-0.5,0.6-1.1,1-1.9,1h-0.2L159.3,64.9z M161.9,64.2c0.9,0.6,1.6,0.9,2,0.9c0.1,0,0.2,0,0.2,0c0.1-0.1,0.3-0.2,0.3-0.4
			c0.1-0.2,0.1-0.4,0.1-0.6c0-0.4-0.1-0.7-0.3-1.1c-0.2-0.3-0.4-0.5-0.8-0.5c-0.2,0-0.5,0.1-0.7,0.4
			C162.5,63.2,162.2,63.6,161.9,64.2z M173.5,68.8c-0.7,0-1.3-0.1-1.8-0.4c-0.5-0.3-0.9-0.6-1.2-1.1s-0.5-1.1-0.5-1.7
			c0-0.5,0.1-1,0.2-1.5s0.3-1,0.6-1.4l0.8,0.4c-0.4,0.9-0.7,1.8-0.7,2.5c0,0.8,0.2,1.3,0.7,1.7c0.4,0.4,1.1,0.6,1.9,0.6
			c0.6,0,1.1-0.1,1.5-0.3c0.4-0.2,0.8-0.4,1-0.6s0.4-0.5,0.5-0.8c0-0.1-0.1-0.1-0.3-0.2c-0.2-0.1-0.6-0.2-1.1-0.4
			c-0.6-0.2-1.1-0.4-1.3-0.6c-0.2-0.2-0.4-0.5-0.4-0.9c0-0.6,0.2-1.2,0.5-1.7s0.7-1,1.2-1.3c0.5-0.3,1-0.5,1.6-0.5
			c0.2,0,0.4,0,0.6,0.1c0.2,0,0.4,0.1,0.5,0.2l-0.3,0.9c-0.2-0.1-0.5-0.1-0.8-0.1c-0.4,0-0.8,0.1-1.1,0.3c-0.4,0.2-0.6,0.5-0.9,0.8
			c-0.2,0.3-0.3,0.6-0.3,0.9c0,0.2,0.1,0.3,0.3,0.4c0.2,0.1,0.5,0.2,1,0.4c0.5,0.2,0.9,0.3,1.1,0.4c0.3,0.1,0.4,0.2,0.5,0.4
			c0.1,0.1,0.1,0.3,0.1,0.5c0,0.5-0.2,1-0.5,1.4c-0.3,0.5-0.8,0.9-1.4,1.2C174.9,68.6,174.2,68.8,173.5,68.8z M181.5,66
			c-0.6,0-1-0.1-1.3-0.3c-0.3-0.2-0.5-0.5-0.7-0.9c-0.1-0.4-0.2-0.9-0.2-1.5c0-0.9,0-1.9-0.1-3.1c0-1.2-0.1-2-0.2-2.4l1-0.2
			c0.1,0.4,0.1,1.1,0.1,2.1c0,1,0.1,1.9,0.1,2.8v0.5l0,0.4c0,0.4,0,0.7,0.1,0.9c0.1,0.2,0.2,0.3,0.4,0.4c0.2,0.1,0.5,0.1,0.8,0.1
			h0.1l0.1,0.5L181.5,66L181.5,66z M181.5,64.9h0.2c0.6,0,1,0,1.5-0.1c-0.2-0.2-0.4-0.4-0.5-0.7c-0.1-0.2-0.2-0.5-0.2-0.8
			c0-0.4,0.1-0.7,0.3-1.1c0.2-0.4,0.4-0.7,0.7-0.9l-0.4-0.1l0.4-1c1.4,0.5,2.5,0.9,3.3,1.4c0.8,0.4,1.3,0.8,1.6,1.2
			c0.3,0.4,0.5,0.8,0.5,1.2c0,0.2,0,0.5-0.1,0.8c-0.1,0.4-0.4,0.7-0.8,0.9c-0.4,0.2-0.9,0.3-1.4,0.3c-0.7,0-1.3-0.1-1.9-0.4
			c-0.7,0.2-1.6,0.3-2.8,0.3h-0.2V64.9z M183.3,63.2c0,0.2,0.1,0.5,0.3,0.7c0.2,0.2,0.5,0.4,0.9,0.6c0.7-0.3,1.1-0.7,1.1-1.4
			c0-0.4-0.1-0.7-0.3-0.9c-0.2-0.3-0.4-0.4-0.7-0.4c-0.2,0-0.4,0.1-0.6,0.2c-0.2,0.1-0.3,0.3-0.5,0.5
			C183.4,62.8,183.3,63,183.3,63.2z M185.7,65c0.3,0.1,0.6,0.1,0.8,0.1c0.4,0,0.7-0.1,0.9-0.2c0.2-0.1,0.4-0.4,0.4-0.6
			c0-0.2-0.1-0.5-0.4-0.8c-0.2-0.3-0.6-0.6-1.2-0.8c0,0.2,0.1,0.4,0.1,0.6c0,0.1,0,0.2,0,0.3C186.3,64.1,186.1,64.6,185.7,65z
			 M200.3,66c-0.4,0-0.8-0.1-1.2-0.4c-0.4-0.2-0.7-0.6-1.1-1.2c-0.2,0.5-0.6,1-1.2,1.2c-0.6,0.3-1.4,0.4-2.4,0.4h-0.2h-0.1h0
			c-1.3,0-2.4-0.2-3.2-0.6c-0.8-0.4-1.2-1-1.2-1.7c0-0.1,0-0.2,0-0.3c0-0.3,0-0.7,0.1-1c0.1-0.4,0.2-0.7,0.3-1L191,62
			c-0.2,0.6-0.3,1.1-0.3,1.5c0,0.1,0,0.2,0,0.3c0.1,0.4,0.4,0.8,1,1c0.6,0.2,1.5,0.3,2.6,0.3h0.2c0.9,0,1.6-0.1,2.1-0.3
			c0.5-0.2,0.7-0.5,0.7-0.9c0-0.4-0.2-0.8-0.6-1.3c-0.4-0.5-1-1.1-1.9-1.7l0.1-1l4.4-1.9l0.3,0.9l-3.8,1.6c0.9,0.7,1.5,1.4,1.9,2.1
			c0.4,0.6,0.8,1.1,1,1.5c0.3,0.3,0.5,0.6,0.8,0.7c0.2,0.1,0.5,0.2,0.8,0.2h0.1l0.1,0.5l-0.1,0.5H200.3z M194.9,58.4l3.8-1.6
			l0.2,0.5l-4,1.7L194.9,58.4z M200.3,64.9h0.6c0.6,0,1.1-0.1,1.4-0.3c0.3-0.2,0.4-0.4,0.4-0.8c0-0.2-0.1-0.6-0.2-1.1
			c-0.2-0.5-0.3-0.9-0.4-1.1l0.9-0.5c0.2,0.3,0.3,0.8,0.5,1.3c0.2,0.5,0.2,1,0.2,1.4c0,0.7-0.2,1.2-0.7,1.6c-0.5,0.4-1.1,0.5-2,0.5
			h-0.6V64.9z M202.2,58.7l0.9,0.9l-0.9,0.9l-0.9-0.9L202.2,58.7z M203.4,68.5c0.5-0.2,1-0.4,1.4-0.7c0.4-0.3,0.7-0.6,1-0.9
			c0.2-0.3,0.4-0.6,0.4-0.9c0-0.4-0.2-1.4-0.6-3l0.9-0.3c0.2,0.6,0.3,1.2,0.4,1.8C207,65,207,65.6,207,66c0,0.5-0.1,0.9-0.4,1.4
			c-0.3,0.5-0.7,0.9-1.2,1.2c-0.5,0.4-1,0.7-1.7,0.9L203.4,68.5z M211.4,68.5c1.2-0.3,2-0.6,2.7-1c0.6-0.4,1-0.9,1.1-1.5
			c-0.3,0.1-0.6,0.1-0.9,0.1c-0.5,0-1-0.1-1.4-0.2c-0.4-0.2-0.7-0.4-0.9-0.8c-0.1-0.3-0.2-0.6-0.2-0.9c0-0.4,0.1-0.8,0.3-1.2
			c0.2-0.4,0.4-0.8,0.7-1c0.3-0.3,0.6-0.4,1-0.4c0.5,0,0.9,0.2,1.2,0.6s0.6,0.9,0.8,1.6c0.2,0.6,0.3,1.2,0.3,1.8
			c0,1-0.4,1.8-1.1,2.5c-0.8,0.7-1.8,1.2-3.2,1.5L211.4,68.5z M212.7,64.4c0.1,0.2,0.3,0.3,0.6,0.4c0.3,0.1,0.7,0.1,1.1,0.1
			c0.2,0,0.5,0,0.8-0.1c-0.1-0.6-0.3-1.2-0.5-1.7c-0.3-0.5-0.6-0.7-1-0.8c-0.2,0-0.3,0.1-0.5,0.2s-0.3,0.3-0.4,0.6
			c-0.1,0.2-0.2,0.5-0.2,0.7C212.6,64.1,212.6,64.3,212.7,64.4z M223.4,66c-0.6,0-1-0.1-1.3-0.3c-0.3-0.2-0.5-0.5-0.7-0.9
			c-0.1-0.4-0.2-0.9-0.2-1.5c0-0.9,0-1.9-0.1-3.1c0-1.2-0.1-2-0.2-2.4l1-0.2c0.1,0.4,0.1,1.1,0.1,2.1c0,1,0.1,1.9,0.1,2.8v0.5l0,0.4
			c0,0.4,0,0.7,0.1,0.9c0.1,0.2,0.2,0.3,0.4,0.4c0.2,0.1,0.5,0.1,0.8,0.1h0.1l0.1,0.5L223.4,66L223.4,66z M223.4,64.9h0.2
			c0.6,0,1,0,1.5-0.1c-0.2-0.2-0.4-0.4-0.5-0.7c-0.1-0.2-0.2-0.5-0.2-0.8c0-0.4,0.1-0.7,0.3-1.1c0.2-0.4,0.4-0.7,0.7-0.9l-0.4-0.1
			l0.4-1c1.4,0.5,2.5,0.9,3.3,1.4c0.8,0.4,1.3,0.8,1.6,1.2c0.3,0.4,0.5,0.8,0.5,1.2c0,0.2,0,0.5-0.1,0.8c-0.1,0.4-0.4,0.7-0.8,0.9
			c-0.4,0.2-0.9,0.3-1.4,0.3c-0.7,0-1.3-0.1-1.9-0.4c-0.7,0.2-1.6,0.3-2.8,0.3h-0.2V64.9z M225.2,63.2c0,0.2,0.1,0.5,0.3,0.7
			c0.2,0.2,0.5,0.4,0.9,0.6c0.7-0.3,1.1-0.7,1.1-1.4c0-0.4-0.1-0.7-0.3-0.9c-0.2-0.3-0.4-0.4-0.7-0.4c-0.2,0-0.4,0.1-0.6,0.2
			c-0.2,0.1-0.3,0.3-0.5,0.5C225.2,62.8,225.2,63,225.2,63.2z M227.6,65c0.3,0.1,0.6,0.1,0.8,0.1c0.4,0,0.7-0.1,0.9-0.2
			c0.2-0.1,0.4-0.4,0.4-0.6c0-0.2-0.1-0.5-0.4-0.8c-0.2-0.3-0.6-0.6-1.2-0.8c0,0.2,0.1,0.4,0.1,0.6c0,0.1,0,0.2,0,0.3
			C228.2,64.1,227.9,64.6,227.6,65z M235.5,70.3c-0.7,0-1.4-0.1-2-0.4c-0.6-0.3-1.1-0.6-1.4-1.1c-0.3-0.5-0.5-1.1-0.5-1.7
			c0-0.8,0.2-1.5,0.7-2.2c0.5-0.6,1.2-1.1,2.1-1.5c0.9-0.4,2-0.6,3.2-0.6l-0.7-0.4c-0.6-0.4-1-0.7-1.4-0.8c-0.4-0.2-0.7-0.3-1.1-0.3
			c-0.3,0-0.7,0.1-0.9,0.3c-0.3,0.2-0.5,0.4-0.6,0.7l-0.6-0.4c0.3-0.5,0.6-0.9,1-1.2c0.4-0.3,0.8-0.4,1.3-0.4c0.4,0,0.9,0.1,1.3,0.3
			c0.4,0.2,1,0.6,1.6,1c0.4,0.3,0.7,0.5,0.9,0.7c0.2,0.1,0.5,0.3,0.7,0.3l-0.1,1c-1.3,0-2.4,0.1-3.3,0.4c-0.9,0.3-1.7,0.7-2.2,1.2
			c-0.5,0.5-0.8,1.1-0.8,1.7c0,0.4,0.1,0.8,0.4,1.2s0.6,0.6,1.1,0.8c0.5,0.2,1,0.3,1.7,0.3c0.6,0,1.2-0.1,1.7-0.2
			c0.5-0.1,0.9-0.2,1.2-0.4l0.4,0.8C238,70,236.8,70.3,235.5,70.3z M243.8,66c-0.3,0-0.6-0.1-0.8-0.2V66c0,0.5-0.1,0.9-0.4,1.4
			c-0.3,0.5-0.7,0.9-1.2,1.2c-0.5,0.4-1,0.7-1.7,0.9l-0.4-0.9c0.5-0.2,1-0.4,1.4-0.7c0.4-0.3,0.7-0.6,1-0.9c0.2-0.3,0.4-0.6,0.4-0.9
			c0-0.4-0.2-1.4-0.6-3l0.9-0.3c0.1,0.4,0.2,0.8,0.3,1.2c0.1,0.4,0.3,0.7,0.4,0.9c0.2,0.2,0.4,0.2,0.7,0.2h0.1l0.1,0.5L243.8,66
			L243.8,66z M244.9,64.9c0.3-0.5,0.6-1,0.9-1.4c0-0.4,0-0.7,0-0.9c0-0.8,0-1.7-0.1-2.7c-0.1-1-0.1-1.7-0.2-2.1l1-0.2
			c0.1,0.4,0.1,0.9,0.2,1.7c0.1,0.8,0.1,1.6,0.1,2.3c0,0.3,0,0.6,0,0.7c0.4-0.5,0.9-0.8,1.4-1s0.9-0.4,1.4-0.4
			c0.4,0,0.8,0.1,1.1,0.3c0.3,0.2,0.6,0.4,0.8,0.7c0.2,0.3,0.3,0.7,0.3,1c0,0.6-0.2,1.1-0.6,1.6c-0.4,0.4-1,0.8-1.7,1
			c-0.7,0.2-1.5,0.4-2.4,0.4h-3.3v-1.1H244.9z M246.9,64.9c0.8,0,1.4-0.1,2-0.3c0.6-0.2,1-0.4,1.4-0.7c0.3-0.3,0.5-0.6,0.5-0.9
			c0-0.3-0.1-0.5-0.3-0.7c-0.2-0.2-0.5-0.3-0.9-0.3c-0.6,0-1.2,0.3-1.8,0.8c-0.6,0.5-1.2,1.2-1.8,2.1H246.9z M255.7,68.5
			c0.5-0.2,1-0.4,1.4-0.7c0.4-0.3,0.7-0.6,1-0.9c0.2-0.3,0.4-0.6,0.4-0.9c0-0.4-0.2-1.4-0.6-3l0.9-0.3c0.2,0.6,0.3,1.2,0.4,1.8
			c0.1,0.6,0.2,1.1,0.2,1.5c0,0.5-0.1,0.9-0.4,1.4c-0.3,0.5-0.7,0.9-1.2,1.2c-0.5,0.4-1,0.7-1.7,0.9L255.7,68.5z M262.9,66
			c-0.6,0-1.2-0.1-1.6-0.3c-0.4-0.2-0.8-0.4-1.1-0.6l0.5-0.8c0,0,0.1,0.1,0.3,0.2c0.2,0.1,0.5,0.2,0.8,0.3c0.3,0.1,0.7,0.1,1,0.1
			c0.4,0,0.8-0.1,1.1-0.2c0.3-0.1,0.5-0.3,0.5-0.4c0-0.1,0.1-0.2,0.1-0.3c0-0.4-0.2-0.8-0.6-1.4c-0.4-0.6-1-1.1-1.9-1.8l0.5-0.9
			c0.9,0.7,1.6,1.4,2.1,2.1c0.5,0.7,0.8,1.4,0.8,2c0,0.3-0.1,0.5-0.2,0.8c-0.2,0.4-0.4,0.7-0.9,0.9C263.9,65.9,263.4,66,262.9,66z
			 M274.4,66.1c-1.4,0-2.4-0.2-3.2-0.6c-0.8-0.4-1.2-1-1.3-1.7c0-0.1,0-0.2,0-0.3c0-0.3,0-0.7,0.1-1c0.1-0.4,0.2-0.7,0.3-1l0.8,0.4
			c-0.2,0.6-0.3,1.1-0.3,1.5c0,0.1,0,0.2,0,0.3c0.1,0.4,0.4,0.8,1,1s1.4,0.4,2.6,0.4c0.7,0,1.4-0.1,1.9-0.2c0.5-0.1,0.9-0.2,1.2-0.4
			s0.4-0.3,0.5-0.4c0-0.3-0.1-0.7-0.3-1.2c-0.2-0.5-0.3-0.9-0.4-1.2l0.9-0.5c0.2,0.4,0.3,0.9,0.5,1.4c0.2,0.6,0.2,1,0.2,1.4
			c0,0.4-0.2,0.8-0.6,1.1c-0.4,0.3-0.9,0.6-1.6,0.7C276,66,275.3,66.1,274.4,66.1z M273.3,60.5l0.9,0.9l-0.9,0.9l-0.9-0.9
			L273.3,60.5z M275.4,60.5l0.9,0.9l-0.9,0.9l-0.9-0.9L275.4,60.5z M278.5,68.5c0.5-0.2,1-0.4,1.4-0.7c0.4-0.3,0.7-0.6,1-0.9
			c0.2-0.3,0.4-0.6,0.4-0.9c0-0.4-0.2-1.4-0.6-3l0.9-0.3c0.2,0.6,0.3,1.2,0.4,1.8c0.1,0.6,0.2,1.1,0.2,1.5c0,0.5-0.1,0.9-0.4,1.4
			c-0.3,0.5-0.7,0.9-1.2,1.2c-0.5,0.4-1,0.7-1.7,0.9L278.5,68.5z M285.9,66c-0.6,0-1-0.1-1.3-0.3c-0.3-0.2-0.5-0.5-0.7-0.9
			c-0.1-0.4-0.2-0.9-0.2-1.5c0-0.9,0-1.9-0.1-3.1c0-1.2-0.1-2-0.2-2.4l1-0.2c0.1,0.4,0.1,1.1,0.1,2.1c0,1,0.1,1.9,0.1,2.8v0.5l0,0.4
			c0,0.4,0,0.7,0.1,0.9c0.1,0.2,0.2,0.3,0.4,0.4c0.2,0.1,0.5,0.1,0.8,0.1h0.1l0.1,0.5L285.9,66L285.9,66z M285.7,64.9h0.3
			c1.9,0,2.9-0.4,2.9-1.2c0-0.4-0.2-0.9-0.7-1.5c-0.4-0.6-1.1-1.2-1.9-1.9l0.1-1l4.4-1.9l0.3,0.9l-3.8,1.6c0.6,0.5,1.2,1.2,1.7,1.9
			c0.5,0.7,0.7,1.4,0.7,2c0,0.2,0,0.4-0.1,0.6c-0.2,0.5-0.6,0.9-1.2,1.2c-0.6,0.3-1.5,0.4-2.5,0.4h-0.3V64.9z M298.7,69.3
			c-0.7,0-1.3-0.1-1.8-0.4c-0.5-0.3-0.9-0.6-1.2-1.1c-0.3-0.5-0.5-1.1-0.5-1.7c0-0.5,0.1-1,0.2-1.5c0.2-0.5,0.3-1,0.6-1.4l0.8,0.4
			c-0.4,0.9-0.7,1.8-0.7,2.5c0,0.8,0.2,1.3,0.7,1.7s1.1,0.6,1.9,0.6c0.5,0,0.9-0.1,1.4-0.2c0.4-0.1,0.8-0.3,1.1-0.5
			c0.3-0.2,0.4-0.3,0.5-0.5c0-0.1-0.2-0.2-0.4-0.4c-0.2-0.2-0.5-0.4-0.9-0.6s-0.7-0.4-1.1-0.5l0.2-1c1.2,0.3,2.3,0.4,3.1,0.4h0.3
			l0.1,0.5l-0.1,0.5h-0.3c-0.4,0-0.7,0-0.9,0c0.6,0.4,0.9,0.8,0.9,1.2c0,0.4-0.2,0.7-0.5,1.1c-0.4,0.3-0.8,0.6-1.4,0.8
			C300,69.2,299.4,69.3,298.7,69.3z M302.7,64.9h0.6c0.6,0,1.1-0.1,1.4-0.3c0.3-0.2,0.4-0.4,0.4-0.8c0-0.2-0.1-0.6-0.2-1.1
			c-0.2-0.5-0.3-0.9-0.4-1.1l0.9-0.5c0.2,0.3,0.3,0.8,0.5,1.3c0.2,0.5,0.2,1,0.2,1.4c0,0.7-0.2,1.2-0.7,1.6c-0.5,0.4-1.1,0.5-2,0.5
			h-0.6V64.9z M304.6,58.7l0.9,0.9l-0.9,0.9l-0.9-0.9L304.6,58.7z M308.1,65.9c0-0.5,0.1-1.2,0.1-2.1c0-0.9,0-1.9-0.1-2.9
			c0-1-0.1-1.7-0.1-2l1-0.2c0.1,0.4,0.1,1,0.2,2.1c0.1,1,0.1,2,0.1,3c0,1,0,1.8-0.1,2.3L308.1,65.9z M306.5,58
			c0.1-0.3,0.3-0.6,0.5-0.8c0.2-0.2,0.5-0.3,0.7-0.3c0.1,0,0.2,0,0.4,0c0.1,0,0.2,0.1,0.4,0.1c0.1,0,0.2,0.1,0.3,0.1
			c0.1,0,0.2,0,0.3,0c0.2,0,0.3,0,0.5-0.1c0.2-0.1,0.3-0.2,0.4-0.4l0.4,0.3c-0.2,0.2-0.4,0.4-0.6,0.6c-0.2,0.1-0.4,0.2-0.7,0.2
			c-0.1,0-0.3,0-0.4,0c-0.1,0-0.2-0.1-0.4-0.1c-0.1-0.1-0.2-0.1-0.3-0.1c-0.1,0-0.2,0-0.3,0c-0.2,0-0.3,0.1-0.5,0.2
			c-0.1,0.1-0.2,0.3-0.3,0.5L306.5,58z M313.9,68.5c0.5-0.2,1-0.4,1.4-0.7c0.4-0.3,0.7-0.6,1-0.9c0.2-0.3,0.4-0.6,0.4-0.9
			c0-0.4-0.2-1.4-0.6-3l0.9-0.3c0.2,0.6,0.3,1.2,0.4,1.8c0.1,0.6,0.2,1.1,0.2,1.5c0,0.5-0.1,0.9-0.4,1.4c-0.3,0.5-0.7,0.9-1.2,1.2
			c-0.5,0.4-1,0.7-1.7,0.9L313.9,68.5z M318.4,68.5c1.2-0.3,2-0.6,2.7-1c0.6-0.4,1-0.9,1.1-1.5c-0.3,0.1-0.6,0.1-0.9,0.1
			c-0.5,0-1-0.1-1.4-0.2c-0.4-0.2-0.7-0.4-0.9-0.8c-0.1-0.3-0.2-0.6-0.2-0.9c0-0.4,0.1-0.8,0.3-1.2c0.2-0.4,0.4-0.8,0.7-1
			c0.3-0.3,0.6-0.4,1-0.4c0.5,0,0.9,0.2,1.2,0.6c0.4,0.4,0.6,0.9,0.8,1.6c0.2,0.6,0.3,1.2,0.3,1.8c0,1-0.4,1.8-1.1,2.5
			c-0.8,0.7-1.8,1.2-3.2,1.5L318.4,68.5z M319.7,64.4c0.1,0.2,0.3,0.3,0.6,0.4c0.3,0.1,0.7,0.1,1.1,0.1c0.2,0,0.5,0,0.8-0.1
			c-0.1-0.6-0.3-1.2-0.5-1.7c-0.3-0.5-0.6-0.7-1-0.8c-0.2,0-0.3,0.1-0.5,0.2s-0.3,0.3-0.4,0.6c-0.1,0.2-0.2,0.5-0.2,0.7
			C319.5,64.1,319.6,64.3,319.7,64.4z M330.6,66c-0.7,0-1.3-0.3-1.7-0.8c-0.3,0.2-0.6,0.4-1,0.6c-0.4,0.2-0.8,0.2-1.3,0.2
			c-0.5,0-1-0.1-1.4-0.3s-0.8-0.4-1.1-0.6l0.5-0.8c0.3,0.2,0.6,0.3,0.9,0.5c0.3,0.1,0.6,0.2,1,0.2c0.7,0,1.3-0.2,1.9-0.6l0-0.1
			l-1.7-3.9l0.9-0.5l1.6,3.9c0.2,0.4,0.3,0.7,0.5,0.8c0.2,0.2,0.5,0.2,0.8,0.2h0.1l0.1,0.5l-0.1,0.5H330.6z M330.6,64.9h0.2
			c0.4,0,0.7-0.1,1-0.3c0.3-0.2,0.5-0.5,0.6-0.8c0.2-0.4,0.3-0.9,0.4-1.5l0.9,0.2c0,0.3-0.1,0.6-0.1,0.8c0,0.6,0.2,1.1,0.5,1.4
			c0.6-1.1,1.3-1.9,2.1-2.5c0.8-0.6,1.5-0.9,2.2-0.9c0.4,0,0.8,0.1,1.1,0.3c0.3,0.2,0.6,0.4,0.8,0.7c0.2,0.3,0.3,0.6,0.3,1
			c0,0.6-0.2,1.1-0.6,1.6c-0.4,0.4-0.9,0.8-1.6,1c-0.7,0.2-1.5,0.4-2.4,0.4c-0.9,0-1.6-0.1-2.1-0.4c-0.5-0.3-0.8-0.7-0.9-1.1
			c-0.2,0.4-0.5,0.7-0.8,1s-0.8,0.3-1.4,0.3h-0.2V64.9z M334.8,65.1c0.3,0.1,0.6,0.1,1,0.1c0.7,0,1.4-0.1,2-0.3
			c0.6-0.2,1-0.4,1.4-0.7c0.3-0.3,0.5-0.6,0.5-0.9c0-0.3-0.1-0.5-0.3-0.7c-0.2-0.2-0.5-0.3-0.9-0.3c-0.6,0-1.2,0.2-1.8,0.7
			C335.9,63.5,335.4,64.2,334.8,65.1z"/>
	</g>
</g>
</svg>
