<?xml version="1.0" encoding="utf-8"?>
<!-- Generator: Adobe Illustrator 27.7.0, SVG Export Plug-In . SVG Version: 6.00 Build 0)  -->
<svg version="1.1" id="Layer_1" xmlns="http://www.w3.org/2000/svg" xmlns:xlink="http://www.w3.org/1999/xlink" x="0px" y="0px"
	 viewBox="0 0 360 164" style="enable-background:new 0 0 360 164;" xml:space="preserve">
<style type="text/css">
	.st0{clip-path:url(#SVGID_00000161632682213246462460000011601955484007539877_);}
	.st1{fill:url(#SVGID_00000147942700433969225230000010837210693768580229_);}
	.st2{fill:#FFFFFF;}
	.st3{fill:#D1D3D4;}
	.st4{fill:#F1F2F2;}
	.st5{fill:#DEECFB;}
	.st6{fill:#FF5147;}
	.st7{fill:#FF9E99;}
	.st8{fill:#FCE49A;}
	.st9{fill:#FCF2D7;}
	.st10{fill:#FFCC33;}
	.st11{fill:#AEB1B5;}
	.st12{fill:#88EB90;}
	.st13{fill:#33CC66;}
	.st14{fill:#C8F8D2;}
</style>
<g>
	<defs>
		<path id="SVGID_1_" d="M29,0h302c16,0,29,13,29,29v106c0,16-13,29-29,29H29c-16,0-29-13-29-29V29C0,13,13,0,29,0z"/>
	</defs>
	<clipPath id="SVGID_00000150084987328408544960000009543151240805120682_">
		<use xlink:href="#SVGID_1_"  style="overflow:visible;"/>
	</clipPath>
	<g style="clip-path:url(#SVGID_00000150084987328408544960000009543151240805120682_);">
		
			<linearGradient id="SVGID_00000079485540578245792250000012050043407187361923_" gradientUnits="userSpaceOnUse" x1="-0.1377" y1="83.3654" x2="360.0969" y2="84.1686" gradientTransform="matrix(1 0 0 -1 0 166)">
			<stop  offset="0" style="stop-color:#E25656"/>
			<stop  offset="1" style="stop-color:#5F0303"/>
		</linearGradient>
		<path style="fill:url(#SVGID_00000079485540578245792250000012050043407187361923_);" d="M29,0h302c16,0,29,13,29,29v106.4
			c0,16-13,29-29,29H29c-16,0-29-13-29-29V29C0,13,13,0,29,0z"/>
		<path class="st2" d="M120.7,56.6l0,6.5l-5.7-2.9l0-6.5L120.7,56.6z"/>
		<path d="M120.6,63.3c-0.1,0-0.1,0-0.1,0l-5.7-2.9c-0.1,0-0.1-0.1-0.1-0.2l0-6.5c0-0.1,0.1-0.2,0.1-0.2c0.1,0,0.2,0,0.3,0l5.7,2.9
			c0.1,0,0.1,0.1,0.1,0.2l0,6.5c0,0.1-0.1,0.2-0.1,0.2C120.7,63.3,120.7,63.3,120.6,63.3z M115.3,60l5.1,2.6l0-5.9l-5.1-2.6
			L115.3,60z"/>
		<path class="st2" d="M120.7,44.4l-0.2,61.8l-62.4,32.6L58.3,77L120.7,44.4z"/>
		<path d="M58.1,139c-0.1,0-0.1,0-0.1,0c-0.1,0-0.1-0.1-0.1-0.2L58,77c0-0.1,0.1-0.2,0.1-0.2l62.4-32.6c0.1,0,0.2,0,0.3,0
			c0.1,0,0.1,0.1,0.1,0.2l-0.2,61.8c0,0.1-0.1,0.2-0.1,0.2L58.2,139C58.2,139,58.1,139,58.1,139z M58.6,77.2l-0.2,61.2l61.8-32.3
			l0.2-61.2L58.6,77.2z"/>
		<path class="st3" d="M5.7,65.7l0.1-16L58.3,77l-0.2,61.8c-14.2-7.4-25.8-13.4-39.5-20.5l-13-6.8l0.1-28.7"/>
		<path d="M58.1,139c-0.1,0-0.1,0-0.1,0L5.4,111.7c-0.1,0-0.1-0.1-0.1-0.2l0.1-28.7c0-0.1,0.1-0.3,0.3-0.3h0c0.2,0,0.3,0.1,0.3,0.3
			l-0.1,28.6l51.9,27L58,77.2L6,50.2l0,15.5c0,0.1-0.1,0.3-0.3,0.3h0c-0.2,0-0.3-0.1-0.3-0.3l0.1-16c0-0.1,0.1-0.2,0.1-0.2
			c0.1,0,0.2,0,0.3,0l52.5,27.3c0.1,0,0.1,0.1,0.1,0.2c-0.3,64.4-0.1,61.9-0.3,62C58.2,139,58.1,139,58.1,139z"/>
		<path class="st2" d="M120.7,44.4L58.3,77L5.7,49.7l62.4-32.6L120.7,44.4z"/>
		<path d="M58.3,77.3c-0.1,0-0.1,0-0.1,0L5.6,49.9c-0.1,0-0.1-0.1-0.1-0.2c0-0.1,0.1-0.2,0.1-0.2L68,16.8c0.1,0,0.2,0,0.3,0
			l52.5,27.3c0.1,0,0.1,0.1,0.1,0.2c0,0.1-0.1,0.2-0.1,0.2L58.4,77.2C58.4,77.3,58.3,77.3,58.3,77.3z M6.3,49.7l51.9,27l61.8-32.3
			l-51.9-27L6.3,49.7z"/>
		<path class="st4" d="M20.6,49.7l47.6-24.9l37.7,19.6L58.3,69.3L20.6,49.7z"/>
		<path d="M58.3,69.6c-0.1,0-0.1,0-0.1,0L20.4,49.9c-0.1,0-0.1-0.1-0.1-0.2c0-0.1,0.1-0.2,0.1-0.2l31.2-16.3c0.1-0.1,0.3,0,0.4,0.1
			c0.1,0.1,0,0.3-0.1,0.4L21.1,49.7L58.3,69l47-24.6L80.6,31.6c-0.1-0.1-0.2-0.2-0.1-0.4c0.1-0.1,0.3-0.2,0.4-0.1l25.1,13
			c0.1,0,0.1,0.1,0.1,0.2c0,0.1-0.1,0.2-0.1,0.2L58.4,69.5C58.4,69.5,58.3,69.6,58.3,69.6z"/>
		<path class="st2" d="M62.7,79.3l53.6-28l-0.2,52.6l-53.6,28L62.7,79.3z"/>
		<path d="M62.2,131.9l0.2-52.6c0-0.1,0.1-0.2,0.1-0.2l53.6-28c0.1,0,0.2,0,0.3,0c0.1,0,0.1,0.1,0.1,0.2l-0.2,52.6
			c0,0.1-0.1,0.2-0.1,0.2l-53.6,28C62.5,132.2,62.2,132.1,62.2,131.9z M63,79.5l-0.2,51.9l53-27.7l0.2-51.9L63,79.5z"/>
		<path class="st5" d="M62.5,131.9l0-4.7l49.5-25.9l0.1-47.9l4.1-2.2l-0.2,52.6"/>
		<path d="M62.2,131.9l0-4.7c0-0.1,0.1-0.2,0.1-0.2l49.3-25.8l0.1-47.7c0-0.1,0.1-0.2,0.1-0.2l4.1-2.2c0.1,0,0.2,0,0.3,0
			c0.1,0,0.1,0.1,0.1,0.2l-0.2,52.6c0,0.1-0.1,0.2-0.1,0.2l-53.6,28C62.5,132.2,62.2,132.1,62.2,131.9z M62.8,127.4l0,4
			c43.7-22.8,52.4-27.4,53-27.7l0.2-51.9l-3.5,1.8l-0.1,47.7c0,0.1-0.1,0.2-0.1,0.2L62.8,127.4z"/>
		<path class="st6" d="M64.9,128l-2.4-1.2l0.2-47.5l0,0l2.1,1.1L64.9,128z"/>
		<path d="M64.9,128.3c-0.1,0-0.1,0-0.1,0l-2.4-1.2c-0.1,0-0.1-0.1-0.1-0.2l0.2-47.5c0-0.1,0.1-0.2,0.2-0.2c0.1,0,0.2,0,0.3,0
			l2.1,1.1c0.1,0,0.1,0.1,0.1,0.2l0.1,47.7c0,0.1-0.1,0.2-0.1,0.2C65,128.3,65,128.3,64.9,128.3z M62.8,126.6l1.8,0.9l-0.1-47.1
			L63,79.7L62.8,126.6z"/>
		<path class="st6" d="M113.7,54.9L64.8,80.4l-2.1-1.1l48.8-25.5L113.7,54.9z"/>
		<path d="M64.8,80.6c-0.1,0-0.1,0-0.1,0l-2.1-1.1c-0.1,0-0.1-0.1-0.1-0.2c0-0.1,0.1-0.2,0.1-0.2l48.8-25.5c0.1,0,0.2,0,0.3,0
			l2.2,1.2c0.1,0,0.1,0.1,0.1,0.2c0,0.1-0.1,0.2-0.1,0.2L64.9,80.6C64.9,80.6,64.8,80.6,64.8,80.6z M63.3,79.3l1.5,0.8l48.3-25.1
			l-1.6-0.9L63.3,79.3z"/>
		<path class="st7" d="M81.3,119.5L64.9,128l-0.1-47.7l48.9-25.4l0.1,47.7l-19,9.9"/>
		<path d="M64.9,128.3c-0.1,0-0.1,0-0.1,0c-0.1,0-0.1-0.1-0.1-0.2l-0.1-47.7c0-0.1,0.1-0.2,0.1-0.2l48.9-25.4c0.1,0,0.2,0,0.3,0
			c0.1,0,0.1,0.1,0.1,0.2l0.1,47.7c0,0.1-0.1,0.2-0.1,0.2l-19,9.9c-0.1,0.1-0.3,0-0.4-0.1c-0.1-0.1,0-0.3,0.1-0.4l18.8-9.8
			l-0.1-47.1L65.1,80.5l0.1,47.1l15.9-8.3c0.1-0.1,0.3,0,0.4,0.1c0.1,0.1,0,0.3-0.1,0.4l-16.4,8.5C65,128.3,65,128.3,64.9,128.3z"/>
		<path class="st8" d="M129.4,55.7l0,6.5L113,70.7l-7.9,0.5l0-6.5l7.9-0.5L129.4,55.7z"/>
		<path d="M105.1,71.5c-0.1,0-0.1,0-0.2-0.1c-0.1-0.1-0.1-0.1-0.1-0.2l0-6.5c0-0.1,0.1-0.3,0.3-0.3l7.9-0.5l16.3-8.5
			c0.1,0,0.2,0,0.3,0c0.1,0,0.1,0.1,0.1,0.2l0,6.5c0,0.1-0.1,0.2-0.1,0.2L113.2,71c0,0-0.1,0-0.1,0L105.1,71.5
			C105.1,71.5,105.1,71.5,105.1,71.5z M105.4,65l0,5.9l7.6-0.4L129,62l0-5.9l-15.9,8.3c0,0-0.1,0-0.1,0L105.4,65z"/>
		<path class="st9" d="M118.7,57.6l2-1l0-5.4l0,0l8.7,4.5L113,64.3l-7.9,0.5l4.7-2.5"/>
		<path d="M105.1,65c-0.1,0-0.2-0.1-0.3-0.2c0-0.1,0-0.2,0.1-0.3l4.7-2.5c0.1-0.1,0.3,0,0.4,0.1c0.1,0.1,0,0.3-0.1,0.4l-3.6,1.9
			l6.6-0.4l15.9-8.3l-7.8-4.1l0,4.9c0,0.1-0.1,0.2-0.1,0.2l-2,1c-0.1,0.1-0.3,0-0.4-0.1c-0.1-0.1,0-0.3,0.1-0.4l1.8-1l0-5.2
			c0-0.1,0-0.1,0.1-0.2c0.1-0.1,0.3-0.1,0.4-0.1l8.7,4.5c0.1,0,0.1,0.1,0.1,0.2c0,0.1-0.1,0.2-0.1,0.2l-16.4,8.6c0,0-0.1,0-0.1,0
			L105.1,65C105.1,65,105.1,65,105.1,65z"/>
		<path class="st10" d="M113,64.3v6.5l-7.9,0.5l0-6.5L113,64.3z"/>
		<path d="M105.1,71.5c-0.1,0-0.1,0-0.2-0.1c-0.1-0.1-0.1-0.1-0.1-0.2l0-6.5c0-0.1,0.1-0.3,0.3-0.3L113,64c0.1,0,0.2,0,0.2,0.1
			c0.1,0.1,0.1,0.1,0.1,0.2v6.5c0,0.1-0.1,0.3-0.3,0.3L105.1,71.5C105.1,71.5,105.1,71.5,105.1,71.5z M105.4,65l0,5.9l7.3-0.4v-5.9
			L105.4,65z"/>
		<path class="st8" d="M122.4,95l-9.4,4.9l-7.9,0.5l0-6.5l7.9-0.5l16.4-8.6l0,6.5l-2.2,1.2"/>
		<path d="M105.1,100.6c-0.1,0-0.1,0-0.2-0.1c-0.1-0.1-0.1-0.1-0.1-0.2l0-6.5c0-0.1,0.1-0.3,0.3-0.3l7.9-0.5l16.3-8.5
			c0.1,0,0.2,0,0.3,0c0.1,0,0.1,0.1,0.1,0.2l0,6.5c0,0.1-0.1,0.2-0.1,0.2l-2.2,1.2c-0.1,0.1-0.3,0-0.4-0.1c-0.1-0.1,0-0.3,0.1-0.4
			l2.1-1.1l0-5.9l-15.9,8.3c0,0-0.1,0-0.1,0l-7.7,0.4l0,5.9l7.6-0.4l9.3-4.9c0.1-0.1,0.3,0,0.4,0.1c0.1,0.1,0,0.3-0.1,0.4l-9.4,4.9
			c0,0-0.1,0-0.1,0L105.1,100.6C105.1,100.6,105.1,100.6,105.1,100.6z"/>
		<path class="st9" d="M129.4,84.9L113,93.4l-7.9,0.5l15.6-8.1l0-5.4l0,0L129.4,84.9z"/>
		<path d="M105.1,94.1c-0.1,0-0.2-0.1-0.3-0.2c0-0.1,0-0.2,0.1-0.3l15.4-8.1c0.1-5.4,0-5.3,0.1-5.4c0.1-0.1,0.3-0.1,0.4-0.1l8.7,4.5
			c0.1,0,0.1,0.1,0.1,0.2s-0.1,0.2-0.1,0.2l-16.4,8.6c0,0-0.1,0-0.1,0L105.1,94.1C105.1,94.1,105.1,94.1,105.1,94.1z M121,80.8
			l0,4.9c0,0.3,0.6-0.2-14.6,7.8l6.6-0.4l15.9-8.3L121,80.8z"/>
		<path class="st10" d="M113,93.4v6.5l-7.9,0.5l0-6.5L113,93.4z"/>
		<path d="M105.1,100.6c-0.1,0-0.1,0-0.2-0.1c-0.1-0.1-0.1-0.1-0.1-0.2l0-6.5c0-0.1,0.1-0.3,0.3-0.3l7.9-0.5c0.1,0,0.2,0,0.2,0.1
			c0.1,0.1,0.1,0.1,0.1,0.2v6.5c0,0.1-0.1,0.3-0.3,0.3L105.1,100.6C105.1,100.6,105.1,100.6,105.1,100.6z M105.4,94.1l0,5.9l7.3-0.4
			v-5.9L105.4,94.1z"/>
		<path class="st4" d="M97.7,96.1c4.8-7.5,4.9-15.6,0-18.2c-4.8-2.5-12.7,1.5-17.5,9c-4.8,7.5-4.9,15.6,0,18.2
			C85,107.6,92.9,103.6,97.7,96.1z"/>
		<path d="M83.4,106.1c-1.2,0-2.4-0.3-3.4-0.8c-2.4-1.3-3.8-3.9-3.8-7.4c0-7.1,5.6-15.9,12.5-19.5c0.1-0.1,0.3,0,0.4,0.1
			c0.1,0.1,0,0.3-0.1,0.4c-6.7,3.5-12.2,12-12.2,19c0,3.3,1.2,5.8,3.5,6.9c2.3,1.2,5.3,0.9,8.5-0.8c6.7-3.5,12.2-12,12.2-19
			c0-0.1,0.1-0.3,0.3-0.3h0c0.2,0,0.3,0.1,0.3,0.3c0,7.1-5.6,15.9-12.5,19.5C87.1,105.6,85.2,106.1,83.4,106.1z"/>
		<path class="st11" d="M102.3,92.2c0,1.7-0.6,3.6-1.7,5.2c-1.1,1.7-2.5,3.1-4.2,3.9c-1.4,0.7-2.6,0.9-3.6,0.6c0,0,0,0-0.1,0
			c-3.1-0.9-5.5-1.6-5.5-1.6c-1.7-0.3-2.9-1.8-2.9-4.2c0-3.7,2.9-8.3,6.5-10.3c0.1-0.1,0.1-0.1,0.2-0.1c1.9-1,3.6-1.1,4.8-0.4
			c0,0,0,0,0,0l5,3.7C101.8,89.6,102.3,90.7,102.3,92.2z"/>
		<path d="M93.8,102.4c-0.4,0-0.7,0-1.1-0.1c0,0-0.1,0-0.1,0l-0.7-0.2c-3.5-1-4.4-1.3-4.7-1.4l0,0c-1.9-0.4-3.1-2.1-3.1-4.5
			c0-2.3,1.1-5,2.9-7.3c0.1-0.1,0.3-0.1,0.4-0.1c0.1,0.1,0.2,0.3,0.1,0.4c-1.7,2.2-2.8,4.8-2.8,7c0,2.2,1,3.6,2.7,3.9c0,0,0,0,0.1,0
			c0.2,0.1,2.2,0.7,4.7,1.4l0.7,0.2c0,0,0,0,0,0c0,0,0,0,0,0c1,0.3,2.2,0.1,3.4-0.6c1.5-0.8,3-2.2,4-3.8c1.1-1.7,1.7-3.5,1.7-5.1
			c0-1.4-0.5-2.4-1.3-3l-5-3.7l0,0c0,0,0,0,0,0c-1.2-0.6-2.8-0.5-4.5,0.4c-0.1,0.1-0.3,0-0.4-0.1c-0.1-0.1,0-0.3,0.1-0.4
			c1.9-1,3.8-1.2,5.2-0.4c0,0,0,0,0.1,0.1l5,3.7c1,0.7,1.5,1.9,1.5,3.4c0,1.7-0.6,3.6-1.8,5.4c-1.1,1.8-2.6,3.2-4.3,4
			C95.6,102.1,94.7,102.4,93.8,102.4z"/>
		<path class="st2" d="M102.3,92.2c0,1.7-0.6,3.6-1.7,5.2c-1.1,1.7-2.5,3.1-4.2,3.9c-1.4,0.7-2.6,0.9-3.6,0.6c0,0,0,0-0.1,0
			c-1.3-0.4-2.2-1.7-2.2-3.6c0-3.4,2.6-7.5,5.9-9.2c1.8-0.9,3.4-0.9,4.5-0.2C101.8,89.6,102.3,90.7,102.3,92.2z"/>
		<path d="M93.8,102.4c-0.4,0-0.7,0-1.1-0.1c0,0-0.1,0-0.1,0c-1.5-0.5-2.4-1.9-2.4-3.8c0-3.5,2.7-7.7,6-9.4c1.9-1,3.6-1,4.8-0.1
			c1,0.7,1.5,1.9,1.5,3.4c0,1.7-0.6,3.6-1.8,5.4c-1.1,1.8-2.6,3.2-4.3,4C95.6,102.1,94.7,102.4,93.8,102.4z M92.8,101.7
			C92.9,101.7,92.9,101.7,92.8,101.7c1,0.3,2.2,0.1,3.4-0.5c1.5-0.8,3-2.2,4-3.8c1.1-1.7,1.7-3.5,1.7-5.1c0-1.4-0.5-2.4-1.3-3
			c-1-0.7-2.5-0.7-4.2,0.2c-3.2,1.6-5.7,5.6-5.7,8.9C90.8,100.1,91.6,101.3,92.8,101.7C92.8,101.7,92.8,101.7,92.8,101.7z"/>
		<path class="st3" d="M99.7,93.6c0,0.9-0.4,2-1,2.9c-0.6,0.9-1.4,1.7-2.3,2.2c-0.8,0.4-1.5,0.5-2,0.3c0,0,0,0,0,0
			c-0.8-0.2-1.2-0.9-1.2-2c0-1.9,1.5-4.2,3.3-5.2c1-0.5,1.9-0.5,2.5-0.1C99.4,92.1,99.7,92.7,99.7,93.6z"/>
		<path class="st2" d="M68,133.6l-1.9,3.5l-8,4.2v-2.5L68,133.6z"/>
		<path d="M58.1,141.5c-0.1,0-0.1,0-0.1,0c-0.1,0-0.1-0.1-0.1-0.2v-2.5c0-0.1,0.1-0.2,0.1-0.2l9.9-5.2c0.1-0.1,0.3,0,0.4,0
			c0.1,0.1,0.1,0.2,0.1,0.3l-1.8,3.5c0,0-0.1,0.1-0.1,0.1l-8,4.2C58.2,141.5,58.1,141.5,58.1,141.5z M58.4,138.9v1.8l7.5-3.9
			l1.4-2.6L58.4,138.9z"/>
		<path class="st2" d="M48.2,133.6l1.8,3.5l8,4.2v-2.5L48.2,133.6z"/>
		<path d="M58.1,141.5c-0.1,0-0.1,0-0.1,0l-8-4.2c-0.1,0-0.1-0.1-0.1-0.1l-1.9-3.5c-0.1-0.1,0-0.2,0.1-0.3c0.1-0.1,0.2-0.1,0.4,0
			c10.3,5.4,10,5.1,10,5.4v2.5c0,0.1-0.1,0.2-0.1,0.2C58.2,141.5,58.1,141.5,58.1,141.5z M50.2,136.9l7.5,3.9v-1.8l-8.9-4.7
			L50.2,136.9z"/>
		<path class="st2" d="M15.4,116.6l-1.8,1.5l-8-4.2l0-2.5L15.4,116.6z"/>
		<path d="M13.6,118.4c-0.1,0-0.1,0-0.1,0l-8-4.2c-0.1,0-0.1-0.1-0.1-0.2l0-2.5c0-0.1,0.1-0.2,0.1-0.2c0.1,0,0.2,0,0.3,0l9.9,5.1
			c0.1,0,0.1,0.1,0.1,0.2c0,0.1,0,0.2-0.1,0.2l-1.8,1.5C13.7,118.4,13.6,118.4,13.6,118.4z M5.8,113.8l7.7,4l1.4-1.1l-9.1-4.7
			L5.8,113.8z"/>
		<path class="st2" d="M110.6,111.3l1.8,1.5l8-4.2l0-2.5L110.6,111.3z"/>
		<path d="M112.5,113c-0.1,0-0.1,0-0.2-0.1c-1.8-1.5-2-1.5-1.9-1.7c0-0.3-0.4,0.1,10-5.3c0.1,0,0.2,0,0.3,0c0.1,0,0.1,0.1,0.1,0.2
			l0,2.5c0,0.1-0.1,0.2-0.1,0.2l-8,4.2C112.6,113,112.5,113,112.5,113z M111.1,111.3l1.4,1.1l7.7-4l0-1.8L111.1,111.3z"/>
		<path class="st12" d="M-23.4,117.4l0,6.4l36.5,19.1l0-6.4L-23.4,117.4z"/>
		<path d="M13.2,143.2c-0.1,0-0.1,0-0.1,0l-36.5-19.1c-0.1,0-0.1-0.1-0.1-0.2l0-6.4c0-0.1,0.1-0.2,0.1-0.2c0.1,0,0.2,0,0.3,0
			l36.5,19.1c0.1,0,0.1,0.1,0.1,0.2l0,6.4c0,0.1-0.1,0.2-0.1,0.2C13.3,143.2,13.2,143.2,13.2,143.2z M-23,123.7l35.9,18.8l0-5.8
			l-35.9-18.8L-23,123.7z"/>
		<path class="st13" d="M13.2,136.5l0,6.4L36.1,131l0-6.4L13.2,136.5z"/>
		<path d="M13.2,143.2c-0.1,0-0.1,0-0.1,0c-0.1,0-0.1-0.1-0.1-0.2l0-6.4c0-0.1,0.1-0.2,0.1-0.2c24.3-12.6,22.9-12.1,23.2-11.9
			c0.1,0,0.1,0.1,0.1,0.2c0,6.6,0.2,6.5-0.1,6.7l-4.6,2.4c-0.1,0.1-0.3,0-0.4-0.1c-0.1-0.1,0-0.3,0.1-0.4l4.4-2.3l0-5.8l-22.3,11.6
			l0,5.8l10.1-5.3c0.1-0.1,0.3,0,0.4,0.1c0.1,0.1,0,0.3-0.1,0.4l-10.6,5.5C13.3,143.2,13.2,143.2,13.2,143.2z"/>
		<path class="st14" d="M-23.4,117.4l36.5,19.1l22.9-11.9l-36.5-19.1L-23.4,117.4z"/>
		<path d="M13.2,136.8c-0.1,0-0.1,0-0.1,0l-36.5-19.1c-0.1,0-0.1-0.1-0.1-0.2s0.1-0.2,0.1-0.2l22.9-11.9c0.1,0,0.2,0,0.3,0
			c39,20.4,36.7,19,36.7,19.3c0,0.3,1.2-0.5-23.1,12.1C13.3,136.8,13.2,136.8,13.2,136.8z M-22.8,117.4l35.9,18.8l22.3-11.6
			l-35.9-18.8L-22.8,117.4z"/>
		<path class="st2" d="M29.1,123.3L1.8,109c-1.4,0.7-3.1,0.7-4.5,0l-13.6,7.1c1.1,0.6,1.1,2,0,2.6L10.9,133c1.4-0.7,3.1-0.7,4.5,0
			l13.6-7.1C27.9,125.3,27.9,123.9,29.1,123.3z"/>
		<path class="st13" d="M0.5,118c-3.2,1.7-3.2,4.4,0,6.1c3.2,1.7,8.4,1.7,11.7,0c3.2-1.7,3.2-4.4,0-6.1C9,116.3,3.7,116.3,0.5,118z"
			/>
		<path class="st13" d="M14.2,125.1c-1.8,1-1.9,2.5,0,3.5c1.8,1,4.8,0.9,6.7,0c1.8-0.9,1.9-2.5,0-3.5C19,124.2,16,124.2,14.2,125.1z
			"/>
		<path class="st13" d="M-8.1,113.4c-1.8,1-1.9,2.5,0,3.5s4.8,0.9,6.7,0c1.8-0.9,1.9-2.5,0-3.5C-3.3,112.5-6.3,112.5-8.1,113.4z"/>
		<path class="st9" d="M-9.1,124.8l8,4.2l22.9-11.9l-8-4.2L-9.1,124.8z"/>
		<path d="M-1.1,129.3c-0.1,0-0.1,0-0.1,0c-8.3-4.4-8.2-4.2-8.2-4.4c0-0.1,0.1-0.2,0.1-0.2l5.6-2.9c0.1-0.1,0.3,0,0.4,0.1
			c0.1,0.1,0,0.3-0.1,0.4l-5.2,2.7l7.5,3.9l22.3-11.6l-7.5-3.9L5,117.8c-0.1,0.1-0.3,0-0.4-0.1c-0.1-0.1,0-0.3,0.1-0.4
			c9.4-4.8,9-4.8,9.3-4.7l8,4.2c0.1,0,0.1,0.1,0.1,0.2c0,0.1-0.1,0.2-0.1,0.2l-22.9,11.9C-1,129.3-1,129.3-1.1,129.3z"/>
		<path class="st12" d="M-23.4,108.6l0,6.4l36.5,19.1l0-6.4L-23.4,108.6z"/>
		<path d="M13.2,134.4c-0.1,0-0.1,0-0.1,0l-36.5-19.1c-0.1,0-0.1-0.1-0.1-0.2l0-6.4c0-0.1,0.1-0.2,0.1-0.2c0.1,0,0.2,0,0.3,0
			l36.5,19.1c0.1,0,0.1,0.1,0.1,0.2l0,6.4c0,0.1-0.1,0.2-0.1,0.2C13.3,134.4,13.2,134.4,13.2,134.4z M-23,114.9l35.9,18.8l0-5.8
			l-35.9-18.8L-23,114.9z"/>
		<path class="st13" d="M13.2,127.7l0,6.4l22.9-11.9l0-6.4L13.2,127.7z"/>
		<path d="M13.2,134.4c-0.1,0-0.1,0-0.1,0c-0.1,0-0.1-0.1-0.1-0.2l0-6.4c0-0.1,0.1-0.2,0.1-0.2l22.9-11.9c0.1,0,0.2,0,0.3,0
			c0.1,0,0.1,0.1,0.1,0.2l0,6.4c0,0.1-0.1,0.2-0.1,0.2l-4.6,2.4c-0.1,0.1-0.3,0-0.4-0.1c-0.1-0.1,0-0.3,0.1-0.4l4.4-2.3l0-5.8
			l-22.3,11.6l0,5.8l10.1-5.3c0.1-0.1,0.3,0,0.4,0.1c0.1,0.1,0,0.3-0.1,0.4l-10.6,5.5C13.3,134.4,13.2,134.4,13.2,134.4z"/>
		<path class="st14" d="M-23.4,108.6l36.5,19.1l22.9-11.9L-0.5,96.7L-23.4,108.6z"/>
		<path d="M13.2,128c-0.1,0-0.1,0-0.1,0l-36.5-19.1c-0.1,0-0.1-0.1-0.1-0.2c0-0.1,0.1-0.2,0.1-0.2l22.9-11.9c0.1,0,0.2,0,0.3,0
			l36.5,19.1c0.1,0,0.1,0.1,0.1,0.2c0,0.1-0.1,0.2-0.1,0.2l-22.9,11.9C13.3,128,13.2,128,13.2,128z M-22.8,108.6l35.9,18.8
			l22.3-11.6L-0.5,97L-22.8,108.6z"/>
		<path class="st2" d="M29.1,114.5L1.8,100.2c-1.4,0.7-3.1,0.7-4.5,0l-13.6,7.1c1.1,0.6,1.1,2,0,2.6l27.3,14.3
			c1.4-0.7,3.1-0.7,4.5,0l13.6-7.1C27.9,116.5,27.9,115.1,29.1,114.5z"/>
		<path class="st12" d="M0.5,109.2c-3.2,1.7-3.2,4.4,0,6.1c3.2,1.7,8.4,1.7,11.7,0c3.2-1.7,3.2-4.4,0-6.1
			C9,107.5,3.7,107.5,0.5,109.2z"/>
		<path class="st12" d="M14.2,116.3c-1.8,1-1.9,2.5,0,3.5c1.8,1,4.8,0.9,6.7,0c1.8-0.9,1.9-2.5,0-3.5C19,115.4,16,115.4,14.2,116.3z
			"/>
		<path class="st12" d="M-8.1,104.6c-1.8,1-1.9,2.5,0,3.5c1.8,1,4.8,0.9,6.7,0c1.8-0.9,1.9-2.5,0-3.5
			C-3.3,103.7-6.3,103.7-8.1,104.6z"/>
		<path class="st9" d="M-9.1,116l8,4.2l22.9-11.9l-8-4.2L-9.1,116z"/>
		<path d="M-9.3,116.3c-0.1,0-0.1-0.1-0.1-0.2c0-0.1,0.1-0.2,0.1-0.2l5.6-2.9c0.1-0.1,0.3,0,0.4,0.1c0.1,0.1,0,0.3-0.1,0.4l-5.2,2.7
			l7.5,3.9l22.3-11.6l-7.5-3.9L5,109c-0.1,0.1-0.3,0-0.4-0.1c-0.1-0.1,0-0.3,0.1-0.4l9-4.7c0.1,0,0.2,0,0.3,0
			c8.3,4.4,8.2,4.2,8.2,4.4c0,0.3,1.2-0.5-23.1,12.1C-1.2,120.6-0.9,120.6-9.3,116.3z"/>
		<path class="st2" d="M209.7,38.2c-2.1,0-3.8-0.3-5-1c-1.2-0.7-1.9-1.6-2-2.8c0-0.1,0-0.2,0-0.4c0-0.5,0.1-1.1,0.2-1.7
			c0.1-0.6,0.3-1.1,0.5-1.6l1.7,0.8c-0.3,1.1-0.5,1.9-0.5,2.4c0.1,0.5,0.6,0.8,1.4,1.1c0.9,0.3,2.1,0.4,3.6,0.5
			c1.5,0,2.7-0.1,3.6-0.3c0.9-0.2,1.5-0.5,2-1c0.5-0.4,0.8-1.1,1.2-1.9l1.9,0.2c-0.2,0.7-0.3,1.2-0.3,1.6c0,0.4,0.1,0.7,0.3,0.9
			c0.2,0.2,0.5,0.3,0.9,0.3l0.1,1.3l-0.1,1.3c-0.7,0-1.3-0.2-1.8-0.6c-0.5-0.4-0.8-0.9-0.9-1.5c-0.7,0.9-1.7,1.5-2.7,1.8
			C212.7,38,211.4,38.2,209.7,38.2z M208.8,28.9l1.5,1.5l-1.5,1.5l-1.5-1.5L208.8,28.9z M211.9,28.9l1.5,1.5l-1.5,1.5l-1.5-1.5
			L211.9,28.9z M224.5,38c-0.5,0-0.9-0.1-1.3-0.4c-0.4-0.2-0.8-0.6-1.1-1c-0.3,0.4-0.6,0.8-1.1,1c-0.4,0.2-0.9,0.4-1.5,0.4H219v-2.7
			h0.4c0.6,0,1-0.1,1.3-0.3c0.3-0.2,0.4-0.6,0.4-1.1v0c0-0.9-0.1-2.3-0.2-4.3s-0.2-3.5-0.3-4.3l2.2-0.5c0.1,1,0.2,3.2,0.3,6.6
			l0.1,2.5c0,0.5,0.1,0.9,0.3,1.1c0.2,0.2,0.5,0.3,0.9,0.3h0.2l0.1,1.3l-0.1,1.3H224.5z M224.5,35.3h0.3c0.9,0,1.7-0.6,2.3-1.7
			c0.6-1.1,1.2-1.9,1.7-2.5c0.6-0.6,1.2-0.8,1.9-0.8c0.6,0,1.2,0.2,1.7,0.6c0.5,0.4,0.9,0.9,1.1,1.6c0.3,0.6,0.4,1.3,0.4,2.1
			c0,0.7-0.1,1.3-0.4,1.9c-0.3,0.6-0.6,1-1.2,1.3c-0.3,0.2-0.6,0.3-1,0.3c-0.9,0-2.1-0.5-3.7-1.4c-0.7,0.9-1.7,1.3-3,1.3h-0.3
			L224.5,35.3z M228.9,34.5c0.6,0.3,1.1,0.6,1.5,0.8c0.5,0.2,0.8,0.3,1,0.3c0.1,0,0.2,0,0.3-0.1c0.1-0.1,0.2-0.2,0.3-0.4
			c0.1-0.2,0.1-0.4,0.1-0.6c0-0.5-0.1-0.9-0.4-1.3c-0.3-0.4-0.6-0.6-1-0.6C230.1,32.7,229.5,33.3,228.9,34.5z M255.3,38
			c-0.6,0-1.1-0.2-1.6-0.5c-0.5-0.3-1.1-0.9-1.6-1.6c-0.4,0.8-1.1,1.3-2.1,1.7c-1,0.4-2.1,0.6-3.4,0.6h-0.4H246h0
			c-2.1,0-3.7-0.3-4.9-1c-1.2-0.7-1.8-1.6-1.9-2.7c0-0.1,0-0.2,0-0.4c0-0.5,0.1-1.1,0.2-1.7c0.1-0.6,0.3-1.1,0.5-1.6l1.7,0.8
			c-0.3,1.1-0.5,1.9-0.5,2.4c0.1,0.5,0.6,0.8,1.5,1.1s2.1,0.5,3.6,0.5v0h0.4c1,0,1.8-0.1,2.5-0.3s1.1-0.5,1.4-0.8
			c-0.1-0.6-0.4-1.3-1.1-2.1c-0.6-0.8-1.5-1.7-2.7-2.6l0.2-2.3l6.7-2.8l0.7,2.1l-5.2,2.2c0.3,0.2,0.7,0.6,1.1,1.1
			c0.4,0.5,0.9,1,1.2,1.6c0.6,1,1.2,1.7,1.6,2.3c0.4,0.5,0.8,0.9,1.2,1.1c0.4,0.2,0.7,0.3,1.2,0.3h0.3l0.1,1.3l-0.1,1.3H255.3z
			 M255.4,35.3h1c0.9,0,1.5-0.1,1.9-0.3c0.4-0.2,0.6-0.5,0.6-0.9c0-0.3-0.1-0.7-0.4-1.5c-0.3-0.7-0.4-1.3-0.6-1.6l1.9-1
			c0.2,0.5,0.5,1.2,0.7,2c0.3,0.8,0.4,1.6,0.4,2.2c0,1.2-0.4,2.2-1.2,2.8c-0.8,0.6-1.8,1-3.3,1h-1V35.3z M256.5,27.6
			c0.4-0.4,0.7-0.7,1.1-1.1l0.6-0.6l1.7,1.7l-1.7,1.7L256.5,27.6z M266.6,38c-1.3,0-2.3-0.4-2.9-1.1c-0.6-0.8-0.9-1.9-0.9-3.5
			c0-1.5-0.1-3-0.1-4.5c-0.1-1.5-0.2-2.8-0.3-3.8l2.2-0.5c0.1,0.9,0.2,2.1,0.3,3.6c0.1,1.5,0.1,2.9,0.1,4.1v0.7c0,0.6,0,1.1,0.1,1.4
			c0.1,0.3,0.2,0.5,0.4,0.7c0.2,0.1,0.6,0.2,1,0.2h0.1l0.1,1.3L266.6,38L266.6,38z M266.5,35.3h1c0.9,0,1.5-0.1,1.9-0.3
			c0.4-0.2,0.6-0.5,0.6-0.9c0-0.3-0.1-0.7-0.4-1.5c-0.3-0.7-0.4-1.3-0.6-1.6l1.9-1c0.2,0.5,0.5,1.2,0.7,2c0.3,0.8,0.4,1.6,0.4,2.2
			c0,1.2-0.4,2.2-1.2,2.8c-0.8,0.6-1.8,1-3.3,1h-1V35.3z M267.9,39.4c0.4,0.4,0.7,0.7,1.1,1.1l0.6,0.6l-1.7,1.7l-1.7-1.7L267.9,39.4
			z M284,38.2c-2.1,0-3.7-0.3-4.9-1s-1.9-1.6-2-2.7c0-0.1,0-0.2,0-0.4c0-0.5,0.1-1.1,0.2-1.7c0.1-0.6,0.3-1.1,0.5-1.6l1.7,0.8
			c-0.3,1.1-0.5,1.9-0.5,2.4c0.1,0.5,0.6,0.8,1.4,1.1c0.9,0.3,2.1,0.4,3.6,0.5c1.1,0,2-0.1,2.8-0.2c0.8-0.1,1.3-0.3,1.7-0.4
			c0.4-0.2,0.6-0.3,0.6-0.4c-0.1-0.6-0.3-1.2-0.5-1.9c-0.2-0.7-0.4-1.2-0.6-1.6l1.9-1c0.3,0.6,0.5,1.4,0.8,2.2
			c0.2,0.8,0.3,1.5,0.3,2.2c0,1.2-0.6,2.2-1.9,2.8c-1.3,0.6-2.9,1-5,1H284L284,38.2z M282.5,28.9l1.5,1.5l-1.5,1.5l-1-1l-0.5-0.5
			L282.5,28.9z M285.6,28.9l1.5,1.5l-1.5,1.5l-1-1l-0.5-0.5L285.6,28.9z M303.5,38c-1.5,0-2.6-0.7-3.1-2.2c-0.7,0.8-1.7,1.5-2.9,1.9
			c-1.2,0.5-2.5,0.7-4,0.8l-0.6-2.5c0.5,0,1.1-0.1,1.6-0.2c0.1-0.4,0.2-0.8,0.2-1.2c0-1.5-0.7-3.9-2.1-7.1l1.9-1.3
			c0.7,1.5,1.2,2.8,1.6,4.1c0.4,1.3,0.6,2.4,0.6,3.4c0,0.6-0.1,1.2-0.3,1.8c1-0.3,1.7-0.6,2.2-1.1c0.5-0.5,0.8-1.1,0.8-1.8
			c0-1.2-0.1-2.3-0.2-3.4c-0.1-1.1-0.2-2.4-0.4-4.1l2.2-0.5c0.4,2.9,0.6,5.6,0.5,7.9v0.1c0,0.7,0.1,1.2,0.2,1.6
			c0.1,0.4,0.3,0.6,0.6,0.8c0.3,0.2,0.6,0.2,1.1,0.2h0.2V38H303.5z M303.6,35.3h0.1c1.1,0,1.9-0.1,2.4-0.2c0.5-0.1,0.9-0.3,1-0.5
			s0.3-0.6,0.3-1c0-0.3-0.1-0.9-0.2-1.7l1.9-0.4c0.2,0.9,0.3,1.9,0.3,3c0,0.2,0.2,0.4,0.4,0.5c0.2,0.2,0.5,0.2,1,0.2h0.1l0.1,1.3
			l-0.1,1.3h-0.1c-0.5,0-0.9-0.1-1.3-0.3c-0.4-0.2-0.8-0.5-1-0.9c-0.3,0.4-0.9,0.8-1.6,1c-0.7,0.2-1.7,0.3-3,0.3h-0.1L303.6,35.3z
			 M306.7,42.5l-1.5-1.5l1.5-1.5l0.5,0.5l1,1L306.7,42.5z M303.5,42.5L302,41l1.5-1.5L304,40l1,1L303.5,42.5z M310.6,35.3h1.2
			c0.3-2.3,0.9-4.3,2-6l1.4-0.4c0.8,0.5,1.5,1.1,2,2c0.5,0.9,0.8,1.8,0.8,2.7c0,0.6-0.1,1.2-0.3,1.7c0.4,0,1,0,1.9,0l0.1,1.3
			l-0.1,1.3c-0.4,0-0.8,0-1.4,0c0.3,0.6,0.4,1.2,0.4,1.8c0,0.8-0.3,1.5-0.8,1.9c-0.3,0.2-0.6,0.4-0.9,0.5c-0.3,0.1-0.7,0.2-1,0.2
			c-0.6,0-1.2-0.2-1.8-0.5c-0.6-0.3-1.1-0.8-1.5-1.5c-0.4-0.6-0.7-1.4-0.8-2.4h-0.4h-0.8V35.3z M313.7,35.2c0.9-0.1,1.5-0.3,2-0.6
			c0.5-0.3,0.7-0.7,0.7-1.1c0-0.3-0.1-0.7-0.4-1.1c-0.3-0.4-0.6-0.7-1-0.9c-0.3,0.4-0.5,0.9-0.7,1.5S313.8,34.5,313.7,35.2z
			 M313.8,37.8c0.2,0.6,0.5,1.1,1,1.5c0.4,0.4,0.9,0.6,1.4,0.6c0.2,0,0.4,0,0.6-0.1c0,0,0.1-0.1,0.1-0.3c0-0.3-0.1-0.6-0.4-1
			c-0.3-0.4-0.7-0.7-1.2-1C314.8,37.6,314.3,37.7,313.8,37.8z M334.2,38c-1,0-1.7-0.4-2.4-1.2c-0.3,0.4-0.6,0.7-1,0.9
			c-0.4,0.2-0.8,0.3-1.3,0.3h-0.1h-0.1c-0.6,0-1-0.2-1.4-0.4s-0.7-0.6-0.9-1.1c-0.7,1-1.5,1.5-2.4,1.5h-0.1c-0.5,0-1-0.1-1.3-0.4
			c-0.4-0.3-0.7-0.6-0.8-1.1c-0.4,0.5-0.8,0.9-1.3,1.1c-0.5,0.3-1,0.4-1.6,0.4h-0.1l-0.1-1.3l0.1-1.3h0.1c0.4,0,0.7-0.1,1.1-0.2
			c0.4-0.2,0.6-0.4,0.8-0.6c0.3-0.3,0.4-0.6,0.6-1c0.1-0.4,0.3-0.7,0.4-1.2l1.9,0.2c0,0.1-0.1,0.3-0.2,0.7c-0.1,0.4-0.2,0.8-0.2,1.1
			c0,0.6,0.3,0.9,0.8,0.9h0c0.6,0,1.1-0.3,1.4-1c0.3-0.6,0.5-1.3,0.6-2.1l1.9,0.1c0,0.2-0.1,0.5-0.1,0.8c0,0.3-0.1,0.6-0.1,0.9
			c0,0.9,0.4,1.3,1.1,1.3c0.3,0,0.6-0.1,0.8-0.2c0.3-0.1,0.5-0.2,0.6-0.4c-0.1-0.4-0.3-1.3-0.5-2.4l1.9-0.5c0.1,0.8,0.3,1.4,0.3,1.8
			c0.1,0.4,0.2,0.7,0.2,0.9c0.1,0.3,0.2,0.5,0.4,0.6c0.2,0.1,0.5,0.2,0.9,0.2h0.1l0.1,1.3L334.2,38L334.2,38z M334.1,35.3h0.9
			c1.2,0,2-0.1,2.5-0.3c0.5-0.2,0.7-0.5,0.7-0.9c0-0.3-0.1-0.8-0.4-1.5c-0.3-0.8-0.5-1.3-0.6-1.5l1.9-1c0.2,0.5,0.5,1.2,0.7,2
			c0.2,0.8,0.4,1.6,0.4,2.2c0,1.2-0.4,2.2-1.2,2.8c-0.8,0.6-2,1-3.6,1h-1.3L334.1,35.3z M335.8,26.3l1.5,1.5l-1.5,1.5l-0.5-0.5l-1-1
			L335.8,26.3z M339,26.3l1.5,1.5l-1.5,1.5l-0.5-0.5l-1-1L339,26.3z"/>
		<path class="st2" d="M169.6,70.1c-1.4,0-2.4-0.2-3.2-0.6c-0.8-0.4-1.2-1-1.3-1.7c0-0.1,0-0.2,0-0.3c0-0.3,0-0.7,0.1-1
			c0.1-0.4,0.2-0.7,0.3-1l0.8,0.4c-0.2,0.6-0.3,1.1-0.3,1.5c0,0.1,0,0.2,0,0.3c0.1,0.4,0.4,0.8,1,1c0.6,0.2,1.4,0.4,2.6,0.4
			c0.7,0,1.4-0.1,1.9-0.2s0.9-0.2,1.2-0.4s0.4-0.3,0.5-0.4c0-0.3-0.1-0.7-0.3-1.2c-0.2-0.5-0.3-0.9-0.4-1.2l0.9-0.5
			c0.2,0.4,0.3,0.9,0.5,1.4c0.2,0.6,0.2,1,0.2,1.4c0,0.4-0.2,0.8-0.6,1.1c-0.4,0.3-0.9,0.6-1.6,0.7C171.2,70,170.5,70.1,169.6,70.1z
			 M168.5,64.5l0.9,0.9l-0.9,0.9l-0.9-0.9L168.5,64.5z M170.6,64.5l0.9,0.9l-0.9,0.9l-0.9-0.9L170.6,64.5z M181.8,70
			c-0.9,0-1.5-0.5-1.8-1.5c-0.7,1.1-2.1,1.7-4.2,1.9l-0.3-1.1c0.3,0,0.6-0.1,1.1-0.2c0-0.2,0.1-0.4,0.1-0.6c0-0.6-0.1-1.4-0.4-2.3
			c-0.3-0.9-0.6-1.9-1.1-2.9l0.8-0.5c0.5,1.1,0.9,2.1,1.2,3.1c0.3,1,0.4,1.8,0.4,2.5c0,0.2,0,0.4,0,0.6c1.4-0.4,2-1.1,2-2.1
			c0-0.8,0-1.5-0.1-2.3c-0.1-0.7-0.1-1.6-0.3-2.7l1-0.2c0.1,1,0.2,1.8,0.3,2.5c0.1,0.7,0.1,1.3,0.1,2c0,0.3,0,0.5,0,0.6
			c0,0.7,0.1,1.3,0.3,1.6c0.2,0.3,0.5,0.5,1,0.5h0.1V70H181.8z M181.9,68.9h0.1c0.6,0,1.1,0,1.4-0.1c0.3-0.1,0.6-0.1,0.8-0.3
			s0.3-0.3,0.3-0.5c0-0.1,0.1-0.3,0.1-0.5c0-0.3,0-0.7-0.1-1.3l0.9-0.2c0.1,0.5,0.1,1.1,0.2,1.9c0.1,0.6,0.5,0.9,1.1,0.9h0.1
			l0.1,0.5l-0.1,0.5h-0.1c-0.3,0-0.6-0.1-0.9-0.3c-0.3-0.2-0.5-0.4-0.6-0.7c-0.2,0.4-0.5,0.6-1,0.7c-0.5,0.1-1.2,0.2-2.1,0.2h-0.1
			V68.9z M184.2,72.8l-0.9-0.9l0.9-0.9l0.9,0.9L184.2,72.8z M182.1,72.8l-0.9-0.9l0.9-0.9l0.9,0.9L182.1,72.8z M186.5,68.9h0.7h0.3
			c0.1-0.8,0.2-1.6,0.4-2.2c0.2-0.7,0.5-1.2,0.7-1.5l0.9-0.3c0.5,0.3,0.9,0.7,1.2,1.2c0.3,0.5,0.5,1,0.5,1.5c0,0.5-0.2,1-0.5,1.4
			c0.5,0.1,1.2,0.1,2,0.1l0.1,0.5l-0.1,0.5c-0.5,0-1,0-1.5-0.1c0.2,0.2,0.3,0.5,0.4,0.7c0.1,0.2,0.1,0.5,0.1,0.7
			c0,0.4-0.2,0.8-0.5,1.1c-0.3,0.3-0.7,0.4-1.1,0.4c-0.4,0-0.8-0.1-1.1-0.3c-0.4-0.2-0.7-0.5-0.9-1c-0.3-0.4-0.4-1-0.5-1.6
			c-0.1,0-0.3,0-0.5,0h-0.5V68.9z M188.4,68.8c1.2-0.2,1.9-0.7,2-1.5c0-0.3-0.1-0.5-0.3-0.9c-0.2-0.3-0.5-0.6-0.8-0.8
			c-0.2,0.3-0.4,0.7-0.6,1.3C188.6,67.7,188.5,68.2,188.4,68.8z M188.5,69.9c0.1,0.4,0.2,0.7,0.4,1c0.2,0.3,0.4,0.5,0.6,0.7
			c0.2,0.2,0.5,0.2,0.7,0.2c0.2,0,0.4-0.1,0.6-0.2c0.1-0.1,0.1-0.2,0.1-0.4c0-0.3-0.1-0.6-0.3-0.9c-0.2-0.3-0.5-0.6-0.9-0.9
			C189.4,69.7,188.9,69.8,188.5,69.9z M202.3,70c-0.3,0-0.6-0.1-0.9-0.2c-0.3-0.1-0.5-0.3-0.7-0.6c-0.2,0.2-0.4,0.4-0.6,0.5
			c-0.2,0.1-0.5,0.2-0.8,0.2h0h0c-0.4,0-0.7-0.1-1-0.3c-0.3-0.2-0.4-0.5-0.5-0.9c-0.2,0.4-0.4,0.7-0.7,0.9c-0.3,0.2-0.6,0.4-0.9,0.4
			h0c-0.4,0-0.7-0.1-0.9-0.3c-0.2-0.2-0.4-0.5-0.4-0.9c-0.2,0.4-0.5,0.7-0.9,0.9s-0.7,0.3-1.1,0.3h0l-0.1-0.5l0.1-0.5h0.1
			c0.3,0,0.6-0.1,0.8-0.2c0.3-0.1,0.5-0.3,0.6-0.5c0.2-0.2,0.3-0.4,0.3-0.7c0.1-0.2,0.2-0.5,0.3-0.9l0.9,0.1c0,0,0,0.2-0.1,0.4
			c0,0.2-0.1,0.4-0.1,0.5c0,0.2,0,0.3,0,0.5c0,0.6,0.2,0.8,0.7,0.8h0c0.4,0,0.8-0.3,1.2-0.8c0.1-0.2,0.2-0.4,0.2-0.7
			c0.1-0.3,0.1-0.6,0.2-0.9l0.9,0c0,0,0,0.2-0.1,0.4c0,0.3-0.1,0.5-0.1,0.8c0,0.4,0.1,0.7,0.2,0.9c0.2,0.2,0.4,0.3,0.7,0.3
			c0.2,0,0.4,0,0.6-0.1c0.2-0.1,0.3-0.2,0.5-0.4c-0.1-0.2-0.2-0.9-0.4-1.9l0.9-0.2c0.2,1,0.3,1.6,0.4,1.9c0.1,0.2,0.2,0.4,0.4,0.6
			c0.2,0.1,0.4,0.2,0.7,0.2h0.1l0.1,0.5L202.3,70L202.3,70z M202.2,68.9h0.5c0.9,0,1.5-0.1,1.8-0.2c0.4-0.2,0.5-0.4,0.5-0.8
			c0-0.2-0.1-0.6-0.3-1.1c-0.2-0.5-0.3-0.9-0.4-1.1l0.9-0.5c0.2,0.3,0.3,0.7,0.5,1.3c0.2,0.5,0.2,1,0.2,1.4c0,0.7-0.3,1.3-0.8,1.6
			c-0.5,0.4-1.3,0.6-2.4,0.6h-0.6V68.9z M203.4,62.8l0.9,0.9l-0.9,0.9l-0.9-0.9L203.4,62.8z M205.5,62.8l0.9,0.9l-0.9,0.9l-0.9-0.9
			L205.5,62.8z M212.2,67.1c-0.4,0.9-0.7,1.8-0.7,2.5c0,0.8,0.2,1.3,0.7,1.7c0.4,0.4,1.1,0.6,1.9,0.6c0.6,0,1.2-0.1,1.6-0.4
			c0.4-0.2,0.8-0.5,1-0.9c0.2-0.4,0.3-0.7,0.3-1.1c0-0.7-0.2-1.7-0.7-3l0.9-0.4c0.2,0.7,0.4,1.4,0.5,1.9c0.1,0.5,0.2,1,0.2,1.5
			c0,0.6-0.2,1.1-0.5,1.7c-0.3,0.5-0.7,1-1.3,1.3c-0.6,0.3-1.3,0.5-2.1,0.5c-0.8,0-1.4-0.2-1.9-0.5c-0.5-0.3-0.9-0.7-1.2-1.2
			c-0.3-0.5-0.4-1.1-0.4-1.7c0-0.5,0.1-1,0.2-1.5s0.3-1,0.6-1.4L212.2,67.1z M214.4,65.4l0.9,0.9l-0.9,0.9l-0.9-0.9L214.4,65.4z
			 M221.5,70c-0.6,0-1-0.1-1.3-0.3c-0.3-0.2-0.5-0.5-0.7-0.9c-0.1-0.4-0.2-0.9-0.2-1.5c0-0.9,0-1.9-0.1-3.1c0-1.2-0.1-2-0.2-2.4
			l1-0.2c0.1,0.4,0.1,1.1,0.1,2.1c0,1,0.1,1.9,0.1,2.8v0.5l0,0.4c0,0.4,0,0.7,0.1,0.9c0.1,0.2,0.2,0.3,0.4,0.4
			c0.2,0.1,0.5,0.1,0.8,0.1h0.1l0.1,0.5L221.5,70L221.5,70z M221.5,68.9h0.2c0.3,0,0.6-0.1,0.9-0.3c0.3-0.2,0.5-0.5,0.7-0.8
			c0.3-0.7,0.7-1.2,1-1.6s0.8-0.6,1.2-0.6c0.4,0,0.8,0.1,1.1,0.3c0.3,0.2,0.5,0.5,0.7,0.9c0.2,0.4,0.3,0.8,0.3,1.2
			c0,0.4-0.1,0.8-0.3,1.2c-0.2,0.3-0.4,0.6-0.7,0.8c-0.2,0.1-0.3,0.1-0.5,0.1c-0.6,0-1.4-0.3-2.4-1c-0.5,0.6-1.1,1-1.9,1h-0.2
			L221.5,68.9z M224.1,68.2c0.9,0.6,1.6,0.9,2,0.9c0.1,0,0.2,0,0.2,0c0.1-0.1,0.3-0.2,0.3-0.4c0.1-0.2,0.1-0.4,0.1-0.6
			c0-0.4-0.1-0.7-0.3-1.1c-0.2-0.3-0.4-0.5-0.8-0.5c-0.2,0-0.5,0.1-0.7,0.4C224.7,67.2,224.4,67.6,224.1,68.2z M227.2,72.5
			c0.5-0.2,1-0.4,1.4-0.7s0.7-0.6,1-0.9c0.2-0.3,0.4-0.6,0.4-0.9c0-0.4-0.2-1.4-0.6-3l0.9-0.3c0.2,0.6,0.3,1.2,0.4,1.8
			c0.1,0.6,0.2,1.1,0.2,1.5c0,0.5-0.1,0.9-0.4,1.4c-0.3,0.5-0.7,0.9-1.2,1.2c-0.5,0.4-1,0.7-1.7,0.9L227.2,72.5z M229.6,63.7
			l0.9,0.9l-0.9,0.9l-0.9-0.9L229.6,63.7z M235.3,72.5c1.2-0.3,2-0.6,2.7-1c0.6-0.4,1-0.9,1.1-1.5c-0.3,0.1-0.6,0.1-0.9,0.1
			c-0.5,0-1-0.1-1.4-0.2c-0.4-0.2-0.7-0.4-0.9-0.8c-0.1-0.3-0.2-0.6-0.2-0.9c0-0.4,0.1-0.8,0.3-1.2c0.2-0.4,0.4-0.8,0.7-1
			c0.3-0.3,0.6-0.4,1-0.4c0.5,0,0.9,0.2,1.2,0.6s0.6,0.9,0.8,1.6c0.2,0.6,0.3,1.2,0.3,1.8c0,1-0.4,1.8-1.1,2.5
			c-0.8,0.7-1.8,1.2-3.2,1.5L235.3,72.5z M236.5,68.4c0.1,0.2,0.3,0.3,0.6,0.4c0.3,0.1,0.7,0.1,1.1,0.1c0.2,0,0.5,0,0.8-0.1
			c-0.1-0.6-0.3-1.2-0.5-1.7c-0.3-0.5-0.6-0.7-1-0.8c-0.2,0-0.3,0.1-0.5,0.2s-0.3,0.3-0.4,0.6c-0.1,0.2-0.2,0.5-0.2,0.7
			C236.4,68.1,236.4,68.3,236.5,68.4z M244.5,68.3c0.4,0.2,0.9,0.3,1.4,0.5c0.3-0.5,0.5-0.9,0.8-1.2c0-0.3,0-0.7,0-1.1
			c0-0.8,0-1.7-0.1-2.7c-0.1-1-0.1-1.7-0.2-2l1-0.2c0.1,0.4,0.1,0.9,0.2,1.7c0.1,0.8,0.1,1.6,0.1,2.3c0,0.4,0,0.6,0,0.8
			c0.4-0.4,0.9-0.8,1.4-1s0.9-0.4,1.4-0.4c0.4,0,0.8,0.1,1.1,0.3c0.3,0.2,0.6,0.4,0.8,0.7s0.3,0.6,0.3,1c0,0.6-0.2,1.1-0.6,1.6
			c-0.4,0.5-1,0.8-1.7,1.1c-0.7,0.2-1.5,0.4-2.4,0.4c-0.7,0-1.4-0.1-2.1-0.2c-0.7-0.1-1.2-0.3-1.7-0.6L244.5,68.3z M246.9,69
			c0.4,0,0.8,0.1,1.1,0.1c0.7,0,1.4-0.1,2-0.3c0.6-0.2,1-0.4,1.3-0.7c0.3-0.3,0.5-0.6,0.5-0.9c0-0.3-0.1-0.5-0.3-0.7
			c-0.2-0.2-0.5-0.3-0.9-0.3c-0.6,0-1.2,0.2-1.8,0.7C248,67.3,247.4,68,246.9,69z M256.3,70c-0.6,0-1-0.1-1.3-0.3
			c-0.3-0.2-0.5-0.5-0.7-0.9c-0.1-0.4-0.2-0.9-0.2-1.5c0-0.9,0-1.9-0.1-3.1c0-1.2-0.1-2-0.2-2.4l1-0.2c0.1,0.4,0.1,1.1,0.1,2.1
			c0,1,0.1,1.9,0.1,2.8v0.5l0,0.4c0,0.4,0,0.7,0.1,0.9c0.1,0.2,0.2,0.3,0.4,0.4c0.2,0.1,0.5,0.1,0.8,0.1h0.1l0.1,0.5L256.3,70
			L256.3,70z M266,70c-0.3,0-0.6-0.1-0.9-0.2c-0.3-0.1-0.5-0.3-0.7-0.6c-0.2,0.2-0.4,0.4-0.6,0.5c-0.2,0.1-0.5,0.2-0.8,0.2h0h0
			c-0.4,0-0.7-0.1-1-0.3c-0.3-0.2-0.4-0.5-0.5-0.9c-0.2,0.4-0.4,0.7-0.7,0.9c-0.3,0.2-0.6,0.4-0.9,0.4h0c-0.4,0-0.7-0.1-0.9-0.3
			c-0.2-0.2-0.4-0.5-0.4-0.9c-0.2,0.4-0.5,0.7-0.9,0.9s-0.7,0.3-1.1,0.3h0l-0.1-0.5l0.1-0.5h0.1c0.3,0,0.6-0.1,0.8-0.2
			c0.3-0.1,0.5-0.3,0.6-0.5c0.2-0.2,0.3-0.4,0.3-0.7c0.1-0.2,0.2-0.5,0.3-0.9l0.9,0.1c0,0,0,0.2-0.1,0.4c0,0.2-0.1,0.4-0.1,0.5
			c0,0.2,0,0.3,0,0.5c0,0.6,0.2,0.8,0.7,0.8h0c0.4,0,0.8-0.3,1.2-0.8c0.1-0.2,0.2-0.4,0.2-0.7c0.1-0.3,0.1-0.6,0.2-0.9l0.9,0
			c0,0,0,0.2-0.1,0.4s-0.1,0.5-0.1,0.8c0,0.4,0.1,0.7,0.2,0.9c0.2,0.2,0.4,0.3,0.7,0.3c0.2,0,0.4,0,0.6-0.1c0.2-0.1,0.3-0.2,0.5-0.4
			c-0.1-0.2-0.2-0.9-0.4-1.9l0.9-0.2c0.2,1,0.3,1.6,0.4,1.9c0.1,0.2,0.2,0.4,0.4,0.6c0.2,0.1,0.4,0.2,0.7,0.2h0.1l0.1,0.5L266,70
			L266,70z M265.9,68.9h0.1c1,0,1.8-0.1,2.4-0.2c0.6-0.1,1.1-0.4,1.3-0.7c-0.2,0-0.4,0-0.6,0c-0.5,0-1-0.1-1.4-0.3
			c-0.4-0.2-0.7-0.4-0.9-0.8c-0.2-0.3-0.2-0.6-0.2-1c0-0.4,0.1-0.8,0.3-1.2c0.2-0.4,0.4-0.7,0.7-0.9c0.3-0.2,0.6-0.4,1-0.4
			c0.4,0,0.8,0.2,1.2,0.5c0.3,0.3,0.6,0.8,0.8,1.3c0.2,0.5,0.3,1.1,0.3,1.6c0,0.1,0,0.3,0,0.4c-0.1,0.8-0.5,1.4-1.3,1.9
			c-0.8,0.4-1.9,0.6-3.4,0.6h-0.1V68.9z M267.6,61.1l0.9,0.9l-0.9,0.9l-0.9-0.9L267.6,61.1z M269.8,61.1l0.9,0.9l-0.9,0.9l-0.9-0.9
			L269.8,61.1z M267.6,66.4c0.1,0.2,0.3,0.4,0.7,0.5s0.7,0.2,1.1,0.2c0.2,0,0.5,0,0.6,0c-0.1-0.6-0.2-1.2-0.5-1.6
			c-0.2-0.5-0.6-0.7-1-0.7c-0.2,0-0.4,0.1-0.5,0.2c-0.2,0.1-0.3,0.3-0.4,0.5c-0.1,0.2-0.1,0.4-0.1,0.6
			C267.5,66.1,267.5,66.2,267.6,66.4z M272.3,69.9c0.1-0.5,0.1-1.3,0.1-2.4c0-1.1,0-2.2-0.1-3.4c0-1.2-0.1-1.9-0.1-2.3l1-0.2
			c0,0.4,0.1,1.2,0.1,2.4c0.1,1.2,0.1,2.4,0.1,3.5c0,1.1,0,1.9-0.1,2.5L272.3,69.9z M279.4,69.9c-0.3,0-0.5-0.1-0.7-0.3
			c-0.2-0.2-0.3-0.5-0.3-0.8c0-0.4,0.1-0.8,0.4-1.2c0.3-0.4,0.6-0.8,1-1l0.4,0.4c-0.4,0.2-0.6,0.5-0.8,0.8c-0.2,0.3-0.3,0.5-0.3,0.7
			c0.1,0,0.2-0.1,0.3-0.1c0.2,0,0.4,0.1,0.5,0.2c0.1,0.1,0.2,0.3,0.2,0.5c0,0.2-0.1,0.4-0.2,0.5C279.8,69.8,279.6,69.9,279.4,69.9z
			 M287.9,69.5l-0.1,0.5h-0.3c-0.7,0-1.3-0.1-1.8-0.3c-0.5-0.2-1-0.5-1.5-0.8c-0.6,0.3-1,0.6-1.3,0.9c-0.3,0.3-0.5,0.6-0.5,1
			c0,0.1,0,0.2,0,0.4c0,0.3,0.1,0.6,0.3,0.9c0.2,0.3,0.5,0.5,0.9,0.6c0.4,0.2,0.8,0.2,1.3,0.2c0.5,0,0.9-0.1,1.4-0.2
			c0.5-0.1,0.8-0.2,1.1-0.4l0.4,0.9c-0.3,0.2-0.7,0.4-1.3,0.6c-0.5,0.2-1,0.2-1.6,0.2c-0.6,0-1.2-0.1-1.7-0.4
			c-0.5-0.2-0.9-0.6-1.2-1c-0.3-0.4-0.4-0.9-0.4-1.5c0-0.1,0-0.3,0-0.4c0.1-0.6,0.3-1,0.6-1.4c0.3-0.4,0.8-0.7,1.3-1
			c-0.4-0.4-1-1.1-1.6-1.9l0-0.7c0.3-0.3,0.7-0.6,1.2-0.7c0.5-0.2,1-0.3,1.5-0.3c0.6,0,1.1,0.1,1.6,0.3c0.4,0.2,0.7,0.5,0.8,0.9
			c0,0.1,0.1,0.2,0.1,0.4c0,0.4-0.2,0.8-0.5,1.2c-0.3,0.4-0.8,0.7-1.4,1c0.6,0.3,1.4,0.5,2.3,0.5h0.3L287.9,69.5z M284.6,62.3
			l0.9,0.9l-0.9,0.9l-0.9-0.9L284.6,62.3z M283,66.2c0.6,0.8,1.1,1.3,1.5,1.6l0,0c0.7-0.3,1.2-0.6,1.5-0.8c0.3-0.2,0.4-0.5,0.4-0.8
			c-0.1-0.2-0.3-0.3-0.6-0.4c-0.3-0.1-0.6-0.2-1-0.2c-0.3,0-0.7,0-1,0.1C283.5,65.8,283.2,66,283,66.2z M291.3,70
			c-0.3,0-0.6-0.1-0.9-0.2c-0.3-0.2-0.5-0.4-0.7-0.7c-0.3,0.6-0.9,0.9-1.7,0.9h-0.3v-1.1h0.3c0.4,0,0.8-0.1,1-0.3
			c0.2-0.2,0.3-0.5,0.3-0.9v-0.1c0-0.2,0-1.1-0.1-2.7c-0.1-1.6-0.1-2.6-0.2-3l1-0.2c0.1,0.5,0.1,2.2,0.2,5c0,0.5,0,0.8,0,1
			c0,0.9,0.4,1.3,1,1.3h0.1l0.1,0.5l-0.1,0.5H291.3z M291.3,68.9L291.3,68.9c0.7,0,1.1-0.1,1.4-0.2c0.3-0.1,0.5-0.3,0.6-0.6
			c0-0.1,0.1-0.3,0.1-0.5c0-0.2,0-0.5-0.1-1l0-0.3l0.9-0.2c0.1,0.5,0.2,1.1,0.2,1.9c0.1,0.3,0.2,0.5,0.4,0.6
			c0.2,0.1,0.4,0.2,0.7,0.2h0.1l0.1,0.5l-0.1,0.5h-0.1c-0.3,0-0.6-0.1-0.9-0.3c-0.3-0.2-0.5-0.4-0.6-0.7c-0.2,0.3-0.5,0.6-0.9,0.7
			c-0.4,0.1-0.9,0.2-1.6,0.2h-0.1V68.9z M292.1,71.1l0.9,0.9l-0.9,0.9l-0.9-0.9L292.1,71.1z M295.4,68.9h0.2c0.3,0,0.6-0.1,0.9-0.3
			c0.3-0.2,0.5-0.5,0.7-0.8c0.3-0.7,0.7-1.2,1-1.6c0.4-0.4,0.8-0.6,1.2-0.6c0.4,0,0.8,0.1,1.1,0.3c0.3,0.2,0.5,0.5,0.7,0.9
			c0.2,0.4,0.3,0.8,0.3,1.2c0,0.4-0.1,0.8-0.3,1.2c-0.2,0.3-0.4,0.6-0.7,0.8c-0.2,0.1-0.3,0.1-0.5,0.1c-0.6,0-1.4-0.3-2.4-1
			c-0.5,0.6-1.1,1-1.9,1h-0.2L295.4,68.9z M298,68.2c0.9,0.6,1.6,0.9,2,0.9c0.1,0,0.2,0,0.2,0c0.1-0.1,0.3-0.2,0.3-0.4
			s0.1-0.4,0.1-0.6c0-0.4-0.1-0.7-0.3-1.1c-0.2-0.3-0.4-0.5-0.8-0.5c-0.2,0-0.5,0.1-0.7,0.4C298.5,67.2,298.3,67.6,298,68.2z
			 M305.5,72.5c0.5-0.2,1-0.4,1.4-0.7c0.4-0.3,0.7-0.6,1-0.9c0.2-0.3,0.4-0.6,0.4-0.9c0-0.4-0.2-1.4-0.6-3l0.9-0.3
			c0.2,0.6,0.3,1.2,0.4,1.8c0.1,0.6,0.2,1.1,0.2,1.5c0,0.5-0.1,0.9-0.4,1.4c-0.3,0.5-0.7,0.9-1.2,1.2c-0.5,0.4-1,0.7-1.7,0.9
			L305.5,72.5z M312.7,70c-0.6,0-1.2-0.1-1.6-0.3c-0.4-0.2-0.8-0.4-1.1-0.6l0.5-0.8c0,0,0.1,0.1,0.3,0.2c0.2,0.1,0.5,0.2,0.8,0.3
			c0.3,0.1,0.7,0.1,1,0.1c0.4,0,0.8-0.1,1.1-0.2c0.3-0.1,0.5-0.3,0.5-0.4c0-0.1,0.1-0.2,0.1-0.3c0-0.4-0.2-0.8-0.6-1.4
			c-0.4-0.6-1-1.1-1.9-1.8l0.5-0.9c0.9,0.7,1.6,1.4,2.1,2.1c0.5,0.7,0.8,1.4,0.8,2c0,0.3-0.1,0.5-0.2,0.8c-0.2,0.4-0.4,0.7-0.9,0.9
			C313.7,69.9,313.2,70,312.7,70z M327.1,73.5c-0.4,0.2-0.9,0.4-1.5,0.6c-0.6,0.2-1.3,0.2-2,0.2c-0.7,0-1.4-0.1-2-0.4
			c-0.6-0.3-1.1-0.6-1.4-1.1c-0.3-0.5-0.5-1.1-0.5-1.7c0-1.3,0.7-2.4,2-3.3c-0.4-0.2-0.8-0.4-1.1-0.8c-0.3-0.4-0.4-0.8-0.4-1.3
			c0-0.4,0.1-0.8,0.3-1.1c0.2-0.4,0.5-0.7,0.8-0.9s0.7-0.4,1.1-0.4c0,0,0.1,0,0.2,0c0.3,0,0.7,0.1,1,0.2c0.4,0.1,0.7,0.3,1,0.6
			l-0.4,0.7c-0.3-0.2-0.5-0.3-0.8-0.3c-0.3-0.1-0.5-0.1-0.8-0.1c-0.3,0-0.6,0.1-0.8,0.2c-0.2,0.1-0.4,0.3-0.5,0.5
			c-0.1,0.2-0.2,0.4-0.2,0.7c0,0.2,0.1,0.5,0.2,0.7c0.2,0.2,0.4,0.4,0.6,0.5c0.2,0.1,0.5,0.2,0.8,0.2c0.1,0,0.2,0,0.4,0
			c0.6-0.2,1.2-0.4,1.8-0.6l0.2,1c-1.3,0.4-2.3,0.8-3.1,1.5c-0.8,0.6-1.2,1.3-1.3,2.2c0,0.4,0.1,0.8,0.4,1.2
			c0.3,0.3,0.6,0.6,1.1,0.8c0.5,0.2,1,0.3,1.7,0.3c0.5,0,1.1-0.1,1.6-0.2c0.5-0.1,1-0.2,1.4-0.4L327.1,73.5z M327.8,72.5
			c1.1-0.2,2-0.6,2.6-1c0.6-0.4,1-0.9,1.1-1.5c-0.9,0-1.6-0.1-2.1-0.2c-0.5-0.1-0.9-0.4-1.1-0.8c-0.1-0.3-0.2-0.6-0.2-0.9
			c0-0.4,0.1-0.8,0.3-1.2c0.2-0.4,0.4-0.8,0.7-1c0.3-0.3,0.6-0.4,1-0.4c0.4,0,0.8,0.2,1.1,0.5c0.3,0.3,0.6,0.8,0.8,1.3
			c0.2,0.5,0.3,1.1,0.4,1.7h0.4l0.1,0.5l-0.1,0.5h-0.5c-0.1,0.9-0.6,1.6-1.3,2.2c-0.7,0.6-1.7,1-2.9,1.3L327.8,72.5z M329.1,68.4
			c0.1,0.2,0.4,0.3,0.8,0.4c0.4,0.1,1,0.1,1.6,0.1c-0.1-0.6-0.3-1.2-0.5-1.7c-0.3-0.5-0.6-0.7-1-0.8c-0.2,0-0.3,0.1-0.5,0.2
			s-0.3,0.3-0.4,0.6c-0.1,0.2-0.2,0.5-0.2,0.7C329,68.1,329,68.3,329.1,68.4z M332.7,68.9L332.7,68.9c0.7,0,1.1-0.1,1.4-0.2
			c0.3-0.1,0.5-0.3,0.6-0.6c0-0.1,0.1-0.3,0.1-0.5c0-0.2,0-0.5-0.1-1l0-0.3l0.9-0.2c0.1,0.5,0.2,1.1,0.2,1.9
			c0.1,0.3,0.2,0.5,0.4,0.6c0.2,0.1,0.4,0.2,0.7,0.2h0.1l0.1,0.5l-0.1,0.5h-0.1c-0.3,0-0.6-0.1-0.9-0.3c-0.3-0.2-0.5-0.4-0.6-0.7
			c-0.2,0.3-0.5,0.6-0.9,0.7c-0.4,0.1-0.9,0.2-1.6,0.2h-0.1V68.9z M334.3,63.4l0.9,0.9l-0.9,0.9l-0.9-0.9L334.3,63.4z M336.8,68.9
			h0.5c0.9,0,1.5-0.1,1.8-0.2c0.4-0.2,0.5-0.4,0.5-0.8c0-0.2-0.1-0.6-0.3-1.1c-0.2-0.5-0.3-0.9-0.4-1.1l0.9-0.5
			c0.2,0.3,0.3,0.7,0.5,1.3c0.2,0.5,0.2,1,0.2,1.4c0,0.7-0.3,1.3-0.8,1.6c-0.5,0.4-1.3,0.6-2.4,0.6h-0.6V68.9z M337.9,62.8l0.9,0.9
			l-0.9,0.9l-0.9-0.9L337.9,62.8z M340.1,62.8l0.9,0.9l-0.9,0.9l-0.9-0.9L340.1,62.8z"/>
	</g>
</g>
</svg>
