<svg width="32" height="32" viewBox="0 0 32 32" fill="currentColor" xmlns="http://www.w3.org/2000/svg">
<path fill-rule="evenodd" clip-rule="evenodd" d="M15.2409 16.0009H15.2382L13.8015 19.0819H21.4198L23.663 14.2714H31.9029C31.9602 14.7709 31.993 15.2775 32 15.7902C31.3023 15.6111 30.5714 15.5159 29.818 15.5159C24.9809 15.5159 21.0536 19.4432 21.0536 24.2805C21.0536 26.4166 21.8194 28.3752 23.0912 29.8966C22.4679 30.1959 21.8216 30.4569 21.1556 30.6766C21.1598 30.6752 21.164 30.6737 21.1683 30.6723C20.0912 29.218 19.3721 27.483 19.1415 25.5978H11.5503C11.5535 27.1119 12.3278 29.2801 15.8214 29.5672C16.0722 30.2301 16.3688 30.8707 16.7073 31.4849L16.7139 31.4847C16.4775 31.4948 16.2397 31.4998 16.0008 31.4998C8.25722 31.4998 1.79104 26.1601 0.315912 19.078L9.08062 19.0316L11.3238 14.2211H16.0709L15.2409 16.0009ZM24.3498 29.2222C23.167 27.9144 22.4463 26.181 22.4463 24.2805C22.4463 20.2119 25.7495 16.9087 29.818 16.9087C30.5602 16.9087 31.2766 17.0185 31.9524 17.2229C31.8951 17.9346 31.7879 18.6329 31.6344 19.3145C31.0679 19.107 30.4561 18.9938 29.818 18.9938C26.9004 18.9938 24.5314 21.3627 24.5314 24.2805C24.5314 25.7441 25.1275 27.0696 26.0901 28.0273C25.5391 28.4616 24.9579 28.861 24.3498 29.2222ZM27.2072 27.0596C26.4666 26.3637 26.0041 25.3757 26.0041 24.2805C26.0041 22.1755 27.7131 20.4664 29.818 20.4664C30.32 20.4664 30.7993 20.5636 31.2383 20.7401C31.0666 21.2585 30.8672 21.7651 30.6419 22.2581C30.3877 22.1543 30.1095 22.0971 29.818 22.0971C28.6132 22.0971 27.6347 23.0754 27.6347 24.2805C27.6347 24.9103 27.902 25.4782 28.329 25.8768C27.9762 26.2896 27.6017 26.6844 27.2072 27.0596ZM8.33708 17.7305H0.0972457C0.0398663 17.231 0.00707809 16.7243 0 16.2117C0.697634 16.3907 1.42873 16.4859 2.18193 16.4859C7.0192 16.4859 10.9465 12.5587 10.9465 7.7214C10.9465 5.58532 10.1807 3.62672 8.90885 2.10545C9.53219 1.80594 10.1785 1.54493 10.8445 1.3253C10.8403 1.3266 10.836 1.32816 10.8317 1.32947C11.9088 2.78386 12.628 4.51903 12.8586 6.40404H20.4498C20.4466 4.89011 19.6724 2.72192 16.1787 2.43464C15.9279 1.77185 15.6313 1.13117 15.2927 0.517046L15.2861 0.517306C15.5225 0.507158 15.7603 0.501953 15.9993 0.501953C23.7428 0.501953 30.2091 5.84172 31.6841 12.9239L22.9194 12.9702L20.6763 17.7808H15.9292L16.7592 16.0009H16.7619L18.1986 12.92H10.5802L8.33708 17.7305ZM7.65022 2.77969C8.83304 4.08758 9.55376 5.82093 9.55376 7.7214C9.55376 11.79 6.25055 15.0932 2.18193 15.0932C1.43992 15.0932 0.723397 14.9834 0.047699 14.779C0.105026 14.0673 0.212187 13.369 0.365719 12.6874C0.9322 12.8949 1.54393 13.0081 2.18193 13.0081C5.09974 13.0081 7.46861 10.6392 7.46861 7.7214C7.46861 6.25777 6.87257 4.93227 5.9101 3.97464C6.46097 3.54033 7.04218 3.14088 7.65022 2.77969ZM4.79299 4.94241C5.53335 5.63815 5.99598 6.62617 5.99598 7.7214C5.99598 9.82643 4.28696 11.5355 2.18193 11.5355C1.68003 11.5355 1.20065 11.4383 0.761624 11.2617C0.933553 10.7434 1.13294 10.2368 1.35808 9.74378C1.61235 9.84758 1.8905 9.90481 2.18193 9.90481C3.38697 9.90481 4.36531 8.92644 4.36531 7.7214C4.36531 7.0916 4.09808 6.52372 3.67093 6.12505C4.02384 5.71226 4.39844 5.3174 4.79299 4.94241Z" fill="currentColor"/>
</svg>
