<svg width="361" height="150" viewBox="0 0 361 150" fill="currentColor" xmlns="http://www.w3.org/2000/svg">
<mask id="path-1-inside-1_13573_91640" fill="currentColor">
<path d="M0 48C0 21.4903 21.4903 0 48 0H313C339.51 0 361 21.4903 361 48V102C361 128.51 339.51 150 313 150H48C21.4903 150 0 128.51 0 102V48Z"/>
</mask>
<path d="M48 150V149.5C46.4281 149.5 44.8742 149.424 43.3418 149.275L43.2934 149.772L43.2449 150.27C44.8095 150.422 46.3957 150.5 48 150.5V150ZM34.0616 147.945L34.2066 147.466C31.2028 146.556 28.3248 145.357 25.605 143.9L25.3689 144.341L25.1329 144.782C27.9101 146.269 30.8491 147.494 33.9166 148.423L34.0616 147.945ZM17.5487 139.106L17.8661 138.72C15.4621 136.744 13.2555 134.538 11.2804 132.134L10.8941 132.451L10.5078 132.769C12.5242 135.223 14.777 137.476 17.2312 139.492L17.5487 139.106ZM5.65925 124.631L6.10001 124.395C4.64324 121.675 3.44361 118.797 2.53355 115.793L2.05503 115.938L1.57651 116.083C2.5059 119.151 3.73097 122.09 5.21849 124.867L5.65925 124.631ZM0.227823 106.707L0.725472 106.658C0.576334 105.126 0.5 103.572 0.5 102H0H-0.5C-0.5 103.604 -0.422092 105.19 -0.269826 106.755L0.227823 106.707ZM0 102H0.5V97.5H0H-0.5V102H0ZM0 88.5H0.5V79.5H0H-0.5V88.5H0ZM0 70.5H0.5V61.5H0H-0.5V70.5H0ZM0 52.5H0.5V48H0H-0.5V52.5H0ZM0 48H0.5C0.5 46.4281 0.576334 44.8742 0.725473 43.3418L0.227824 43.2934L-0.269825 43.2449C-0.422091 44.8095 -0.5 46.3957 -0.5 48H0ZM2.05504 34.0616L2.53356 34.2066C3.44362 31.2028 4.64324 28.3248 6.10001 25.605L5.65925 25.3689L5.21849 25.1329C3.73097 27.9101 2.5059 30.8491 1.57652 33.9166L2.05504 34.0616ZM10.8941 17.5487L11.2804 17.8661C13.2555 15.4621 15.4621 13.2555 17.8661 11.2804L17.5487 10.8941L17.2312 10.5077C14.777 12.5242 12.5242 14.777 10.5078 17.2312L10.8941 17.5487ZM25.3689 5.65925L25.605 6.10001C28.3248 4.64324 31.2028 3.44362 34.2066 2.53356L34.0616 2.05504L33.9166 1.57652C30.8491 2.5059 27.9101 3.73097 25.1329 5.21849L25.3689 5.65925ZM43.2934 0.227823L43.3418 0.725472C44.8742 0.576334 46.4281 0.5 48 0.5V0V-0.5C46.3957 -0.5 44.8095 -0.422091 43.2449 -0.269825L43.2934 0.227823ZM48 0V0.5H53.0962V0V-0.5H48V0ZM63.2885 0V0.5H73.4808V0V-0.5H63.2885V0ZM83.6731 0V0.5H93.8654V0V-0.5H83.6731V0ZM104.058 0V0.5H114.25V0V-0.5H104.058V0ZM124.442 0V0.5H134.635V0V-0.5H124.442V0ZM144.827 0V0.5H155.019V0V-0.5H144.827V0ZM165.212 0V0.5H175.404V0V-0.5H165.212V0ZM185.596 0V0.5H195.788V0V-0.5H185.596V0ZM205.981 0V0.5H216.173V0V-0.5H205.981V0ZM226.365 0V0.5H236.558V0V-0.5H226.365V0ZM246.75 0V0.5H256.942V0V-0.5H246.75V0ZM267.135 0V0.5H277.327V0V-0.5H267.135V0ZM287.519 0V0.5H297.712V0V-0.5H287.519V0ZM307.904 0V0.5H313V0V-0.5H307.904V0ZM313 0V0.5C314.572 0.5 316.126 0.576334 317.658 0.725473L317.707 0.227824L317.755 -0.269825C316.19 -0.422091 314.604 -0.5 313 -0.5V0ZM326.938 2.05504L326.793 2.53356C329.797 3.44362 332.675 4.64324 335.395 6.10001L335.631 5.65925L335.867 5.21849C333.09 3.73097 330.151 2.5059 327.083 1.57652L326.938 2.05504ZM343.451 10.8941L343.134 11.2804C345.538 13.2555 347.744 15.4621 349.72 17.8661L350.106 17.5487L350.492 17.2312C348.476 14.777 346.223 12.5242 343.769 10.5078L343.451 10.8941ZM355.341 25.3689L354.9 25.605C356.357 28.3248 357.556 31.2028 358.466 34.2066L358.945 34.0616L359.423 33.9166C358.494 30.8491 357.269 27.9101 355.782 25.1329L355.341 25.3689ZM360.772 43.2934L360.275 43.3418C360.424 44.8742 360.5 46.4281 360.5 48H361H361.5C361.5 46.3957 361.422 44.8095 361.27 43.2449L360.772 43.2934ZM361 48H360.5V52.5H361H361.5V48H361ZM361 61.5H360.5V70.5H361H361.5V61.5H361ZM361 79.5H360.5V88.5H361H361.5V79.5H361ZM361 97.5H360.5V102H361H361.5V97.5H361ZM361 102H360.5C360.5 103.572 360.424 105.126 360.275 106.658L360.772 106.707L361.27 106.755C361.422 105.19 361.5 103.604 361.5 102H361ZM358.945 115.938L358.466 115.793C357.556 118.797 356.357 121.675 354.9 124.395L355.341 124.631L355.781 124.867C357.269 122.09 358.494 119.151 359.423 116.083L358.945 115.938ZM350.106 132.451L349.72 132.134C347.744 134.538 345.538 136.744 343.134 138.72L343.451 139.106L343.769 139.492C346.223 137.476 348.476 135.223 350.492 132.769L350.106 132.451ZM335.631 144.341L335.395 143.9C332.675 145.357 329.797 146.556 326.793 147.466L326.938 147.945L327.083 148.423C330.151 147.494 333.09 146.269 335.867 144.782L335.631 144.341ZM317.707 149.772L317.658 149.275C316.126 149.424 314.572 149.5 313 149.5V150V150.5C314.604 150.5 316.19 150.422 317.755 150.27L317.707 149.772ZM313 150V149.5H307.904V150V150.5H313V150ZM297.712 150V149.5H287.519V150V150.5H297.712V150ZM277.327 150V149.5H267.135V150V150.5H277.327V150ZM256.942 150V149.5H246.75V150V150.5H256.942V150ZM236.558 150V149.5H226.365V150V150.5H236.558V150ZM216.173 150V149.5H205.981V150V150.5H216.173V150ZM195.788 150V149.5H185.596V150V150.5H195.788V150ZM175.404 150V149.5H165.212V150V150.5H175.404V150ZM155.019 150V149.5H144.827V150V150.5H155.019V150ZM134.635 150V149.5H124.442V150V150.5H134.635V150ZM114.25 150V149.5H104.058V150V150.5H114.25V150ZM93.8654 150V149.5H83.6731V150V150.5H93.8654V150ZM73.4808 150V149.5H63.2885V150V150.5H73.4808V150ZM53.0962 150V149.5H48V150V150.5H53.0962V150ZM48 150V149C46.4443 149 44.9066 148.924 43.3902 148.777L43.2934 149.772L43.1965 150.767C44.7772 150.921 46.3795 151 48 151V150ZM34.0616 147.945L34.3516 146.988C31.3797 146.088 28.5322 144.901 25.8411 143.459L25.3689 144.341L24.8968 145.222C27.7027 146.725 30.6722 147.963 33.7717 148.902L34.0616 147.945ZM17.5487 139.106L18.1835 138.333C15.8047 136.379 13.6212 134.195 11.6667 131.817L10.8941 132.451L10.1214 133.086C12.1586 135.566 14.4344 137.841 16.9138 139.879L17.5487 139.106ZM5.65925 124.631L6.54076 124.159C5.09938 121.468 3.91247 118.62 3.01207 115.648L2.05503 115.938L1.09799 116.228C2.03705 119.328 3.27483 122.297 4.77773 125.103L5.65925 124.631ZM0.227823 106.707L1.22312 106.61C1.07555 105.093 1 103.556 1 102H0H-1C-1 103.62 -0.921305 105.223 -0.767475 106.803L0.227823 106.707ZM0 102H1V97.5H0H-1V102H0ZM0 88.5H1V79.5H0H-1V88.5H0ZM0 70.5H1V61.5H0H-1V70.5H0ZM0 52.5H1V48H0H-1V52.5H0ZM0 48H1C1 46.4443 1.07555 44.9066 1.22312 43.3902L0.227824 43.2934L-0.767474 43.1965C-0.921304 44.7771 -1 46.3795 -1 48H0ZM2.05504 34.0616L3.01208 34.3516C3.91247 31.3797 5.09938 28.5322 6.54077 25.8411L5.65925 25.3689L4.77773 24.8968C3.27483 27.7027 2.03705 30.6722 1.098 33.7717L2.05504 34.0616ZM10.8941 17.5487L11.6667 18.1835C13.6212 15.8047 15.8047 13.6212 18.1835 11.6667L17.5487 10.8941L16.9138 10.1214C14.4344 12.1586 12.1586 14.4344 10.1214 16.9138L10.8941 17.5487ZM25.3689 5.65925L25.8411 6.54077C28.5322 5.09938 31.3797 3.91247 34.3516 3.01208L34.0616 2.05504L33.7717 1.098C30.6722 2.03705 27.7027 3.27483 24.8968 4.77773L25.3689 5.65925ZM43.2934 0.227823L43.3902 1.22312C44.9066 1.07555 46.4443 1 48 1V0V-1C46.3795 -1 44.7771 -0.921304 43.1965 -0.767474L43.2934 0.227823ZM48 0V1H53.0962V0V-1H48V0ZM63.2885 0V1H73.4808V0V-1H63.2885V0ZM83.6731 0V1H93.8654V0V-1H83.6731V0ZM104.058 0V1H114.25V0V-1H104.058V0ZM124.442 0V1H134.635V0V-1H124.442V0ZM144.827 0V1H155.019V0V-1H144.827V0ZM165.212 0V1H175.404V0V-1H165.212V0ZM185.596 0V1H195.788V0V-1H185.596V0ZM205.981 0V1H216.173V0V-1H205.981V0ZM226.365 0V1H236.558V0V-1H226.365V0ZM246.75 0V1H256.942V0V-1H246.75V0ZM267.135 0V1H277.327V0V-1H267.135V0ZM287.519 0V1H297.712V0V-1H287.519V0ZM307.904 0V1H313V0V-1H307.904V0ZM313 0V1C314.556 1 316.093 1.07555 317.61 1.22312L317.707 0.227824L317.803 -0.767474C316.223 -0.921304 314.62 -1 313 -1V0ZM326.938 2.05504L326.648 3.01208C329.62 3.91247 332.468 5.09938 335.159 6.54077L335.631 5.65925L336.103 4.77774C333.297 3.27483 330.328 2.03705 327.228 1.098L326.938 2.05504ZM343.451 10.8941L342.817 11.6667C345.195 13.6212 347.379 15.8047 349.333 18.1835L350.106 17.5487L350.879 16.9138C348.841 14.4344 346.566 12.1586 344.086 10.1214L343.451 10.8941ZM355.341 25.3689L354.459 25.8411C355.901 28.5322 357.088 31.3797 357.988 34.3516L358.945 34.0616L359.902 33.7717C358.963 30.6722 357.725 27.7027 356.222 24.8968L355.341 25.3689ZM360.772 43.2934L359.777 43.3902C359.924 44.9066 360 46.4443 360 48H361H362C362 46.3795 361.921 44.7771 361.767 43.1965L360.772 43.2934ZM361 48H360V52.5H361H362V48H361ZM361 61.5H360V70.5H361H362V61.5H361ZM361 79.5H360V88.5H361H362V79.5H361ZM361 97.5H360V102H361H362V97.5H361ZM361 102H360C360 103.556 359.924 105.093 359.777 106.61L360.772 106.707L361.767 106.804C361.921 105.223 362 103.62 362 102H361ZM358.945 115.938L357.988 115.648C357.088 118.62 355.901 121.468 354.459 124.159L355.341 124.631L356.222 125.103C357.725 122.297 358.963 119.328 359.902 116.228L358.945 115.938ZM350.106 132.451L349.333 131.817C347.379 134.195 345.195 136.379 342.817 138.333L343.451 139.106L344.086 139.879C346.566 137.841 348.841 135.566 350.879 133.086L350.106 132.451ZM335.631 144.341L335.159 143.459C332.468 144.901 329.62 146.088 326.648 146.988L326.938 147.945L327.228 148.902C330.328 147.963 333.297 146.725 336.103 145.222L335.631 144.341ZM317.707 149.772L317.61 148.777C316.093 148.924 314.556 149 313 149V150V151C314.62 151 316.223 150.921 317.803 150.767L317.707 149.772ZM313 150V149H307.904V150V151H313V150ZM297.712 150V149H287.519V150V151H297.712V150ZM277.327 150V149H267.135V150V151H277.327V150ZM256.942 150V149H246.75V150V151H256.942V150ZM236.558 150V149H226.365V150V151H236.558V150ZM216.173 150V149H205.981V150V151H216.173V150ZM195.788 150V149H185.596V150V151H195.788V150ZM175.404 150V149H165.212V150V151H175.404V150ZM155.019 150V149H144.827V150V151H155.019V150ZM134.635 150V149H124.442V150V151H134.635V150ZM114.25 150V149H104.058V150V151H114.25V150ZM93.8654 150V149H83.6731V150V151H93.8654V150ZM73.4808 150V149H63.2885V150V151H73.4808V150ZM53.0962 150V149H48V150V151H53.0962V150Z" fill="currentColor" mask="url(#path-1-inside-1_13573_91640)"/>
</svg>
