<svg width="56" height="56" viewBox="0 0 56 56" fill="none" xmlns="http://www.w3.org/2000/svg">
<path d="M28 0.5C43.1877 0.5 55.5 12.8123 55.5 28C55.4998 43.1875 43.1876 55.499 28 55.499C12.8124 55.499 0.500151 43.1875 0.5 28C0.5 12.8123 12.8123 0.500005 28 0.5Z" fill="#F2F2F7"/>
<path d="M28 0.5C43.1877 0.5 55.5 12.8123 55.5 28C55.4998 43.1875 43.1876 55.499 28 55.499C12.8124 55.499 0.500151 43.1875 0.5 28C0.5 12.8123 12.8123 0.500005 28 0.5Z" stroke="#D1D1D6"/>
<path fill-rule="evenodd" clip-rule="evenodd" d="M28.5554 37.9891C35.009 35.4333 39.8675 31.4256 39.4043 29.04C39.1389 27.6709 37.1782 27.1335 34.3364 27.4069L34.2845 27.4665L34.1403 27.6398C36.0297 27.5992 37.294 28.0716 37.4874 29.0696C37.8763 31.077 33.7883 34.4498 28.358 36.6009C22.9269 38.7513 18.2067 38.8667 17.8174 36.859C17.6322 35.904 18.4611 34.6394 19.9659 33.3447C20.0368 33.2835 20.1082 33.2217 20.1795 33.1618C20.2441 33.0197 20.3125 32.8804 20.3844 32.7335C20.357 32.7525 20.2355 32.8484 20.2082 32.8669C17.4183 34.8167 15.7507 36.8531 16.0305 38.2966C16.4933 40.6822 22.102 40.5444 28.5556 37.9891" fill="#1C1C1E"/>
<path fill-rule="evenodd" clip-rule="evenodd" d="M27.8715 22.9891C22.2766 28.5329 18.5591 34.6941 19.5694 36.7486C20.2963 38.2262 23.2711 37.1774 26.9657 34.4097V34.143C24.1557 36.1209 21.9474 36.8055 21.3782 35.6491C20.5281 33.9196 23.657 28.7349 28.365 24.0695C33.0736 19.4047 37.5817 17.0234 38.4321 18.7518C39.1092 20.1282 37.2837 23.729 34.1082 27.4461L33.9428 27.6392L34.1488 27.6386C38.2294 22.9529 40.6773 18.3826 39.8345 16.6695C38.8239 14.6158 33.467 17.4456 27.8715 22.9891Z" fill="#1C1C1E"/>
</svg>
