<svg width="41" height="40" viewBox="0 0 41 40" fill="none" xmlns="http://www.w3.org/2000/svg">
<g clip-path="url(#clip0_13563_230517)">
<path d="M32.3494 2.97217H13.9995V10.5817H36.2685V6.88971C36.2685 4.72937 34.5104 2.97217 32.3494 2.97217Z" fill="#FFEB85"/>
<path d="M21.9621 11.7526H0.5V4.69177C0.5 2.10449 2.60541 0 5.1936 0H12.0558C12.7379 0 13.3949 0.143738 13.9918 0.413818C14.8256 0.78949 15.5418 1.40869 16.0441 2.21771L21.9621 11.7526Z" fill="#D5B208"/>
<path d="M40.5 13.3335V36.0776C40.5 38.2407 38.7391 40.0001 36.5751 40.0001H4.42487C2.26086 40.0001 0.5 38.2407 0.5 36.0776V9.41016H36.5751C38.7391 9.41016 40.5 11.1701 40.5 13.3335Z" fill="#D5B208"/>
<path d="M40.5 13.3335V36.0776C40.5 38.2407 38.7391 40.0001 36.5751 40.0001H20.5V9.41016H36.5751C38.7391 9.41016 40.5 11.1701 40.5 13.3335Z" fill="#D5B208"/>
<path d="M31.0217 24.7045C31.0217 30.5068 26.3016 35.2272 20.4999 35.2272C14.6982 35.2272 9.97803 30.5068 9.97803 24.7045C9.97803 18.9031 14.6982 14.1826 20.4999 14.1826C26.3016 14.1826 31.0217 18.9031 31.0217 24.7045Z" fill="white"/>
<path d="M31.0219 24.7045C31.0219 30.5068 26.3017 35.2272 20.5 35.2272V14.1826C26.3017 14.1826 31.0219 18.9031 31.0219 24.7045Z" fill="#FFEB85"/>
<path d="M23.8914 24.8334C23.672 25.0193 23.4032 25.1099 23.1367 25.1099C22.8032 25.1099 22.4718 24.9686 22.2398 24.6934L21.6719 24.0201V28.4278C21.6719 29.0748 21.147 29.5997 20.5 29.5997C19.853 29.5997 19.3281 29.0748 19.3281 28.4278V24.0201L18.7602 24.6934C18.3421 25.188 17.6033 25.2512 17.1086 24.8334C16.6142 24.4163 16.5507 23.6771 16.9679 23.1824L19.2875 20.4325C19.59 20.0748 20.0313 19.8691 20.5 19.8691C20.9688 19.8691 21.41 20.0748 21.7125 20.4325L24.0321 23.1824C24.4493 23.6771 24.3858 24.4163 23.8914 24.8334Z" fill="#D5B208"/>
<path d="M23.8914 24.8334C23.672 25.0193 23.4031 25.1099 23.1367 25.1099C22.8032 25.1099 22.4717 24.9686 22.2398 24.6934L21.6719 24.0201V28.4278C21.6719 29.0748 21.147 29.5997 20.5 29.5997V19.8691C20.9688 19.8691 21.41 20.0748 21.7125 20.4325L24.0321 23.1824C24.4493 23.6771 24.3858 24.4163 23.8914 24.8334Z" fill="#D5B208"/>
</g>
<defs>
<clipPath id="clip0_13563_230517">
<rect width="40" height="40" fill="white" transform="translate(0.5)"/>
</clipPath>
</defs>
</svg>
