<svg width="32" height="32" viewBox="0 0 32 32" fill="currentColor" xmlns="http://www.w3.org/2000/svg">
<path fill-rule="evenodd" clip-rule="evenodd" d="M1.23687 9.72424L4.92589 11.2561C3.69953 14.1734 3.68893 17.4544 4.89726 20.379C7.4113 26.4648 14.4248 29.3775 20.5494 26.8787C26.6073 24.408 29.5386 17.5748 27.1756 11.5359L27.091 11.3256L30.7894 9.81697C34.1439 17.9366 30.2395 27.2211 22.0676 30.5544C13.9016 33.8857 4.55071 30.002 1.19822 21.8877C-0.412734 17.9889 -0.398748 13.6132 1.23687 9.72424ZM19.3928 23.428L19.4161 23.4485C19.9547 23.8995 20.5266 24.3088 21.1744 24.5916C21.3363 24.6618 21.5023 24.7247 21.6703 24.7797C20.028 25.8128 18.0805 26.4122 15.9936 26.4122C15.5938 26.4122 15.1992 26.3904 14.8106 26.3473C15.2565 26.1513 15.6951 25.936 16.1243 25.7056C17.0514 25.2095 17.9445 24.6446 18.7629 23.9849C18.8796 23.8882 18.9949 23.7909 19.1089 23.6909C19.2049 23.6048 19.2995 23.518 19.3928 23.428ZM19.6254 18.0475C20.144 18.584 20.6978 19.088 21.3117 19.5165C22.0881 20.0596 22.9532 20.4722 23.877 20.6994C24.3529 20.8152 24.8368 20.8808 25.3247 20.9073C24.6595 22.1166 23.7624 23.1836 22.694 24.0472L22.6353 24.0379C22.3827 23.9936 22.1341 23.9306 21.8922 23.8472C21.4556 23.6962 21.0478 23.477 20.6705 23.214C20.3872 23.016 20.1233 22.7948 19.862 22.5703C19.6841 22.414 19.5068 22.2564 19.3295 22.1001L18.9476 22.516L18.8856 22.5816C18.2371 23.2465 17.4726 23.7942 16.6841 24.2823C15.6818 24.9022 14.6207 25.432 13.5136 25.8413C13.385 25.887 13.2544 25.9267 13.1271 25.9751C13.1071 25.985 13.0884 25.9956 13.0698 26.0069C11.6828 25.6128 10.4104 24.9446 9.31736 24.0657C9.87191 23.9002 10.4231 23.7247 10.9696 23.5346C12.1906 23.1087 13.3857 22.608 14.5241 21.9954C15.5971 21.4166 16.6155 20.739 17.5606 19.9715C18.1698 19.4767 18.7437 18.9449 19.2962 18.3893C19.4621 18.2191 19.4615 18.2197 19.6254 18.0475ZM22.4387 12.0168C22.5327 12.0062 22.618 12.0863 22.598 12.1777C22.4227 12.9831 22.0168 16.1859 26.611 16.3183C26.5544 17.6071 26.2651 18.8363 25.7832 19.9655C25.254 19.9642 24.7268 19.9152 24.209 19.7973C23.3272 19.596 22.5074 19.1999 21.7762 18.6741C21.1817 18.2475 20.6499 17.7442 20.152 17.2111C19.976 17.0177 19.8001 16.825 19.6247 16.6322C19.1849 17.1144 18.7476 17.5952 18.2798 18.0509C17.5546 18.7575 16.7761 19.4106 15.9477 19.9947C14.8106 20.7954 13.5816 21.4583 12.2999 22.0014C11.2675 22.4398 10.2051 22.7968 9.13341 23.126C8.81816 23.2194 8.73616 23.2445 8.48155 23.3187C7.60379 22.4458 6.87796 21.4219 6.34879 20.2887C7.49515 20.0126 8.90214 19.6059 10.0871 19.0615C15.7531 16.4567 16.7395 12.6566 22.4387 12.0168ZM3.28604 7.77879C3.32826 7.78138 3.37009 7.78642 3.41092 7.79791C3.50001 7.82293 3.58114 7.87185 3.65983 7.91884L3.98774 8.12553C4.00319 8.14014 4.00571 8.15149 3.99802 8.1712L3.583 8.82154C3.54893 8.88871 3.51062 8.95376 3.479 9.02213C3.44022 9.10596 3.40847 9.19523 3.39051 9.2859L3.38646 9.30847C3.37977 9.35155 3.37201 9.41314 3.40926 9.44534C3.43041 9.45868 3.45361 9.46824 3.47661 9.47793C3.49888 9.48636 3.52116 9.49386 3.54402 9.50069C3.65273 9.5291 3.76396 9.54669 3.8728 9.57437C3.90946 9.58472 3.94618 9.59554 3.98052 9.61214C4.06948 9.65535 4.13768 9.72398 4.20921 9.79029L4.21736 9.80197L4.21981 9.81597L4.2161 9.82971L4.20695 9.84066L4.19403 9.84677L4.17971 9.8469L3.76827 9.76208C3.65698 9.73739 3.54528 9.71402 3.43498 9.68521C3.41284 9.67838 3.39143 9.67068 3.36989 9.66225C3.3105 9.63696 3.24932 9.61054 3.20192 9.56581C3.09619 9.46618 3.07671 9.30688 3.09891 9.17048C3.11257 9.08638 3.14226 9.00547 3.17156 8.92575L3.17991 8.90411C3.14081 8.91679 3.13882 8.91434 3.11442 8.92774C3.09958 8.93591 3.08512 8.9454 3.07299 8.95735C3.01718 9.01244 3.04621 9.09122 3.06935 9.15329L3.07147 9.1649C3.06882 9.1793 3.0655 9.18481 3.05397 9.19391L2.96999 9.23898C2.95679 9.24336 2.95043 9.24329 2.93744 9.23844C2.92027 9.22424 2.9218 9.22311 2.90734 9.20619C2.87129 9.16072 2.83768 9.11359 2.8162 9.05936C2.80334 9.02704 2.79459 8.99253 2.79095 8.95788C2.78796 8.92887 2.78889 8.8994 2.79486 8.87079C2.79963 8.84796 2.80739 8.82506 2.81885 8.80462C2.8345 8.77667 2.85299 8.75079 2.87559 8.72795C2.95421 8.64837 3.0665 8.6181 3.17441 8.60343L3.34318 8.58219L3.63802 8.13031C3.61276 8.11604 3.58757 8.10283 3.56126 8.09062C3.53587 8.08027 3.51121 8.07164 3.48417 8.06679C3.42557 8.06832 3.42577 8.06825 3.36711 8.07137C3.33383 8.07416 3.30109 8.07788 3.26794 8.08173L3.25548 8.08086C3.24421 8.07542 3.24421 8.07549 3.23573 8.06626L3.09374 7.83773L3.08917 7.82532L3.08983 7.81218L3.0956 7.80023L3.10567 7.7916L3.11827 7.78749C3.16215 7.78244 3.16182 7.78244 3.2055 7.77919C3.24593 7.77806 3.2456 7.77799 3.28604 7.77879ZM29.4118 8.60184L29.423 8.61001L29.4299 8.62202L29.4313 8.63576L29.4269 8.6489L29.4175 8.65906L29.0451 8.92124L28.9586 8.98376C28.8182 9.07596 28.6786 9.16915 28.5368 9.25902C28.3645 9.36582 28.1818 9.48642 27.9733 9.50056C27.9269 9.50368 27.8804 9.50288 27.834 9.49903C27.8129 9.49724 27.7851 9.49863 27.7765 9.47421C27.7751 9.47029 27.7752 9.46598 27.7746 9.46186L27.7766 9.41354C27.7801 9.39854 27.7838 9.39323 27.7965 9.38454C27.8575 9.35792 27.9189 9.3325 27.979 9.30402C28.0217 9.28292 28.0624 9.25882 28.1036 9.23493L28.1338 9.21701C28.194 9.1801 28.2551 9.14459 28.3144 9.10623C28.562 8.94573 28.8028 8.77674 29.0468 8.61133L29.0551 8.60722L29.0642 8.60556L29.2302 8.59892C29.2907 8.59892 29.3526 8.5893 29.4118 8.60184ZM4.31129 8.47042L4.32408 8.47347L4.33469 8.48124L4.34151 8.49245L4.42411 8.72424L4.42603 8.73705C4.42199 8.75284 4.41801 8.75815 4.40389 8.76652L4.23486 8.82612L4.30884 9.02857L4.31076 9.04138L4.30764 9.05399L4.29995 9.06434L4.28875 9.07105L4.03481 9.16178C4.01393 9.1649 4.00345 9.16012 3.99232 9.1422L3.90701 8.91573C3.90356 8.89489 3.9084 8.88433 3.92643 8.87318L4.09592 8.80926L4.02221 8.61173L4.02016 8.59899C4.02394 8.58319 4.02778 8.57781 4.04164 8.56925L4.29823 8.47254L4.31129 8.47042ZM26.5823 8.13456C26.5957 8.13509 26.6016 8.13741 26.6119 8.14611C26.6446 8.20133 26.6596 8.26519 26.6828 8.32499C26.6925 8.35028 26.7032 8.3751 26.7142 8.39986C26.7381 8.45017 26.7626 8.50374 26.7988 8.54668C26.8423 8.59819 26.9003 8.63802 26.9571 8.67333C27.0566 8.73512 27.1648 8.78504 27.2791 8.81212C27.3797 8.83601 27.5017 8.85214 27.5994 8.8086C27.6321 8.794 27.662 8.77176 27.689 8.7486C27.7872 8.66403 27.8385 8.54708 27.8683 8.42389L27.8734 8.41261C27.8824 8.40398 27.8823 8.40398 27.8939 8.39926L28.1398 8.34822L28.1529 8.34816L28.165 8.353C28.168 8.35605 28.1712 8.35911 28.1743 8.36216L28.1793 8.37411V8.38712C28.1578 8.49478 28.1088 8.5954 28.0632 8.69463C28.0513 8.7182 28.051 8.7178 28.0382 8.74057C28.0178 8.77269 27.9976 8.80495 27.9722 8.83342C27.8975 8.91706 27.7967 8.97839 27.6986 9.03109C27.639 9.06308 27.5813 9.09753 27.5132 9.10616C27.4692 9.11173 27.4246 9.10941 27.3806 9.10642C27.2813 9.09979 27.1838 9.08173 27.0877 9.05638C26.9973 9.03262 26.9067 9.0048 26.8234 8.96173C26.7785 8.93843 26.7348 8.91015 26.7007 8.87239C26.6596 8.82699 26.6328 8.76639 26.608 8.71136C26.5321 8.54283 26.5059 8.36382 26.4729 8.18321L26.4732 8.16987L26.4789 8.15773L26.4889 8.14877L26.5016 8.14445L26.5823 8.13456ZM28.3646 7.80189C28.4461 7.81118 28.5276 7.82047 28.6092 7.8297C28.6295 7.83614 28.6367 7.84523 28.6385 7.86627L28.6078 8.13781L28.6038 8.15029L28.5952 8.16025L28.5834 8.16609L28.5703 8.16695L28.3243 8.13383L28.3121 8.12971C28.2999 8.1191 28.2969 8.11325 28.2957 8.09713L28.3277 7.83089C28.3342 7.81078 28.3434 7.80361 28.3646 7.80189ZM4.89103 5.57574C4.90588 5.5768 4.92072 5.57793 4.93557 5.57905C5.01836 5.58868 5.10082 5.60355 5.17652 5.63959C5.22087 5.66076 5.26104 5.6909 5.29928 5.72123C5.34628 5.75847 5.39096 5.79856 5.43457 5.83958C5.51664 5.91677 5.59857 5.99416 5.68063 6.07149L5.68812 6.08205C5.69176 6.09797 5.69064 6.10441 5.68189 6.11829L5.19601 6.62818C5.01783 6.83832 4.8256 7.03738 4.66075 7.25795C4.55728 7.39627 4.45818 7.53798 4.35106 7.67352C4.33687 7.68892 4.33707 7.68872 4.32156 7.70312C4.29982 7.72038 4.27761 7.73531 4.25216 7.74667C4.23108 7.75609 4.20947 7.762 4.187 7.76678C4.14524 7.77574 4.09957 7.76897 4.06464 7.74414C4.04289 7.72874 4.02467 7.7089 4.00471 7.69131C3.96792 7.65892 3.93644 7.62327 3.90462 7.58584L3.89872 7.57562C3.8968 7.56407 3.8968 7.56407 3.89905 7.55252L3.91834 7.50287C3.92669 7.48959 3.93193 7.48574 3.94718 7.48176L4.02699 7.50187C4.03666 7.5024 4.04535 7.50227 4.05476 7.50008C4.06278 7.49729 4.06861 7.49291 4.07551 7.48787C4.08379 7.48037 4.09055 7.4726 4.09745 7.46371L4.37698 7.08716C4.28225 7.02052 4.17189 6.95528 4.0535 6.94552C3.99948 6.94107 3.94519 6.9489 3.89355 6.96477C3.8443 6.9799 3.79803 7.00227 3.75336 7.02762L3.74043 7.03181L3.72691 7.03048L3.71498 7.02391L3.49636 6.8358L3.48828 6.82531L3.48496 6.8125L3.48689 6.79943L3.49385 6.78814L3.50472 6.78051C3.60494 6.73637 3.70928 6.70511 3.81951 6.7002C3.96567 6.69369 4.10646 6.73285 4.23711 6.79564C4.32667 6.83859 4.40999 6.89049 4.48516 6.95527L4.8264 6.56054C4.78351 6.52536 4.73506 6.4945 4.68183 6.47777C4.62323 6.47193 4.62343 6.47193 4.56497 6.46729C4.53182 6.46563 4.49914 6.46443 4.466 6.46443L4.45354 6.46198C4.44287 6.45514 4.44287 6.45521 4.43557 6.44485L4.32494 6.19979L4.32203 6.18692L4.32441 6.17391L4.3317 6.16289L4.34271 6.15559L4.35577 6.15313C4.40004 6.15373 4.39971 6.15366 4.44359 6.15605C4.51313 6.16296 4.58147 6.17364 4.6461 6.20106C4.76084 6.24977 4.85735 6.33779 4.95188 6.41638L5.33766 6.01162C5.29663 5.97399 5.25036 5.9394 5.1978 5.91969C5.13973 5.9102 5.14 5.9102 5.08153 5.90223C5.04859 5.89865 5.01598 5.8956 4.98297 5.89341L4.97077 5.89029C4.96069 5.88285 4.96069 5.88285 4.95407 5.87223L4.85742 5.62054L4.85523 5.60746L4.85835 5.59465L4.8663 5.58403L4.87784 5.5774L4.89103 5.57574ZM5.46208 7.00041C5.46619 7.00194 5.4703 7.00353 5.47441 7.00512L5.48389 7.01422L5.48913 7.02623L5.53977 7.26598L5.5399 7.27885C5.5338 7.29399 5.52923 7.2987 5.51412 7.30514L5.33965 7.34218L5.38479 7.55265L5.38499 7.56553C5.37896 7.58066 5.37439 7.58537 5.35941 7.59188L5.09413 7.65016C5.07292 7.65062 5.06311 7.64445 5.05442 7.6252L5.00047 7.38943C4.99987 7.36826 5.0061 7.3585 5.02546 7.34981L5.2033 7.30892L5.15736 7.10243L5.1571 7.08962C5.16293 7.07449 5.16744 7.06971 5.18229 7.06307L5.44889 7.00081L5.46208 7.00041ZM27.9565 6.32418L27.969 6.33035L27.9779 6.34097L27.9816 6.35425L27.9795 6.36792L27.972 6.3796L27.6508 6.70272L27.5758 6.77858C27.4541 6.89408 27.3342 7.0099 27.2103 7.12261C27.0865 7.23299 26.9596 7.3528 26.8057 7.42043C26.7182 7.4588 26.6251 7.47579 26.5302 7.48209L26.518 7.4807C26.5045 7.47346 26.5002 7.46855 26.4951 7.45415L26.4877 7.40716C26.4883 7.39136 26.491 7.38539 26.5024 7.37437C26.5582 7.33793 26.6144 7.30215 26.6688 7.26365C26.7722 7.18619 26.8707 7.09778 26.9646 7.01023C27.18 6.80918 27.3879 6.60143 27.5991 6.3962L27.6066 6.39076L27.6153 6.38757L27.7773 6.35232C27.8369 6.34197 27.8961 6.32192 27.9565 6.32418ZM25.7397 5.1599L25.7525 5.16474L25.7623 5.17423L25.7673 5.18684L25.7801 5.2584L25.78 5.27008C25.7749 5.28369 25.7707 5.28847 25.7579 5.2955L25.6205 5.3423C25.568 5.36466 25.5206 5.39327 25.4772 5.43044C25.4604 5.44478 25.4437 5.45918 25.4328 5.47863C25.4042 5.52974 25.4164 5.59492 25.4324 5.64789C25.4688 5.76796 25.5393 5.87303 25.6248 5.96396L26.3746 6.74819C26.4204 6.70365 26.4667 6.65446 26.4976 6.59824C26.5325 6.53492 26.5401 6.45979 26.5351 6.38903L26.5373 6.37469L26.5454 6.36268L26.5579 6.35524L26.8199 6.26982L26.8334 6.26829L26.8464 6.27228L26.8567 6.2811L26.8626 6.29332L26.8631 6.30679C26.852 6.37217 26.8469 6.44797 26.8196 6.51149C26.7876 6.58596 26.7357 6.65134 26.6837 6.71281C26.5676 6.84987 26.432 6.96994 26.3021 7.09347L26.2911 7.10037L26.2783 7.10263L26.2656 7.09977L26.255 7.09234L25.6284 6.44569C25.5248 6.33714 25.4224 6.2275 25.3224 6.1157C25.2198 5.99523 25.1364 5.85909 25.1224 5.69866C25.1161 5.62698 25.1248 5.55277 25.1601 5.48898C25.1848 5.44438 25.2216 5.41086 25.2599 5.37794C25.2947 5.348 25.3311 5.31986 25.3694 5.29457C25.4302 5.25448 25.495 5.22348 25.565 5.20311L25.726 5.16063L25.7397 5.1599ZM25.427 6.52729C25.4415 6.53499 25.4457 6.54003 25.4504 6.5557L25.4778 6.8279L25.4765 6.84098L25.4701 6.85246L25.4598 6.86069L25.4471 6.86421L25.1998 6.88206L25.187 6.88054C25.1729 6.8727 25.1687 6.86753 25.1642 6.85206L25.1395 6.58583C25.1417 6.56486 25.1492 6.55596 25.1694 6.54986C25.2552 6.54149 25.3412 6.51886 25.427 6.52729ZM28.0377 5.84429C28.051 5.84575 28.063 5.84767 28.0758 5.85206C28.1833 5.88883 28.2181 6.01315 28.2481 6.10992C28.2571 6.13674 28.2666 6.16296 28.2781 6.18878C28.312 6.25641 28.3755 6.29272 28.4356 6.3356L28.4437 6.34383C28.4484 6.35432 28.4484 6.35412 28.4493 6.36586L28.444 6.4175C28.4378 6.43755 28.4289 6.44492 28.4079 6.44711C28.3788 6.44452 28.3501 6.44093 28.3214 6.43562C28.2974 6.43031 28.2734 6.42461 28.2508 6.41472C28.1533 6.3719 28.0949 6.29093 28.0552 6.19568C28.0304 6.13057 28.0085 6.06313 27.9773 6.0006C27.9633 5.97817 27.9335 5.96602 27.9122 5.95441L27.9014 5.94498L27.8956 5.93197L27.8959 5.91777L27.9072 5.87004L27.9134 5.85723L27.9245 5.84814L27.9384 5.84456C27.9717 5.84343 28.0044 5.84276 28.0377 5.84429ZM4.76442 4.4463L4.77688 4.45254L5.13317 4.73642L5.21755 4.80094C5.34602 4.9092 5.47514 5.016 5.60142 5.12651C5.7324 5.24373 5.87458 5.36519 5.95757 5.5229C5.99688 5.59751 6.01842 5.67882 6.03321 5.76132L6.03307 5.77373C6.02711 5.7882 6.02253 5.79285 6.00828 5.79935L5.96162 5.81057C5.94611 5.81137 5.93994 5.80931 5.92801 5.79949C5.88559 5.74824 5.84356 5.6968 5.79968 5.64676C5.7603 5.60328 5.71622 5.56332 5.67254 5.52396C5.62004 5.47657 5.56827 5.42825 5.51458 5.38212C5.22955 5.13753 5.22697 5.13793 4.99424 4.95234L4.83402 4.81966C4.82766 4.81276 4.82786 4.81295 4.82375 4.80479L4.77085 4.64848L4.72405 4.48752L4.72306 4.47371L4.72783 4.4607L4.73751 4.45081L4.7505 4.4457L4.76442 4.4463ZM4.64153 5.26596L4.65339 5.27161L4.66214 5.28143L4.66638 5.29384L4.69774 5.53823C4.69628 5.55921 4.68919 5.56837 4.66917 5.57527L4.4019 5.61165C4.38082 5.61045 4.37154 5.60355 4.36445 5.58377L4.32846 5.34402C4.32945 5.32291 4.33641 5.31355 4.35636 5.30639C4.45128 5.29205 4.54561 5.26132 4.64153 5.26596ZM6.20555 4.23702C6.24797 4.2416 6.28993 4.24983 6.33096 4.26171C6.48223 4.30538 6.61666 4.39778 6.72735 4.50756C6.75917 4.53916 6.7886 4.57367 6.81863 4.60686C6.89612 4.69248 6.96751 4.7801 7.04208 4.86944L7.04831 4.88079C7.05004 4.89705 7.04811 4.90336 7.03784 4.91603C6.87603 5.05011 6.71986 5.19129 6.55183 5.3176C6.4693 5.37084 6.34051 5.40197 6.26415 5.32218C6.23796 5.29026 6.21218 5.25787 6.18957 5.22342C6.17154 5.19142 6.151 5.15691 6.1447 5.1204L6.14815 5.10706L6.15676 5.09624L6.19541 5.06445L6.20813 5.05794L6.22239 5.05735C6.23458 5.06226 6.23452 5.06199 6.24519 5.06929C6.26037 5.07832 6.27648 5.08622 6.29451 5.08708C6.30544 5.08171 6.31539 5.07507 6.32559 5.06843C6.43616 4.99064 6.54063 4.90482 6.64556 4.81972L6.72 4.75859C6.63429 4.66115 6.53141 4.55993 6.3999 4.53053C6.35244 4.51997 6.30326 4.51838 6.25493 4.52323C6.21165 4.52754 6.1675 4.5359 6.12647 4.55031L6.11222 4.55203L6.09856 4.54765L6.08802 4.53803L5.92204 4.3016L5.91681 4.28945L5.91667 4.27625L5.92178 4.2641L5.93126 4.25487L5.94365 4.25003C6.03016 4.23489 6.11785 4.22766 6.20555 4.23702ZM7.98951 2.05288C8.00091 2.05866 8.00085 2.05859 8.00926 2.06828L8.0959 2.21862L8.09994 2.2311L8.14137 2.18039C8.15516 2.16897 8.1716 2.1626 8.18784 2.17521C8.19122 2.17786 8.19341 2.18171 8.19619 2.1849L8.32419 2.40878L8.32837 2.42179L8.32691 2.4354L8.31995 2.44728C8.22556 2.55149 8.1307 2.65437 8.03896 2.76064C7.98142 2.8288 7.9217 2.89671 7.87391 2.97217L7.87185 2.97602C7.87557 2.97822 7.87901 2.97987 7.88306 2.98127L7.9563 2.99647L8.12301 3.0189C8.19705 3.03165 8.2707 3.04346 8.34408 3.05899C8.42236 3.07526 8.49972 3.09464 8.57502 3.12152C8.71753 3.17243 8.85276 3.24299 8.98513 3.3154L8.99229 3.32064C9.04625 3.38928 9.08164 3.47039 9.12579 3.54559L9.13003 3.55787L9.12917 3.57088L9.1234 3.58249L9.11346 3.59106L8.16033 4.12996L8.15894 4.13075L8.15012 4.13719C8.15808 4.15989 8.15788 4.15956 8.16437 4.18272C8.18757 4.28859 8.18327 4.39638 8.16842 4.50318C8.15423 4.6054 8.13289 4.70795 8.10021 4.80598C8.07926 4.86871 8.05301 4.93163 8.01331 4.98513C7.96664 5.04792 7.89532 5.08662 7.82691 5.12186C7.66219 5.20682 7.48315 5.24306 7.30405 5.28654L7.29059 5.28707L7.27806 5.28223L7.26845 5.27287L7.26335 5.26052L7.24802 5.17974C7.2477 5.16202 7.25241 5.15313 7.26726 5.14337C7.33991 5.11124 7.41295 5.08051 7.48441 5.04613C7.54175 5.01706 7.60339 4.98646 7.65059 4.94212C7.69977 4.89586 7.73663 4.83638 7.76898 4.77797C7.82565 4.67556 7.8688 4.56544 7.88955 4.45008C7.90095 4.38669 7.90592 4.32151 7.90009 4.2572C7.89625 4.21438 7.88723 4.17104 7.86715 4.13268C7.85058 4.10095 7.82625 4.07261 7.80132 4.04718C7.71058 3.95466 7.59067 3.91025 7.46499 3.88828L7.45319 3.88384C7.44398 3.87534 7.44398 3.87541 7.43854 3.86406L7.37451 3.62232L7.37378 3.60938L7.37802 3.59716L7.3867 3.58747L7.3985 3.58183L7.4115 3.58117C7.44895 3.58648 7.44862 3.58648 7.486 3.59371C7.61327 3.62451 7.73305 3.67794 7.8464 3.74319C7.85979 3.75175 7.87132 3.76118 7.88365 3.7712C7.91295 3.79775 7.93953 3.82596 7.96558 3.85563L7.97049 3.86153L8.72549 3.43746C8.69473 3.42525 8.66338 3.41496 8.63176 3.40527C8.55129 3.38277 8.47022 3.36624 8.38716 3.35669L8.36237 3.35436L7.94145 3.37348C7.92694 3.37268 7.91295 3.36936 7.8987 3.36624C7.869 3.35781 7.84083 3.34706 7.81452 3.33073C7.788 3.31427 7.76427 3.29363 7.74379 3.27027C7.63879 3.15046 7.62573 2.98107 7.67406 2.83411C7.71759 2.70163 7.80639 2.58843 7.89546 2.48069L7.95667 2.40566L7.87908 2.49169C7.84554 2.53304 7.81286 2.57432 7.78018 2.61621C7.76009 2.64189 7.73935 2.66652 7.72158 2.69386C7.71946 2.69771 7.7192 2.69738 7.71873 2.70209C7.70322 2.73893 7.67531 2.77537 7.65397 2.80903L7.64529 2.81818C7.63084 2.82489 7.62427 2.82522 7.60923 2.82011C7.59822 2.81068 7.59862 2.81062 7.58961 2.79933C7.57999 2.78453 7.57164 2.76774 7.56627 2.75095C7.55938 2.72918 7.55315 2.70674 7.55262 2.68371C7.54977 2.56251 7.62693 2.45943 7.70064 2.36969L7.95464 2.06363L7.96452 2.0556C7.97678 2.05175 7.97672 2.05182 7.98951 2.05288ZM23.5534 3.54718L23.5657 3.55136L23.5755 3.55993L23.5813 3.57161C23.5908 3.60785 23.5908 3.60758 23.5987 3.64449C23.6073 3.69639 23.6134 3.7479 23.6142 3.8006C23.6154 3.87222 23.6083 3.94437 23.6036 4.01552C23.6011 4.0355 23.6011 4.03517 23.5969 4.05515C23.5838 4.10075 23.5655 4.14316 23.5448 4.18584L23.542 4.19142C23.6042 4.23509 23.6563 4.27286 23.7227 4.30558C23.7202 4.2935 23.7208 4.28142 23.721 4.26921C23.7229 4.24585 23.7265 4.22003 23.7428 4.20164C23.7523 4.19102 23.7619 4.18047 23.7715 4.16985L23.7829 4.16168L24.0644 4.03876C24.0844 4.03139 24.0841 4.03145 24.1044 4.02521C24.1236 4.0207 24.1423 4.01679 24.1622 4.01625C24.1588 4.00305 24.1562 3.98964 24.1556 3.9761C24.1577 3.94205 24.1679 3.91649 24.1966 3.89625C24.227 3.87826 24.2572 3.86027 24.2885 3.84394C24.3428 3.81952 24.3974 3.79569 24.452 3.7716L24.4642 3.76881C24.4844 3.7718 24.4929 3.77916 24.4986 3.79861L24.5153 3.96654C24.5314 4.17383 24.5435 4.38191 24.5226 4.58934C24.5142 4.67337 24.5036 4.75999 24.4734 4.83957C24.4514 4.89745 24.4133 4.94371 24.3647 4.98228C24.3362 5.00504 24.3047 5.02502 24.2719 5.04142C24.2412 5.05688 24.2084 5.07049 24.1743 5.0766C24.1383 5.08303 24.102 5.07951 24.0714 5.05881C24.0581 5.04985 24.0462 5.03684 24.0359 5.02496C24.024 5.01102 24.0126 4.99542 24.0024 4.98022C23.9674 4.92785 23.9392 4.8711 23.9125 4.81415C23.8917 4.76988 23.8828 4.74976 23.8618 4.70337L23.8366 4.64675C23.7965 4.64118 23.7566 4.63467 23.7167 4.62757C23.6811 4.62033 23.646 4.61244 23.6109 4.60301C23.5714 4.59066 23.5346 4.57566 23.4985 4.55529C23.4605 4.53385 23.4248 4.50763 23.3877 4.4846L23.3563 4.46528C23.3387 4.48121 23.3389 4.48088 23.3201 4.49581C23.2975 4.51174 23.2977 4.51161 23.2744 4.52628C23.1842 4.57712 23.0867 4.61031 22.9864 4.6354C22.8984 4.65737 22.8087 4.67483 22.7183 4.68259C22.652 4.68824 22.5836 4.68923 22.5185 4.67396C22.4508 4.6581 22.3953 4.61708 22.3413 4.57513C22.2702 4.51997 22.2057 4.45672 22.1475 4.38829C22.0814 4.31049 22.0215 4.22514 21.9607 4.14423L21.955 4.13221L21.9546 4.11894L21.9594 4.10652L21.9687 4.09703L22.0374 4.05064C22.0475 4.04606 22.0473 4.04606 22.0587 4.04506C22.0698 4.04778 22.0695 4.04778 22.0789 4.05389C22.1371 4.10798 22.1937 4.16288 22.2538 4.21458C22.2814 4.23715 22.3094 4.25866 22.3384 4.2793C22.3635 4.29622 22.3881 4.31361 22.416 4.32569C22.4929 4.35882 22.5802 4.36718 22.6627 4.37282C22.7778 4.38072 22.896 4.37037 23.0072 4.3393C23.0946 4.31488 23.1906 4.27678 23.2495 4.20469C23.2666 4.18365 23.28 4.15943 23.2918 4.1352C23.3524 4.01021 23.348 3.87335 23.3173 3.74113L23.3168 3.72865C23.3211 3.7169 23.321 3.7169 23.3293 3.70748L23.5286 3.55389L23.5403 3.54804L23.5534 3.54718ZM24.2399 4.58343C24.2279 4.59073 24.216 4.59803 24.2041 4.60527C24.1861 4.61482 24.1668 4.62133 24.1473 4.6271L24.1408 4.62856C24.1643 4.67523 24.1868 4.72255 24.2136 4.76742C24.2196 4.77658 24.2192 4.77638 24.2256 4.78521C24.2339 4.7714 24.2356 4.75156 24.2375 4.73609C24.243 4.69043 24.2419 4.64403 24.2407 4.59816L24.2399 4.58343ZM24.0499 4.22109C24.0348 4.22228 24.0204 4.22394 24.0084 4.2339C24.004 4.23914 24.0012 4.24392 23.9991 4.25043C23.9951 4.27107 24.0006 4.29178 24.0061 4.31162C24.0132 4.33751 24.0225 4.36267 24.0324 4.38762C24.0639 4.38722 24.0637 4.38676 24.0949 4.38371C24.1373 4.37329 24.1752 4.34587 24.1794 4.29915C24.1791 4.29164 24.1777 4.2856 24.1748 4.27864C24.1586 4.25056 24.1291 4.23456 24.0987 4.22587C24.0823 4.22248 24.0666 4.22102 24.0499 4.22109ZM20.637 3.38709L20.6499 3.38828C20.6615 3.39425 20.6614 3.39425 20.6697 3.40421L20.7568 3.56351L20.945 3.46415L20.9574 3.46043C20.9736 3.46202 20.9794 3.46508 20.9898 3.47749L21.1218 3.71724L21.1257 3.72978L21.1245 3.74286L21.1182 3.7544L21.1078 3.76257L20.8892 3.87448L20.8768 3.87806C20.8606 3.87627 20.8547 3.87315 20.8445 3.86047L20.7605 3.7021L20.7426 3.71153L20.7514 3.71631L20.7596 3.72639L20.8869 3.96873L20.8905 3.98134L20.889 3.99428L20.8826 4.0057L20.8722 4.01373L20.6516 4.12299L20.6392 4.12637C20.6231 4.12445 20.6173 4.12126 20.6072 4.10865L20.4825 3.87089C20.4766 3.85065 20.48 3.83956 20.4965 3.82629L20.5388 3.80425L20.5305 3.79974L20.5223 3.78972L20.3963 3.55063L20.3927 3.53829C20.3943 3.52223 20.3974 3.51645 20.41 3.5061L20.6246 3.39087L20.637 3.38709ZM19.7449 1.7836L19.758 1.78406L19.7698 1.7895L19.7787 1.79913C19.7983 1.83112 19.7981 1.83086 19.8163 1.86391C19.8395 1.91117 19.8602 1.95889 19.876 2.00921C19.8972 2.07724 19.9114 2.14893 19.9275 2.21789C19.9308 2.23793 19.9306 2.2376 19.9321 2.25798C19.9324 2.3053 19.9267 2.3513 19.9194 2.39803L19.9179 2.40573L20.4542 2.60824C20.4625 2.58069 20.4699 2.55341 20.4759 2.52534C20.4802 2.49839 20.4831 2.4727 20.4816 2.44542C20.4662 2.38894 20.4664 2.38914 20.4498 2.33272C20.4398 2.30165 20.4299 2.27086 20.4177 2.24052L20.4154 2.22791C20.418 2.2153 20.418 2.21537 20.4252 2.20475L20.6178 2.01465L20.629 2.00741L20.6421 2.00502L20.6551 2.00801L20.6659 2.01578L20.6727 2.02713C20.6875 2.06868 20.6874 2.06835 20.7004 2.1101C20.7182 2.17687 20.7325 2.24417 20.7295 2.31367C20.725 2.42199 20.6855 2.52793 20.6501 2.62928L20.6396 2.65835L21.4235 3.0124C21.3976 2.9654 21.3688 2.91967 21.3398 2.87454C21.2751 2.78009 21.1961 2.69008 21.0962 2.63114C21.053 2.60565 21.0052 2.58899 20.9586 2.57107C20.9261 2.55859 20.9265 2.55813 20.8929 2.54804L20.8808 2.5414L20.8724 2.53045L20.8693 2.51711L20.8718 2.50363L20.8796 2.49228C20.9057 2.46772 20.9321 2.44383 20.9615 2.42325C21.0278 2.37699 21.1024 2.34964 21.1835 2.34692L21.2143 2.34792C21.2691 2.35323 21.3225 2.3679 21.3714 2.39345C21.502 2.46162 21.5854 2.6012 21.6502 2.72718C21.7055 2.84215 21.7531 2.96063 21.81 3.07479C21.8504 3.15033 21.8992 3.22327 21.9784 3.26217L21.9886 3.26987C21.9967 3.28354 21.9977 3.29005 21.994 3.30551L21.8874 3.53928C21.875 3.55641 21.8642 3.56052 21.8435 3.55594L20.529 2.97895L19.8131 2.72645C19.801 2.74584 19.8011 2.74537 19.788 2.76369C19.7212 2.84726 19.6365 2.91184 19.5456 2.96779C19.4675 3.01585 19.3856 3.05933 19.3011 3.09497C19.2297 3.12504 19.1535 3.15125 19.0755 3.1557C19.0062 3.15962 18.9413 3.13632 18.8775 3.11163C18.7935 3.07917 18.7134 3.03709 18.638 2.98804C18.552 2.93215 18.4706 2.8667 18.3892 2.80571L18.3802 2.79562L18.3761 2.78287L18.3774 2.76953L18.3838 2.75778L18.4365 2.69619L18.448 2.68749L18.4623 2.68457L18.4764 2.68789C18.5554 2.72599 18.6343 2.76641 18.7151 2.80119C18.767 2.82203 18.8214 2.84447 18.8774 2.85124C18.9446 2.85927 19.0142 2.84905 19.0799 2.83604C19.2024 2.81188 19.3223 2.77332 19.4295 2.70853C19.5125 2.65829 19.6027 2.59185 19.6418 2.49998C19.6558 2.46739 19.6621 2.43102 19.6658 2.39597C19.6793 2.26734 19.6369 2.14654 19.5745 2.03576L19.5705 2.02401C19.5712 2.0116 19.5712 2.01166 19.5765 2.00031L19.7231 1.797L19.7327 1.78811L19.7449 1.7836ZM19.7595 3.05687C19.7715 3.06185 19.7714 3.06185 19.7806 3.07101L19.8815 3.22188L20.0602 3.10685L20.0722 3.10207C20.0884 3.1022 20.0945 3.10479 20.106 3.11621L20.258 3.34208L20.263 3.35416L20.2629 3.36731L20.2576 3.37932L20.2482 3.38841L20.0396 3.52023L20.0274 3.52488C20.011 3.52455 20.005 3.52189 19.9936 3.51008L19.8974 3.36054L19.7149 3.47682L19.7028 3.48154C19.6864 3.48127 19.6803 3.47862 19.6689 3.46693L19.5216 3.2404C19.5138 3.22088 19.5162 3.2096 19.5313 3.1948L19.7345 3.06171L19.7466 3.0568L19.7595 3.05687ZM9.67948 2.32462C9.78945 2.3359 9.89935 2.34719 10.0093 2.35847C10.0854 2.36883 10.1582 2.39113 10.2181 2.44078C10.2756 2.48837 10.3112 2.55328 10.3351 2.62271C10.3533 2.67554 10.3643 2.7313 10.3631 2.78732C10.3608 2.88662 10.3172 2.98419 10.244 3.05209C10.1989 3.09404 10.145 3.12012 10.0879 3.1421C9.99639 3.17734 9.88563 3.21079 9.79601 3.15245C9.78507 3.14535 9.77493 3.13705 9.76578 3.12776C9.71653 3.07778 9.69711 3.00085 9.68617 2.93441C9.67099 2.84228 9.6765 2.74803 9.67769 2.65523L9.67013 2.65132L9.66165 2.64076L9.65813 2.62769L9.64282 2.35947L9.64508 2.3454L9.65303 2.33365L9.66529 2.32621L9.67948 2.32462ZM13.1982 1.34625L13.2103 1.35103C13.3 1.40871 13.3778 1.47847 13.4447 1.56124C13.4864 1.61295 13.5399 1.6691 13.5689 1.73196C13.5967 1.79236 13.6081 1.86909 13.6209 1.93068C13.6258 1.95478 13.6296 1.979 13.6337 2.00323C13.645 2.0704 13.6556 2.13917 13.6423 2.20687C13.6302 2.2688 13.6051 2.3284 13.5766 2.38449C13.537 2.46241 13.489 2.53543 13.437 2.60578C13.3875 2.67296 13.335 2.73867 13.2738 2.79582C13.2351 2.83192 13.1924 2.86551 13.1439 2.88761C13.0809 2.91635 13.0064 2.92 12.9382 2.92319C12.7528 2.93202 12.5751 2.89007 12.3941 2.85516L12.3816 2.84998L12.3723 2.84029L12.3675 2.82774L12.3682 2.81434L12.3889 2.73488C12.3944 2.72254 12.3987 2.71796 12.4107 2.71172C12.4911 2.69944 12.576 2.71391 12.6581 2.71232C12.7228 2.70953 12.7919 2.70648 12.8539 2.68597C12.918 2.66486 12.9765 2.62616 13.0302 2.58654C13.1248 2.51671 13.2111 2.43547 13.2786 2.33896C13.34 2.25128 13.4031 2.1387 13.3912 2.02766C13.3739 1.86676 13.2574 1.74085 13.1299 1.65237L13.1211 1.64348C13.1163 1.632 13.1163 1.632 13.1161 1.61952L13.1594 1.37313L13.1641 1.36105L13.1732 1.35169L13.1852 1.34652L13.1982 1.34625ZM9.88344 2.66665C9.88145 2.67209 9.8794 2.67754 9.87741 2.68298C9.86919 2.70747 9.85785 2.73342 9.85693 2.75977C9.85534 2.80518 9.87966 2.86259 9.92984 2.87042C9.94197 2.87235 9.95443 2.87115 9.9663 2.86823C9.98181 2.86438 9.99586 2.85761 10.0097 2.84991C10.0457 2.82615 10.0778 2.79688 10.1101 2.76847C10.1231 2.75553 10.1359 2.74298 10.1453 2.72705C10.1466 2.7244 10.1478 2.72187 10.1486 2.71902C10.1333 2.70302 10.1014 2.69778 10.0811 2.693C10.0163 2.6778 9.9496 2.67209 9.88344 2.66665ZM18.4403 1.46938C18.471 1.4729 18.4991 1.47834 18.5278 1.48936C18.5952 1.51524 18.6544 1.58142 18.6678 1.65231C18.6759 1.69545 18.6653 1.73813 18.6574 1.78054L18.6516 1.80643C18.6357 1.86165 18.6339 1.86086 18.611 1.92657L18.6047 1.93732C18.5887 1.94993 18.5775 1.95106 18.5592 1.94197C18.5383 1.91867 18.5237 1.88933 18.5041 1.86457C18.4846 1.84234 18.4642 1.8217 18.4397 1.80497C18.4221 1.79296 18.4031 1.78307 18.3831 1.7759C18.3643 1.76913 18.3435 1.76315 18.3233 1.76349C18.2978 1.76395 18.2724 1.77198 18.2488 1.78107C18.2106 1.79574 18.1744 1.81532 18.1394 1.83617C18.1281 1.84287 18.117 1.84977 18.106 1.85694C18.0679 1.8817 18.021 1.91223 18.0013 1.95518C17.9984 1.96354 17.9976 1.97157 17.9979 1.98047C17.9987 1.98458 17.9993 1.98856 18.0018 1.99208C18.0055 1.99593 18.0052 1.99567 18.0094 1.99865C18.0232 2.00562 18.0394 2.00755 18.0544 2.01067C18.1432 2.02421 18.2326 2.03629 18.3207 2.05421C18.3579 2.0627 18.394 2.07299 18.4305 2.08441C18.4401 2.08806 18.4488 2.09217 18.4577 2.09735C18.4969 2.12483 18.5148 2.16817 18.5147 2.21543C18.5107 2.25891 18.5036 2.30205 18.497 2.34513C18.4754 2.45744 18.4024 2.54492 18.3149 2.61561C18.2718 2.65032 18.2259 2.68152 18.1764 2.70654C17.9979 2.79655 17.785 2.81818 17.588 2.80909C17.5126 2.80557 17.4378 2.79701 17.3633 2.78553C17.3372 2.78155 17.3113 2.77683 17.2855 2.77113C17.1306 2.73674 16.9561 2.65948 16.8909 2.5045C16.853 2.41436 16.8668 2.32163 16.8874 2.22911C16.9105 2.1249 16.9463 2.02633 16.993 1.93035L17.0042 1.90865C17.0272 1.87201 17.0494 1.83484 17.0734 1.79873C17.1165 1.73375 17.1775 1.65304 17.223 1.59144L17.2319 1.58314C17.2462 1.57744 17.2527 1.57737 17.2671 1.58275L17.3418 1.62775C17.3562 1.64049 17.3594 1.65065 17.355 1.66923C17.3437 1.68616 17.3426 1.68476 17.3286 1.6995C17.3172 1.71158 17.3072 1.72499 17.2969 1.738C17.2431 1.81021 17.1965 1.88834 17.1594 1.97038C17.1346 2.02527 17.1144 2.08242 17.1021 2.14136C17.0969 2.16598 17.0925 2.19081 17.0936 2.21603C17.0991 2.34832 17.237 2.4271 17.3514 2.45724C17.3757 2.46368 17.4005 2.46879 17.4254 2.47237C17.5711 2.49361 17.7164 2.48266 17.8613 2.46016C17.9954 2.43925 18.1269 2.40706 18.2482 2.34526L18.2533 2.34221C18.1416 2.3292 18.0295 2.31241 17.9197 2.28957C17.902 2.2844 17.8861 2.27829 17.8698 2.26993C17.8471 2.25692 17.8229 2.23833 17.8091 2.2157C17.7836 2.17382 17.7791 2.12111 17.7811 2.07346C17.7832 2.02487 17.7915 1.97874 17.8122 1.93453C17.8512 1.85103 17.9151 1.77942 17.979 1.71404C18.0857 1.60505 18.2078 1.50363 18.3614 1.47296C18.3882 1.46971 18.4134 1.46845 18.4403 1.46938ZM11.8803 1.53827L11.8936 1.53867L11.9058 1.54431C11.9414 1.57053 11.9411 1.57033 11.9755 1.59768C12.0278 1.64295 12.0777 1.69074 12.1148 1.74941C12.1638 1.82701 12.1887 1.9196 12.2139 2.00668C12.2472 2.13094 12.2798 2.25539 12.3127 2.37978L12.3135 2.39265L12.3093 2.40487L12.3006 2.41456L12.2889 2.4202L11.5229 2.61859C11.3522 2.67621 11.1837 2.74086 11.0105 2.79051C10.9764 2.79781 10.9428 2.80152 10.908 2.79748C10.8857 2.79489 10.8639 2.78971 10.8428 2.78208C10.7954 2.76482 10.7527 2.73402 10.7351 2.68543C10.726 2.66041 10.7222 2.63386 10.7159 2.60804C10.7042 2.56085 10.7002 2.51352 10.6951 2.4652L10.696 2.45319C10.7011 2.4423 10.7011 2.4423 10.7099 2.43401L10.7546 2.40487C10.769 2.39889 10.7755 2.39883 10.7901 2.4042L10.8438 2.46547C10.8513 2.47131 10.8584 2.47615 10.8673 2.47967C10.8755 2.48193 10.8828 2.48146 10.8915 2.48113C10.9026 2.47974 10.9128 2.47748 10.9236 2.47443L11.37 2.32508C11.3274 2.21065 11.2716 2.08819 11.1707 2.01272C11.1383 1.98856 11.1021 1.96985 11.0642 1.95597C11.0079 1.93526 10.9503 1.92816 10.8911 1.92033L10.8787 1.91608L10.8689 1.90739L10.8632 1.89564L10.7919 1.61753L10.7912 1.60432L10.7958 1.59191L10.805 1.58228L10.8171 1.57697L10.8304 1.57677C10.9384 1.59715 11.0421 1.63074 11.1355 1.68974C11.2489 1.76143 11.337 1.86245 11.4053 1.97648C11.4621 2.0712 11.5069 2.1701 11.534 2.27703L12.0533 2.14773C12.0387 2.09483 12.0179 2.04153 11.9841 1.99772C11.9422 1.96148 11.8999 1.92604 11.8563 1.89179C11.8353 1.87646 11.8362 1.87533 11.8174 1.86457L11.8071 1.85555L11.8014 1.84314L11.8012 1.82946L11.8532 1.56456L11.8583 1.55235L11.8679 1.54305L11.8803 1.53827ZM15.7345 1.16644L15.7474 1.16843L15.7585 1.1752C15.7863 1.20076 15.7861 1.20056 15.8128 1.22764C15.867 1.28797 15.9137 1.35223 15.9529 1.42318C15.9888 1.48796 16.0349 1.55613 16.0504 1.6308C16.0544 1.64992 16.0562 1.66917 16.0571 1.68861C16.0619 1.79714 16.0634 1.79674 16.0624 1.89126C16.0618 1.95876 16.0606 2.02832 16.0362 2.09224C16.0176 2.14083 15.9903 2.18576 15.9606 2.22838C15.904 2.30942 15.8364 2.3819 15.765 2.44994C15.7043 2.50762 15.6411 2.5633 15.5707 2.60917C15.5265 2.63811 15.4787 2.66386 15.4272 2.6776C15.3599 2.69559 15.286 2.68643 15.218 2.6778C15.0339 2.6543 14.8662 2.58255 14.6942 2.51658L14.6828 2.50934L14.6753 2.49832L14.6728 2.48525L14.6757 2.47224L14.709 2.39743C14.7189 2.38257 14.7278 2.37792 14.7458 2.37832C14.824 2.39332 14.9004 2.40965 14.9787 2.42126C15.0428 2.42943 15.1116 2.43952 15.176 2.42956C15.2428 2.41927 15.3071 2.3908 15.367 2.36099C15.4789 2.30531 15.5839 2.23601 15.67 2.14494C15.7385 2.07253 15.8126 1.97695 15.8194 1.8736C15.8301 1.71125 15.7382 1.56775 15.6271 1.45809L15.62 1.44781C15.6173 1.43566 15.6173 1.43573 15.6192 1.42338L15.7045 1.18828L15.7113 1.17719L15.7218 1.16949L15.7345 1.16644ZM14.3959 0.236328L14.4091 0.24051L14.4195 0.249736L14.4252 0.262414L14.5198 0.705932L14.5432 0.809676C14.5767 0.992141 14.6135 1.17461 14.6401 1.35833C14.6627 1.51431 14.6879 1.6778 14.6539 1.83411C14.6361 1.91655 14.6014 1.99221 14.5611 2.06596L14.5532 2.07558C14.5394 2.08315 14.5329 2.08401 14.5176 2.08009L14.4737 2.05958C14.461 2.05042 14.4575 2.04492 14.4545 2.02958C14.4545 1.97549 14.4548 1.92139 14.4539 1.8673C14.4486 1.72645 14.4258 1.58474 14.4016 1.44635C14.3511 1.15668 14.2913 0.869878 14.2339 0.581677L14.2333 0.572385L14.2355 0.563358L14.2951 0.4097L14.3619 0.256108L14.37 0.244824L14.382 0.237855L14.3959 0.236328ZM19.7439 1.08765C19.7479 1.08911 19.752 1.09058 19.756 1.0921L19.7657 1.1008L19.929 1.32063L19.9346 1.33251L19.9351 1.34559L19.9304 1.35787L19.9214 1.36736L19.7195 1.50907L19.7077 1.51431C19.6914 1.51478 19.6852 1.51252 19.6733 1.5015L19.5146 1.28426C19.5058 1.26514 19.5075 1.25372 19.5218 1.23813L19.7191 1.09376C19.7309 1.08825 19.7308 1.08825 19.7439 1.08765ZM11.5826 1.0319C11.5868 1.03276 11.591 1.03369 11.5953 1.03462L11.8485 1.14321L11.8594 1.15071L11.8665 1.1618L11.8686 1.17474L11.8655 1.18755L11.7616 1.4107C11.7493 1.42763 11.7385 1.43168 11.7179 1.4271L11.4713 1.31917C11.454 1.30709 11.4497 1.29634 11.4542 1.27569L11.5515 1.05188C11.5608 1.0384 11.5664 1.03482 11.5826 1.0319ZM12.8777 0.732747C12.8818 0.734008 12.886 0.735269 12.8901 0.736464L13.1327 0.864966L13.1429 0.873329L13.149 0.884879L13.1502 0.897955L13.1461 0.910433L13.0255 1.1237C13.0119 1.13956 13.0008 1.14275 12.9807 1.13664L12.7435 1.01086C12.727 0.997451 12.7236 0.986366 12.7297 0.966122L12.845 0.750204L12.8533 0.740181L12.8647 0.734008L12.8777 0.732747Z" fill="currentColor"/>
</svg>
